<svg width="35" height="35" viewBox="0 0 35 35" fill="none" xmlns="http://www.w3.org/2000/svg">
<path d="M34.8425 27.8967L34.6683 27.3718C34.2557 26.1454 32.9034 24.8664 31.6609 24.5294L27.0627 23.2733C25.8157 22.934 24.0369 23.3902 23.1246 24.3025L21.4604 25.9667C15.4124 24.3324 10.6698 19.5897 9.03771 13.5428L10.702 11.8785C11.6143 10.9662 12.0704 9.18976 11.7312 7.94279L10.4773 3.34228C10.1381 2.09758 8.85668 0.745201 7.63267 0.337148L7.10776 0.160665C5.8814 -0.247388 4.13242 0.165286 3.22015 1.07756L0.730751 3.56922C0.286022 4.01161 0.00178625 5.27692 0.00178625 5.28154C-0.0852817 13.1851 3.01381 20.7999 8.6045 26.3906C14.1815 31.9676 21.7677 35.0621 29.6483 34.9957C29.6895 34.9957 30.9915 34.716 31.4363 34.2736L33.9257 31.7842C34.8379 30.872 35.2505 29.123 34.8425 27.8967Z" fill="white"/>
</svg>
