<svg width="36" height="36" viewBox="0 0 36 36" fill="none" xmlns="http://www.w3.org/2000/svg">
<path fill-rule="evenodd" clip-rule="evenodd" d="M17.9948 0C8.0717 0 0 8.07395 0 17.9998C0 21.9363 1.26948 25.587 3.42751 28.5502L1.18469 35.2378L8.10333 33.0267C10.9489 34.9102 14.3448 36 18.0052 36C27.9283 36 36 27.9257 36 18.0002C36 8.07427 27.9283 0.000297546 18.0052 0.000297546L17.9948 0ZM12.9696 9.14312C12.6206 8.3072 12.3561 8.27555 11.8273 8.25405C11.6473 8.2436 11.4467 8.23315 11.2242 8.23315C10.5363 8.23315 9.8171 8.43414 9.38329 8.87853C8.85453 9.41819 7.54262 10.6773 7.54262 13.2594C7.54262 15.8415 9.42568 18.3388 9.67946 18.6882C9.94399 19.037 13.3506 24.4127 18.64 26.6036C22.7763 28.3179 24.0037 28.159 24.9451 27.958C26.3202 27.6617 28.0448 26.6454 28.4786 25.4183C28.9124 24.1905 28.9124 23.1429 28.7852 22.9207C28.6583 22.6985 28.309 22.5719 27.7802 22.307C27.2515 22.0424 24.6805 20.7725 24.1939 20.6032C23.7177 20.4234 23.2629 20.487 22.9035 20.995C22.3956 21.704 21.8985 22.4237 21.4964 22.8574C21.179 23.196 20.6604 23.2384 20.2268 23.0584C19.6449 22.8153 18.016 22.2433 16.0058 20.455C14.4505 19.069 13.3927 17.3443 13.0861 16.8259C12.7792 16.297 13.0544 15.9896 13.2974 15.7041C13.562 15.3759 13.8158 15.1433 14.0803 14.8363C14.3448 14.5295 14.4929 14.3707 14.6622 14.0108C14.8423 13.6617 14.715 13.3018 14.5882 13.0372C14.4613 12.7726 13.4034 10.1905 12.9696 9.14312Z" fill="white"/>
</svg>
