<svg width="124" height="38" viewBox="0 0 124 38" fill="none" xmlns="http://www.w3.org/2000/svg">
<rect x="20" width="104" height="38" fill="#DD4A4A"/>
<path d="M17.36 37.9984C13.5913 37.7536 9.0557 35.9585 5.48272 32.2378C1.92606 28.5498 -0.048056 24.111 0.000888895 18.8564C0.0498338 13.6017 1.92606 9.19563 5.62955 5.50757C9.46357 1.70529 14.0481 -0.138742 19.432 0.00812761C24.4734 0.138678 28.8621 2.01534 32.3535 5.58917C36.0407 9.35882 38.0637 13.9118 37.9985 19.3296C37.9332 24.6169 35.7959 28.9904 32.1577 32.5642C28.5032 36.1707 23.9839 38.0636 17.36 37.9984ZM21.9772 9.91366C21.5856 9.91366 21.194 9.79943 21.0635 9.92998C18.241 12.7042 15.4349 15.511 12.6613 18.3179C12.0087 18.9706 12.4982 19.4928 13.0039 19.9987C14.8475 21.8264 16.6748 23.6704 18.5184 25.4981C19.3831 26.363 20.2478 27.2279 21.1777 28.0112C21.3409 28.1418 21.9119 27.8807 22.2056 27.6685C22.3524 27.5706 22.385 27.0811 22.2708 26.9179C21.863 26.3794 21.3898 25.9061 20.9167 25.4329C19.0894 23.5888 17.2784 21.7448 15.4022 19.9334C14.6191 19.1828 14.7496 18.6279 15.4675 17.9262C17.3274 16.1311 19.1547 14.2708 20.9819 12.4268C21.4551 11.9535 21.9282 11.4639 22.2545 10.9091C22.385 10.697 22.0751 10.24 21.9772 9.91366Z" fill="#DD4A4A"/>
<path d="M58.34 12H61.58V26H58.34V20.26H51.98V26H48.74V12H51.98V17.52H58.34V12ZM72.5877 15.24H75.7077V26H72.7277V24.76C71.9477 25.7 70.8077 26.16 69.3677 26.16C66.3277 26.16 63.9877 24 63.9877 20.62C63.9877 17.24 66.3277 15.08 69.3677 15.08C70.6877 15.08 71.8077 15.5 72.5877 16.38V15.24ZM69.9077 23.6C71.4477 23.6 72.6477 22.48 72.6477 20.62C72.6477 18.76 71.4477 17.64 69.9077 17.64C68.3477 17.64 67.1477 18.76 67.1477 20.62C67.1477 22.48 68.3477 23.6 69.9077 23.6ZM85.5386 20.4C86.8186 20.8 87.5586 21.64 87.5586 22.8C87.5586 24.9 85.2386 26.2 82.1786 26.2C80.5186 26.2 78.8386 25.86 77.4386 25.16L78.2786 22.98C79.3986 23.52 80.7186 23.8 82.0386 23.8C83.4786 23.8 84.3986 23.34 84.3986 22.54C84.3986 21.84 83.7986 21.48 82.6786 21.48H80.4786V19.54H82.3986C83.4986 19.54 84.0986 19.18 84.0986 18.52C84.0986 17.84 83.3586 17.44 81.9786 17.44C80.8986 17.44 79.7786 17.7 78.5786 18.18L77.8186 16.02C79.2786 15.38 80.7586 15.04 82.1786 15.04C85.0786 15.04 87.2586 16.16 87.2586 18.06C87.2586 19.08 86.5786 19.94 85.5386 20.4ZM97.5291 15.24H100.649V26H97.6691V24.76C96.8891 25.7 95.7491 26.16 94.3091 26.16C91.2691 26.16 88.9291 24 88.9291 20.62C88.9291 17.24 91.2691 15.08 94.3091 15.08C95.6291 15.08 96.7491 15.5 97.5291 16.38V15.24ZM94.8491 23.6C96.3891 23.6 97.5891 22.48 97.5891 20.62C97.5891 18.76 96.3891 17.64 94.8491 17.64C93.2891 17.64 92.0891 18.76 92.0891 20.62C92.0891 22.48 93.2891 23.6 94.8491 23.6ZM111.618 15.24H114.578V24.2C114.578 28.2 112.418 30.04 108.538 30.04C106.498 30.04 104.518 29.54 103.258 28.56L104.498 26.32C105.418 27.06 106.918 27.54 108.298 27.54C110.498 27.54 111.458 26.54 111.458 24.6V24.14C110.638 25.04 109.458 25.48 108.058 25.48C105.078 25.48 102.678 23.42 102.678 20.28C102.678 17.14 105.078 15.08 108.058 15.08C109.558 15.08 110.798 15.58 111.618 16.62V15.24ZM108.678 22.92C110.318 22.92 111.498 21.86 111.498 20.28C111.498 18.7 110.318 17.64 108.678 17.64C107.038 17.64 105.838 18.7 105.838 20.28C105.838 21.86 107.038 22.92 108.678 22.92Z" fill="white"/>
</svg>
