<svg width="164" height="173" viewBox="0 0 164 173" fill="none" xmlns="http://www.w3.org/2000/svg">
<path d="M114.005 104.847C100.063 104.847 86.1217 104.847 72.1799 104.847C65.7936 104.847 64.8042 103.857 64.8042 97.6508C64.8042 85.5079 64.8042 73.3651 64.8042 61.2222C64.8042 56.3651 65.3439 55.6455 69.9312 54.0265C83.5132 49.2593 97.0952 44.4921 110.677 39.9947C112.746 39.2751 115.444 39.2751 117.513 39.9947C131.185 44.582 144.677 49.4392 158.259 54.0265C161.587 55.1958 163.026 57.0847 163.026 60.5926C162.936 73.3651 163.026 86.0476 162.936 98.8201C162.936 103.677 161.767 104.757 156.64 104.757C142.518 104.847 128.217 104.847 114.005 104.847ZM68.6719 57.8042C68.6719 58.0741 68.6719 58.3439 68.6719 58.5238C98.6243 58.5238 128.577 58.5238 158.529 58.5238C158.529 58.254 158.529 57.9841 158.529 57.8042C128.577 57.8042 98.6243 57.8042 68.6719 57.8042ZM76.4973 62.9312C72.5396 63.0212 69.3915 66.1693 69.3016 70.037C69.3016 73.8148 72.5396 77.2328 76.4074 77.3228C80.5449 77.4127 83.783 74.0847 83.6931 69.9471C83.6031 65.8995 80.455 62.9312 76.4973 62.9312ZM157.09 87.3069C157.09 87.037 157 86.7672 157 86.4974C147.645 86.4974 138.381 86.4974 129.026 86.4974C129.026 86.7672 129.026 87.037 129.026 87.3069C138.471 87.3069 147.825 87.3069 157.09 87.3069ZM129.116 92.4339C129.116 92.8836 129.116 93.2434 129.116 93.6931C138.381 93.6032 147.556 93.873 156.82 93.5132C156.82 93.1534 156.82 92.7936 156.82 92.4339C147.645 92.4339 138.381 92.4339 129.116 92.4339ZM129.116 98.6402C129.116 98.9101 129.206 99.1799 129.206 99.4497C138.471 99.4497 147.825 99.4497 157.09 99.4497C157.09 99.1799 157.09 98.9101 157.09 98.6402C147.735 98.6402 138.471 98.6402 129.116 98.6402Z" fill="white"/>
<path d="M23.5185 65.7196C30.0847 68.5979 33.1429 75.7037 30.6244 82.5397C29.2752 86.1376 26.8466 89.2857 25.0476 92.7037C23.2487 96.0317 21.7196 99.5397 19.7408 103.497C26.6667 103.857 32.5132 104.037 38.2699 104.577C41.6879 104.937 45.1058 105.566 48.3439 106.556C53.1111 108.085 53.6508 110.963 50.6826 114.921C49.963 115.91 49.6032 117.349 49.4233 118.519C48.0741 134.349 46.7249 150.18 45.4656 166.011C45.0159 171.677 44.746 172.487 39.2593 172.667C30.4445 173.026 21.6296 172.937 12.8148 172.487C8.31748 172.217 8.04763 171.407 7.68785 166.82C6.33864 150.72 4.98943 134.619 3.46033 118.429C3.37039 117.079 2.74076 115.64 1.93123 114.561C-0.40739 111.503 -0.227497 108.804 3.37039 107.365C6.78838 105.926 10.4762 105.206 14.164 104.667C16.5027 104.307 17.3122 103.857 17.3122 101.159C17.4021 98.0106 18.4815 94.7725 19.6508 91.7143C20.4603 89.3757 21.9894 87.2169 23.2487 84.9683C26.7566 78.672 28.7355 72.3757 23.5185 65.7196ZM39.0794 142.354C38.9894 135.519 33.1429 129.852 26.2169 129.942C19.291 130.032 13.8042 135.788 13.8942 142.804C13.9841 149.82 19.6508 155.217 26.6667 155.127C33.5926 155.037 39.1693 149.28 39.0794 142.354ZM5.79896 107.815C15.3334 111.413 39.4392 111.323 47.4445 108.265C46.2752 107.815 45.5556 107.365 44.746 107.275C38.5397 106.646 32.2434 106.106 26.0371 105.566C24.6878 105.476 23.0688 105.206 22.0794 105.926C21.4498 106.376 21.7196 108.265 21.5397 109.884C19.0212 108.354 17.9418 104.847 14.254 106.196C11.5556 107.185 8.67727 107.365 5.79896 107.815ZM5.61906 115.101C13.7143 119.418 41.8677 119.148 47.4445 114.741C33.2328 117.259 19.4709 117.349 5.61906 115.101Z" fill="white"/>
<path d="M134.423 42.963C130.825 43.1429 129.476 41.7037 129.566 38.1958C129.746 28.7513 129.476 19.3069 129.656 9.86243C129.746 6.71428 129.116 5.45503 125.519 5.45503C97.8148 5.63492 70.1111 5.63492 42.4074 5.45503C38.8995 5.45503 38.1799 6.53439 38.2698 9.77249C38.3598 37.9259 38.3598 66.0794 38.3598 94.2328C38.3598 95.4021 38.5397 96.6614 38.3598 97.8307C38.09 99.2698 39.5291 101.698 36.291 101.788C33.1429 101.788 33.2328 99.7196 33.2328 97.5609C33.2328 66.8889 33.2328 36.127 33.2328 5.45503C33.2328 0.957673 33.6825 0.507937 38.09 0.507937C68.672 0.507937 99.164 0.507937 129.746 0.507937C134.243 0.507937 134.603 0.957673 134.603 5.45503C134.603 16.9683 134.603 28.4815 134.603 40.0847C134.693 40.8942 134.513 41.8836 134.423 42.963Z" fill="white"/>
<path d="M91.2486 161.153C78.3862 161.153 65.4338 161.153 52.5714 161.153C50.8624 161.153 48.5238 161.603 49.1534 158.635C49.3333 157.646 50.5026 156.566 51.4021 156.206C52.3915 155.757 53.7407 156.116 55 156.116C78.2063 156.116 101.503 156.116 124.709 156.116C129.566 156.116 129.566 156.116 129.566 151.259C129.566 138.037 129.566 124.905 129.566 111.683C129.566 110.423 129.746 108.894 130.376 107.905C130.735 107.365 132.444 107.365 133.254 107.725C133.884 108.085 134.423 109.344 134.423 110.153C134.513 125.894 134.423 141.635 134.513 157.376C134.513 160.794 132.534 161.153 129.836 161.153C117.063 161.063 104.201 161.153 91.2486 161.153Z" fill="white"/>
<path d="M126.148 147.122C124.259 150.72 120.841 151.349 116.614 151.349C99.0741 151.169 81.6243 151.349 64.0846 151.169C60.5767 151.169 57.0688 150.18 53.6508 149.28C52.8412 149.101 51.7619 147.571 51.8518 146.672C51.8518 145.772 53.1111 144.333 53.8307 144.243C56.8889 144.063 58.6878 142.534 60.3069 140.106C60.8465 139.296 62.2857 138.487 63.3651 138.487C71.5502 138.397 79.7354 138.397 87.9206 138.397C88.0106 138.757 88.0106 139.116 88.1005 139.386C87.1111 139.566 86.1217 139.836 85.1322 139.836C78.836 139.836 72.5397 139.836 66.2434 139.926C64.6243 139.926 63.0952 140.556 61.4762 140.915C61.5661 141.275 61.5661 141.635 61.6561 142.085C63.0952 142.175 64.4444 142.265 65.8836 142.265C82.7936 142.265 99.7037 142.354 116.614 142.265C120.661 142.354 124.349 142.444 126.148 147.122ZM106.81 144.153C102.312 144.153 97.8148 144.243 93.4074 144.153C91.4286 144.153 90.7989 144.963 90.7989 146.852C90.7989 148.651 91.2487 149.64 93.3174 149.55C102.132 149.46 110.947 149.55 119.672 149.55C121.381 149.55 122.46 149.55 122.46 146.942C122.46 144.423 121.561 144.243 119.762 144.243C115.444 144.153 111.127 144.243 106.81 144.153ZM63.6349 142.714C62.2857 144.603 60.9365 145.683 61.0264 146.672C61.1164 147.751 62.7354 149.37 63.6349 149.37C64.6243 149.37 66.2434 147.751 66.3333 146.762C66.3333 145.772 64.8942 144.603 63.6349 142.714Z" fill="white"/>
<path d="M51.7619 9.05291C57.0688 8.96297 61.2063 13.0106 61.2063 18.3175C61.2063 23.5344 57.0688 27.672 51.7619 27.582C46.7249 27.4921 42.6772 23.5344 42.4973 18.4974C42.3175 13.3704 46.455 9.14286 51.7619 9.05291ZM55.3598 22.6349C55.6296 22.545 55.8995 22.455 56.2593 22.3651C55 19.127 53.8307 15.8889 52.5714 12.7407C52.2116 12.8307 51.7619 12.9206 51.4021 13.0106C50.2328 16.1587 49.1534 19.3069 47.9841 22.545C52.0317 17.5079 52.3016 17.9577 55.3598 22.6349Z" fill="white"/>
<path d="M16.2329 63.4709C19.9207 64.2804 21.8096 67.0688 22.0794 70.2169C22.3493 73.3651 21.5397 76.6032 20.6403 79.6614C20.1006 81.5503 18.5715 83.2593 17.3122 84.9683C14.6138 88.9259 12.8149 93.0635 15.5133 98.5503C12.4551 97.5608 11.3757 95.7619 11.3757 93.7831C11.3757 90.7249 11.7355 87.5767 12.545 84.6085C13.2646 82.0899 14.9736 79.8413 16.2329 77.5027C18.8413 72.8254 19.7408 68.2381 16.2329 63.4709Z" fill="white"/>
<path d="M72.4497 24.9735C89.4497 24.9735 106.54 24.9735 123.54 24.9735C123.54 25.2434 123.54 25.6032 123.54 25.873C106.54 25.873 89.4497 25.873 72.4497 25.873C72.4497 25.6032 72.4497 25.3333 72.4497 24.9735Z" fill="white"/>
<path d="M123.54 18.8571C120.661 20.1164 77.2169 20.3862 72.6296 19.2169C75.0582 17.8677 118.862 17.5979 123.54 18.8571Z" fill="white"/>
<path d="M123.36 12.9206C106.36 12.9206 89.2699 12.9206 72.2699 12.9206C72.2699 12.6508 72.2699 12.381 72.2699 12.1111C89.3598 12.1111 106.36 12.1111 123.45 12.1111C123.45 12.381 123.36 12.6508 123.36 12.9206Z" fill="white"/>
<path d="M77.217 65.7196C78.2064 68.2381 79.1059 70.8466 80.0953 73.3651C76.5873 70.037 76.5873 70.037 73.3492 73.2751C74.2487 70.7566 75.1482 68.2381 76.0477 65.7196C76.4074 65.8095 76.7672 65.8095 77.217 65.7196Z" fill="white"/>
<path d="M20.4603 148.921C22.0794 144.063 23.9683 139.206 26.5767 134.439C29.0953 139.116 31.254 143.884 32.4233 148.921C31.9736 149.101 31.6138 149.28 31.164 149.46C30.6243 148.381 30.1746 147.122 29.455 146.222C28.7355 145.323 27.5661 143.884 26.7566 144.063C25.6773 144.243 24.5979 145.503 23.6984 146.492C22.9788 147.302 22.6191 148.471 22.1693 149.55C21.5397 149.28 21 149.101 20.4603 148.921Z" fill="white"/>
</svg>
