<svg width="186" height="150" viewBox="0 0 186 150" fill="none" xmlns="http://www.w3.org/2000/svg">
<path d="M106.663 144.797C113.305 144.797 119.646 144.797 125.987 144.797C126.591 144.797 127.195 144.797 127.799 144.797C129.308 144.948 130.063 146.005 130.063 147.364C130.063 148.873 129.157 149.779 127.648 149.93C127.044 150.081 126.591 149.93 125.987 149.93C105.606 149.93 85.225 149.93 64.8441 149.93C64.3911 149.93 64.0892 149.93 63.6363 149.93C61.9756 149.779 60.9188 148.873 61.0698 147.213C61.0698 145.552 62.1266 144.797 63.6363 144.646C65.9008 144.646 68.1654 144.646 70.279 144.646C74.6571 144.646 78.8843 144.646 83.4134 144.646C83.4134 138.758 83.4134 133.172 83.4134 127.134C82.6585 127.134 81.7527 127.134 80.9979 127.134C58.2014 127.134 35.4049 127.134 12.6084 127.134C4.90896 127.134 0.832764 123.057 0.832764 115.358C0.832764 86.8247 0.832764 58.2914 0.832764 29.909C0.832764 22.3605 4.90896 18.2843 12.4575 18.2843C23.7802 18.2843 35.2539 18.2843 46.5767 18.2843C47.6335 18.2843 48.9922 17.6804 49.7471 17.0765C53.0684 14.2081 56.2388 11.1887 59.5601 8.32028C65.5989 2.88536 73.9023 4.39507 77.6765 11.6416C83.8663 23.4173 89.9051 35.3439 95.9439 47.1196C99.5672 54.2152 95.6419 62.2166 87.9425 63.5753C76.6197 65.5379 65.4479 67.3496 54.1252 69.1612C51.1058 69.6141 48.2374 69.0102 45.218 66.8967C45.6709 67.9534 45.8218 68.5573 46.1238 69.0102C48.9922 74.5961 51.8606 80.182 54.4271 85.9189C55.182 87.4286 55.4839 89.2402 55.4839 90.9009C55.3329 93.9203 52.9174 96.0339 49.898 96.4868C47.1806 96.9397 44.3121 95.43 42.9534 92.7125C39.934 86.6737 36.9146 80.6349 33.8952 74.5961C32.8384 72.3316 31.9326 70.218 29.3661 69.0102C28.3093 68.5573 27.4035 67.1986 26.7996 65.9908C24.686 62.2166 22.5725 58.2914 20.6098 54.3661C18.3453 49.988 19.704 45.6099 24.0821 43.0434C24.837 42.5905 25.4409 42.1376 26.1957 41.8356C28.7622 40.6279 30.8758 39.2691 31.3287 35.7968C31.6307 33.9852 33.2913 32.1735 34.6501 30.6638C36.9146 28.3993 39.4811 26.2857 41.8966 24.0212C42.0476 23.8702 42.0476 23.8702 42.1986 23.5682C41.7456 23.5682 41.2927 23.4173 40.8398 23.4173C31.1777 23.4173 21.5157 23.4173 11.8536 23.4173C8.38127 23.4173 6.26769 25.3799 6.26769 29.0032C6.26769 53.9132 6.26769 78.9742 6.26769 103.884C6.26769 104.337 6.26769 104.79 6.41866 105.394C64.3912 105.394 122.364 105.394 180.487 105.394C180.487 104.639 180.487 104.035 180.487 103.28C180.487 78.8233 180.487 54.2152 180.487 29.758C180.487 25.3799 178.675 23.4173 174.297 23.4173C155.275 23.4173 136.102 23.4173 117.08 23.4173C116.476 23.4173 115.721 23.4173 114.966 23.4173C114.664 25.2289 114.513 26.8896 114.211 28.7012C113.456 32.6265 111.796 35.9478 109.38 39.1182C108.021 40.9298 106.361 41.2317 105.002 40.175C103.643 39.1182 103.643 37.6085 105.002 35.9478C108.474 31.4187 109.984 26.1347 108.927 20.5488C107.116 11.3397 98.5104 5.14991 89.1502 6.2067C88.9993 6.2067 88.6973 6.20671 88.5464 6.35768C86.5837 6.65962 85.225 5.90476 85.074 4.24409C84.7721 2.58342 85.8289 1.52664 87.7915 1.07373C98.3594 -0.888885 109.682 5.7538 113.305 16.1707C113.909 17.9824 114.664 18.2843 116.476 18.2843C135.8 18.2843 155.275 18.2843 174.599 18.2843C181.695 18.2843 185.922 22.5115 185.922 29.607C185.922 58.2914 185.922 86.9757 185.922 115.66C185.922 122.756 181.544 126.983 174.448 126.983C152.86 126.983 131.12 126.983 109.531 126.983C108.625 126.983 107.72 126.983 106.814 126.983C106.663 133.172 106.663 138.909 106.663 144.797ZM52.4645 64.0282C52.7665 64.0282 52.9174 64.0282 53.2194 64.0282C64.6931 62.2166 76.1668 60.4049 87.6405 58.4423C91.7167 57.6875 93.5284 53.4603 91.7167 49.6861C85.6779 37.7594 79.4882 25.6818 73.1474 13.9062C71.1848 10.1319 66.8067 9.37707 63.6363 12.2455C55.031 19.945 46.4257 27.6444 37.9714 35.3439C35.7068 37.4575 35.2539 40.175 36.7636 42.8924C40.2359 49.0822 43.7083 55.121 47.1806 61.1598C48.3883 62.9714 50.3509 64.0282 52.4645 64.0282ZM6.26769 111.131C6.26769 112.641 6.26769 113.999 6.26769 115.207C6.26769 120.189 7.92836 121.85 13.0613 121.85C66.8067 121.85 120.401 121.85 174.146 121.85C174.75 121.85 175.203 121.85 175.807 121.85C178.072 121.548 179.883 120.491 180.336 118.226C180.789 115.962 180.638 113.395 180.789 110.98C122.364 111.131 64.3912 111.131 6.26769 111.131ZM101.077 127.436C97.0007 127.436 93.2264 127.436 89.3012 127.436C89.3012 133.323 89.3012 138.909 89.3012 144.646C93.2264 144.646 97.1516 144.646 101.077 144.646C101.077 138.909 101.077 133.323 101.077 127.436ZM41.7456 62.0656C38.4243 56.1778 35.2539 50.5919 31.9326 45.006C29.97 46.0628 28.1583 47.1196 26.4977 48.1764C24.988 49.0822 24.686 50.4409 25.4409 51.7996C27.5545 56.0268 29.668 60.103 31.9326 64.1792C32.6874 65.5379 34.0462 66.1418 35.5559 65.3869C37.5185 64.1792 39.4811 63.1224 41.7456 62.0656ZM37.6694 70.067C41.1418 76.8607 44.4631 83.5033 47.7844 90.146C47.9354 90.448 47.9354 90.7499 48.2374 90.7499C48.6903 90.9009 49.4451 91.3538 49.898 91.0518C50.3509 90.9009 50.6529 90.146 50.6529 89.6931C50.6529 88.9383 50.2 88.3344 49.898 87.5795C47.0296 81.6917 44.0102 75.8039 41.1418 69.916C40.8398 69.4631 40.6889 69.0102 40.3869 68.5573C39.3301 69.1612 38.5753 69.6141 37.6694 70.067Z" fill="white"/>
<path d="M102.436 25.0779C102.436 29.909 101.228 33.5323 98.8124 36.7026C97.4536 38.3633 95.9439 38.8162 94.7362 37.9104C93.3774 37.0046 93.3775 35.3439 94.5852 33.6832C97.6046 29.4561 98.3595 25.0779 95.642 20.5488C93.0755 16.1707 88.9993 14.51 83.8663 15.1139C82.0547 15.2649 80.696 14.3591 80.696 12.6984C80.545 11.0377 81.4508 10.1319 83.1115 9.82998C91.7168 8.32028 102.285 14.2081 102.436 25.0779Z" fill="white"/>
<path d="M77.3747 116.868C77.2237 118.679 75.714 120.038 74.0533 119.887C72.2417 119.736 70.8829 118.226 71.0339 116.264C71.1849 114.452 72.6946 113.244 74.5062 113.395C76.1669 113.546 77.3747 115.056 77.3747 116.868Z" fill="white"/>
<path d="M101.077 113.395C102.888 113.395 104.247 114.603 104.398 116.415C104.398 118.226 103.039 119.887 101.228 119.887C99.567 119.887 98.0574 118.377 98.0574 116.717C97.9064 114.905 99.2651 113.546 101.077 113.395Z" fill="white"/>
<path d="M90.9619 116.566C90.9619 118.226 89.4522 119.736 87.7916 119.887C85.9799 119.887 84.4702 118.377 84.4702 116.566C84.4702 114.754 85.8289 113.395 87.7916 113.395C89.4522 113.395 90.8109 114.905 90.9619 116.566Z" fill="white"/>
<path d="M117.985 116.717C117.985 118.528 116.476 119.887 114.815 119.887C113.003 119.887 111.494 118.377 111.645 116.415C111.645 114.603 113.154 113.244 114.966 113.395C116.627 113.546 117.985 114.905 117.985 116.717Z" fill="white"/>
</svg>
