<svg width="513" height="456" viewBox="0 0 513 456" fill="none" xmlns="http://www.w3.org/2000/svg">
<path d="M275.287 265.815C275.287 277.573 275.287 289.132 275.287 300.691C278.476 300.691 281.466 300.691 284.654 300.691C284.654 301.489 284.654 302.485 284.654 303.681C281.665 303.681 278.675 303.681 275.885 303.681C272.896 318.429 263.529 319.824 255.159 320.023C246.589 320.222 241.009 314.443 238.617 303.681C235.229 303.681 231.642 303.681 228.055 303.681C228.055 302.485 228.055 301.489 228.055 300.891C231.044 300.891 234.033 300.891 236.824 300.891C238.617 300.891 239.414 300.492 239.414 298.499C239.414 287.737 239.414 276.975 239.414 265.815C215.499 265.815 191.982 265.815 168.466 265.815C168.466 229.742 168.466 193.869 168.466 157.996C178.032 157.996 187.797 157.996 197.762 157.996C196.367 155.206 194.772 152.616 193.577 149.825C187.399 136.074 180.423 122.522 175.441 108.372C168.067 87.6455 174.843 69.709 189.79 54.7619C197.363 47.1887 207.129 44.1993 217.492 42.8042C245.792 38.8183 268.511 57.9506 273.294 84.6561C275.885 98.806 273.294 112.159 267.515 124.914C262.533 135.875 256.554 146.437 250.974 157C250.774 157.199 250.774 157.598 250.774 157.996C267.116 157.996 283.459 157.996 299.801 157.996C299.601 153.811 299.203 149.825 299.003 145.64C298.605 136.871 299.003 128.302 302.391 120.131C303.787 116.742 305.58 113.554 307.374 110.564C307.772 109.966 308.968 109.966 309.965 110.166C299.801 125.113 300.399 141.455 302.391 158.196C320.926 158.196 339.261 158.196 357.795 158.196C357.795 194.069 357.795 229.742 357.795 265.615C353.809 265.615 350.023 265.615 345.838 265.615C351.219 276.377 357.197 286.541 367.361 293.915C371.945 297.303 376.928 299.296 382.707 299.296C390.878 299.296 399.049 299.296 407.818 299.296C407.021 298.101 406.623 297.303 406.423 297.104C412.003 294.314 417.982 292.122 423.164 288.534C436.317 279.367 442.496 266.811 441.499 250.469C440.901 240.704 437.912 232.134 432.132 224.561C425.555 215.792 416.587 210.81 406.025 208.418C404.829 208.219 402.039 208.617 403.434 205.628C421.57 208.617 434.723 217.984 440.503 235.522C446.282 252.861 445.086 269.402 432.132 283.751C435.122 287.538 435.122 287.538 431.933 291.325C427.748 296.108 423.363 298.898 416.587 300.891C417.982 307.268 414.993 312.051 410.409 316.037C407.42 318.628 404.43 321.418 403.633 325.802C403.434 326.4 402.437 326.998 401.839 327.198C397.056 327.397 392.273 327.397 387.291 327.397C386.693 327.397 385.697 326.6 385.298 326.002C382.707 322.215 380.515 318.429 377.725 314.841C375.533 311.852 373.938 308.862 374.337 305.275C374.536 302.286 373.739 300.891 370.75 299.296C362.379 294.713 355.404 288.335 350.421 279.965C348.229 276.178 345.838 272.392 343.845 268.406C343.048 266.811 342.051 266.413 340.457 266.413C321.723 266.413 302.79 266.413 284.056 266.413C281.067 265.815 278.277 265.815 275.287 265.815ZM171.056 160.388C171.056 194.467 171.056 228.547 171.056 263.025C232.638 263.025 293.822 263.025 355.005 263.025C355.005 228.945 355.005 195.065 355.005 160.787C337.467 160.787 320.129 160.787 302.391 160.787C303.388 165.769 304.185 170.552 305.182 175.534C304.384 175.335 303.587 175.335 303.587 175.335C302.192 170.552 300.797 165.769 299.402 160.388C283.459 160.388 267.116 160.388 250.974 160.388C250.376 160.388 249.379 160.787 249.18 161.185C248.183 163.178 246.988 165.37 246.788 167.563C246.39 170.951 246.589 174.538 243.998 177.129C241.806 179.52 238.817 181.115 235.628 183.506C235.429 191.677 232.041 196.062 225.464 195.862C218.289 195.663 214.702 190.282 215.1 180.317C208.922 177.129 208.922 176.929 208.324 169.755C205.136 166.965 202.545 164.972 200.552 162.381C199.356 160.986 198.36 160.587 196.566 160.587C188.395 160.388 179.825 160.388 171.056 160.388ZM220.88 79.2751C224.069 74.8906 228.653 72.8977 234.033 73.097C246.39 73.4956 255.757 85.0547 253.365 97.4109C252.767 100.201 252.966 101.795 255.956 102.792C256.753 102.991 257.152 104.386 257.75 105.183C257.55 105.383 257.351 105.582 257.152 105.781C255.757 105.383 254.162 104.785 252.767 104.386C249.18 113.155 245.792 121.526 242.404 130.095C239.016 138.466 235.827 147.035 234.033 156.203C235.628 156.402 236.824 156.601 237.82 156.801C246.589 158.395 247.984 157.598 252.767 150.224C252.966 150.025 252.966 149.825 253.166 149.626C257.949 139.861 263.13 130.295 267.116 120.131C273.892 103.589 274.49 86.8483 265.921 70.3069C255.358 49.5802 234.233 41.6085 213.307 45.7936C185.007 51.5732 167.668 82.8624 177.633 108.571C182.018 119.931 187.199 131.092 192.182 142.252C194.573 147.235 197.363 152.217 200.353 157.598C201.748 154.808 202.744 152.616 203.741 150.423C204.538 148.829 205.534 148.43 207.328 149.228C209.919 150.423 212.709 151.22 215.3 152.217C213.705 134.28 203.342 119.931 197.762 103.589C195.968 104.386 194.374 104.984 192.58 105.781C192.381 105.582 191.982 105.383 191.783 105.183C192.182 104.386 192.58 103.39 193.178 102.991C198.559 100.4 197.563 101.397 197.164 96.0159C196.566 89.0406 198.958 82.8624 204.737 78.8765C209.919 75.4885 215.499 75.4885 220.88 79.2751ZM250.575 100.4C253.365 87.2469 246.39 76.6843 234.432 75.0899C228.453 74.2928 223.471 77.8801 222.474 83.6596C222.275 84.2575 221.677 84.6561 221.478 85.0547C221.079 84.6561 220.282 84.0582 220.282 83.6596C220.282 80.6702 218.09 79.6737 215.898 79.0758C211.115 77.4815 206.73 79.0758 202.944 83.6596C199.556 87.8448 198.36 96.0159 200.552 99.6032C202.744 99.0053 204.936 98.4074 207.328 97.8095C207.527 99.0053 207.727 99.8025 207.926 100.998C206.73 100.998 205.933 101.198 204.936 101.198C200.153 101.596 199.556 102.792 201.548 107.176C203.94 112.557 206.332 117.739 208.922 123.12C212.908 132.088 216.496 141.256 217.891 151.22C218.09 152.217 218.887 153.612 219.485 153.612C223.67 154.409 227.656 155.007 232.041 155.804C236.026 137.469 244.596 120.928 250.575 102.991C248.183 102.393 246.19 101.995 243.799 101.397C243.998 100.201 244.397 99.0053 244.596 97.8095C246.589 98.806 248.383 99.6032 250.575 100.4ZM241.607 300.691C251.97 300.691 262.134 300.691 272.497 300.691C272.497 288.933 272.497 277.374 272.497 266.014C261.935 266.014 251.771 266.014 241.607 266.014C241.607 277.573 241.607 289.132 241.607 300.691ZM377.326 301.289C376.529 307.667 376.728 308.663 380.515 313.845C381.91 315.638 383.704 317.033 384.501 319.026C386.892 325.205 391.476 325.603 397.056 325.205C399.847 325.005 402.039 324.806 403.035 321.617C403.633 319.824 404.829 318.03 406.224 316.834C409.413 314.243 409.014 310.855 408.615 307.467C408.416 305.474 407.818 303.681 407.22 301.289C397.056 301.289 387.291 301.289 377.326 301.289ZM235.827 173.541C236.026 173.741 236.026 174.139 236.226 174.339C235.429 174.737 234.631 175.534 233.834 175.734C232.041 175.933 230.048 175.734 228.055 175.534C222.076 174.737 216.097 173.342 210.915 169.755C210.915 174.737 212.111 176.929 216.496 178.125C219.684 179.122 223.272 179.321 226.46 180.317C230.645 181.513 234.432 180.517 238.219 179.122C241.607 177.727 245.593 171.548 244.397 168.16C229.649 167.563 215.499 165.57 202.346 158.196C201.748 160.587 202.744 162.182 204.737 163.776C214.104 170.552 224.467 173.541 235.827 173.541ZM241.607 303.481C241.806 308.663 243.6 312.848 247.785 315.041C253.963 318.229 260.739 318.229 266.718 314.243C270.504 311.852 272.497 308.065 272.497 303.481C262.134 303.481 252.169 303.481 241.607 303.481ZM246.39 159.79C239.414 158.993 232.439 158.594 225.663 157.199C218.887 155.804 212.31 153.612 205.534 151.619C203.342 155.007 203.741 156.601 207.727 157.996C218.489 161.982 229.848 163.975 241.208 165.171C244.995 165.769 246.589 163.776 246.39 159.79ZM233.236 183.307C230.845 183.108 228.653 182.908 226.46 182.709C224.268 182.31 221.877 181.912 219.684 181.115C217.891 180.517 217.293 181.314 217.293 182.908C217.293 183.705 217.293 184.503 217.293 185.3C217.691 189.485 222.873 193.869 226.859 193.272C231.841 192.474 234.432 188.289 233.236 183.307ZM408.615 298.3C409.014 298.3 409.213 298.499 409.612 298.499C417.982 299.496 424.36 295.908 429.94 290.129C431.335 288.734 430.936 287.538 428.944 286.342C423.563 292.321 416.388 295.31 408.615 298.3ZM411.206 311.852C413.598 308.663 415.192 305.474 414.196 301.688C412.601 301.688 411.206 301.688 409.612 301.688C410.21 305.076 410.608 308.265 411.206 311.852Z" fill="black"/>
<path d="M158.302 182.51C154.914 186.097 151.526 189.684 148.138 193.272C146.344 195.265 146.543 196.66 149.134 198.055C153.12 200.247 156.907 203.037 160.494 205.827C161.69 206.624 162.487 208.219 163.483 209.414C163.085 209.614 162.885 210.012 162.487 210.212C160.295 208.418 158.102 206.624 155.711 205.03C152.721 203.037 149.732 201.243 146.743 199.45C143.554 197.656 142.956 196.261 145.348 193.471C148.138 190.083 151.526 186.894 154.714 183.705C155.113 183.307 155.512 183.108 156.707 182.111C153.718 181.513 151.526 180.716 149.134 180.517C142.557 179.72 136.778 181.712 130.799 184.104C126.614 185.698 124.621 188.09 123.027 192.474C117.247 207.621 106.485 217.187 88.5486 216.788C88.5486 215.991 88.3493 215.393 88.3493 214.596C88.7479 214.397 88.7479 214.397 88.9472 214.397C92.933 213.799 96.9189 213.799 100.706 212.603C113.261 208.617 119.439 198.852 122.628 186.695C123.027 184.901 123.226 183.705 125.617 183.705C127.61 183.506 129.803 182.31 131.795 181.314C138.771 178.524 145.746 177.129 153.917 179.122C152.323 174.139 151.326 169.556 149.134 165.37C145.746 158.594 141.76 152.217 145.547 144.245C145.347 144.046 144.949 143.847 144.75 143.647C140.166 144.843 135.383 145.441 130.998 147.235C126.614 149.028 122.827 151.818 118.243 153.612C118.443 153.014 118.841 152.217 119.041 151.619C118.841 151.42 118.841 151.42 118.642 151.22C112.464 150.623 106.286 149.825 100.108 149.227C86.157 148.032 73.6015 151.818 62.2417 159.591C48.6897 168.559 36.9313 179.52 29.3581 194.268C26.3687 199.848 23.9771 205.827 20.9877 212.205C32.9454 208.817 44.5045 207.421 56.2629 206.624C57.2593 206.624 59.4516 205.628 58.8537 208.418C54.8678 208.617 50.8819 209.016 46.6967 209.215C45.1024 209.215 44.5045 209.813 43.7073 211.407C39.7214 220.974 40.7179 230.938 40.9172 241.102C50.284 237.316 60.0494 236.518 69.8149 235.721C86.9542 234.526 102.3 228.148 115.055 217.187C125.418 208.219 136.18 209.414 145.547 214.596C146.543 215.194 147.141 216.589 147.141 217.785C143.355 216.19 139.767 214.397 135.981 213.4C130.002 211.806 124.222 212.802 119.24 216.988C107.282 227.351 93.5309 233.529 78.3846 237.316C69.217 239.508 61.0459 243.693 55.4657 251.864C51.2805 258.042 49.6861 265.018 48.6897 272.192C48.4904 272.989 47.8925 273.787 47.0953 274.185C47.2946 260.633 52.0777 245.686 67.8219 238.113C64.6332 238.511 61.4445 238.91 58.2558 239.309C55.0671 239.707 51.6791 240.305 48.4904 240.903C45.3017 241.7 42.3122 242.896 38.5256 243.892C38.7249 232.333 36.9313 220.974 41.9136 210.212C41.7144 210.012 41.5151 209.813 41.3158 209.414C33.9419 211.208 26.568 213.002 18.5962 214.995C21.9842 202.638 26.9666 191.877 34.1412 181.912C30.9525 177.527 27.963 172.944 24.575 168.559C21.7849 164.772 21.5856 161.185 23.5786 157C29.7567 144.245 40.7179 138.067 53.672 134.679C59.8502 133.085 66.0283 131.49 72.0071 129.099C87.1535 123.12 103.097 121.127 119.041 122.721C134.785 124.116 150.131 127.903 163.882 136.273C171.057 140.658 176.836 146.238 181.021 153.612C180.822 153.811 180.623 154.011 180.423 154.409C179.228 153.213 178.032 152.217 176.836 151.021C173.448 147.832 170.459 144.245 166.871 141.455C156.309 133.284 143.952 129.497 130.998 126.907C110.272 122.721 90.1429 124.316 70.4128 132.287C63.6368 135.078 56.2629 136.273 49.2875 138.466C38.5256 142.053 29.956 148.231 25.3722 158.794C24.1764 161.384 24.1764 163.776 26.1694 166.367C29.5574 170.751 32.5468 175.534 35.3369 179.52C42.3122 173.342 48.6897 166.965 55.665 161.185C70.2135 149.626 86.7549 144.843 105.289 147.235C110.272 147.832 115.055 148.43 120.037 149.028C121.034 149.028 122.03 148.829 122.827 148.43C129.205 144.245 136.379 142.451 143.753 141.455C146.743 141.056 148.138 142.252 146.942 145.042C144.949 150.423 146.344 155.007 148.736 159.79C150.728 164.175 152.124 168.758 153.917 173.143C155.512 176.73 157.106 179.52 158.302 182.51Z" fill="black"/>
<path d="M79.7796 284.548C82.5698 285.346 82.7691 286.94 81.9719 288.534C80.1782 292.72 78.1853 296.905 75.7937 300.891C74.0001 303.88 71.6086 306.471 69.217 310.058C73.8008 316.037 77.986 322.614 83.3669 328.393C85.1606 330.386 89.3458 330.187 92.7338 331.183C93.3317 323.61 93.9295 316.834 94.5274 309.859C95.7232 296.506 96.919 283.153 97.9154 269.801C98.314 265.217 98.314 260.633 98.1147 255.85C98.1147 250.27 101.503 247.48 106.684 249.473C109.475 250.469 112.065 250.868 114.855 249.871C115.453 249.672 116.45 250.071 117.446 250.27C116.848 251.067 116.251 252.661 115.653 252.661C112.265 252.661 108.677 252.462 105.289 251.864C102.3 251.266 100.506 251.864 100.108 255.053C99.9084 256.049 100.108 257.046 100.108 258.042C100.307 262.228 100.905 262.825 104.891 262.825C113.859 262.825 122.827 262.626 131.796 262.626C134.187 262.626 135.184 261.43 135.184 259.039C135.184 258.042 135.184 257.245 135.184 256.249C135.184 251.665 134.586 251.266 130.002 252.064C128.408 252.263 126.415 253.259 125.219 250.27C128.009 249.871 130.799 249.273 133.39 249.273C135.582 249.273 137.376 252.263 137.376 255.252C137.376 261.231 137.176 267.011 137.376 272.989C137.974 283.353 138.771 293.915 139.568 304.279C140.365 312.649 141.162 320.82 142.159 329.19C142.757 333.974 143.753 338.557 144.152 343.938C143.554 343.34 142.757 342.942 142.159 342.145C141.76 341.746 141.76 341.148 141.76 340.75C140.764 335.369 140.764 335.568 135.383 335.169C119.838 334.372 104.293 333.176 88.7479 332.18C87.9507 332.18 86.9542 332.18 85.9578 332.18C89.3458 336.764 92.5345 340.949 95.7232 345.333C95.3246 345.533 95.1253 345.931 94.7267 346.131C93.7302 345.333 92.5345 344.536 91.7373 343.54C89.3458 340.55 86.9542 337.76 84.9613 334.571C83.5662 332.18 81.5733 331.781 79.1817 331.981C78.1853 332.18 76.9895 331.781 75.993 331.582C75.993 331.183 75.993 330.785 75.993 330.386C77.7867 330.187 79.381 329.788 81.374 329.39C78.3846 325.603 75.5944 321.817 72.2064 317.432C73.0036 322.614 73.8008 326.799 74.3987 330.984C74.3987 331.582 73.8008 332.778 73.2029 332.977C66.8255 335.568 60.4481 338.159 53.8713 340.75C45.501 344.138 47.4939 343.739 45.501 336.564C44.1059 332.18 46.2982 328.593 48.0918 324.806C48.2911 324.208 48.889 323.61 48.6897 323.81C42.5116 319.026 36.5327 314.443 30.7532 309.859C31.3511 307.467 32.5468 307.866 33.9419 309.062C39.3228 313.247 44.7038 317.631 50.0847 321.817C54.8678 315.24 59.4516 309.062 64.0354 302.884C64.434 302.884 64.6332 303.083 65.0318 303.083C64.8325 303.88 65.0318 305.076 64.6332 305.674C61.2452 310.656 57.8572 315.638 54.4692 320.621C52.277 323.81 50.284 327.198 48.2911 330.586C47.8925 331.383 47.4939 332.578 47.4939 333.376C47.2946 338.956 49.4869 340.351 54.6685 338.159C59.6509 335.967 64.6332 333.774 69.6156 331.781C71.6086 330.984 72.605 329.988 72.0071 327.596C70.6121 322.215 69.6156 316.834 68.4198 310.855C64.8325 314.642 61.8431 318.03 58.8537 321.418C58.4551 321.219 58.2558 321.019 57.8572 320.621C58.8537 319.226 59.6509 317.631 60.6474 316.236C65.6297 310.058 70.8114 304.079 75.5944 297.702C77.986 294.314 80.3775 290.129 79.7796 284.548ZM139.767 333.376C137.774 310.656 135.981 287.937 133.988 265.416C122.429 265.416 111.069 265.416 100.108 265.416C98.314 287.139 96.5204 308.862 94.7267 330.586C110.272 331.582 125.219 332.379 139.767 333.376Z" fill="black"/>
<path d="M293.623 285.346C305.58 284.15 317.139 282.755 328.499 281.758C332.286 281.36 336.072 281.958 339.859 282.755C344.443 283.751 345.838 288.734 342.649 292.122C341.055 293.915 338.663 295.111 336.272 295.908C333.083 297.303 329.894 298.1 326.506 299.097C328.898 302.684 331.489 306.272 333.481 310.058C335.674 314.243 337.667 318.429 339.46 322.813C340.058 324.607 340.855 325.005 342.649 325.005C357.995 325.205 371.945 334.97 373.739 352.906C374.337 359.284 377.326 365.462 379.519 371.441C381.511 376.623 386.295 379.213 391.078 381.605C395.063 383.797 399.249 385.79 403.434 387.783C409.213 390.772 410.409 394.958 406.623 400.339C405.626 401.734 404.43 402.929 403.235 404.125C396.06 410.702 387.49 413.691 378.123 416.481C377.924 415.286 377.924 414.488 377.725 413.691C387.092 411.499 395.861 408.51 402.637 401.335C403.434 400.339 404.43 399.342 405.028 398.146C407.22 394.36 406.822 392.367 402.836 390.374C398.451 387.982 394.067 385.391 389.483 383.399C380.316 379.413 375.732 372.437 374.138 363.071C374.138 362.871 373.938 362.672 373.739 362.074C372.344 371.839 368.557 379.811 361.183 385.79C353.81 391.769 345.041 393.762 335.674 393.363C328.3 392.965 321.125 391.37 315.744 385.79C315.944 385.391 316.143 384.993 316.143 384.594C316.741 384.794 317.538 384.794 318.136 385.192C331.489 393.961 345.041 393.164 357.995 384.993C365.568 380.21 369.355 372.437 370.75 363.668C371.945 356.892 371.746 350.116 368.757 343.938C363.774 333.176 355.005 327.795 343.446 326.799C340.058 326.6 336.67 326.998 333.282 327.197C332.884 325.802 332.884 325.603 335.076 325.205C337.268 324.806 337.667 323.411 336.869 321.817C334.478 316.834 331.688 311.852 329.097 306.869C329.097 311.453 329.296 315.638 329.097 319.824C329.097 321.019 328.3 322.414 327.702 323.61C326.506 323.012 324.912 322.614 323.915 321.617C314.349 310.855 304.783 299.894 295.416 288.933C295.018 287.936 294.42 286.741 293.623 285.346ZM326.506 320.82C326.705 320.82 327.104 320.621 327.303 320.621C327.303 318.827 327.503 317.233 327.303 315.439C326.506 310.257 325.51 304.877 324.513 299.695C324.115 297.702 324.513 296.905 326.705 296.506C330.891 295.51 334.877 293.915 338.862 292.321C340.855 291.524 342.051 289.929 341.653 287.538C341.254 285.346 339.66 284.748 337.866 284.548C336.072 284.349 334.079 283.951 332.286 283.951C326.108 284.349 320.129 284.548 313.951 285.146C308.57 285.744 303.189 286.541 297.608 287.139C307.175 298.499 316.741 309.66 326.506 320.82Z" fill="black"/>
<path d="M93.5311 348.921C95.3247 349.319 96.5205 349.718 97.9155 349.718C113.062 349.718 128.208 349.718 143.554 349.718C144.949 349.718 145.547 350.116 145.946 351.711C147.938 365.462 149.931 379.213 151.924 393.164C152.722 397.947 153.319 402.73 154.515 407.314C156.11 414.289 151.924 419.87 144.75 419.87C129.205 419.87 113.66 419.87 98.3141 419.87C95.7233 419.87 93.3318 419.67 90.7409 419.87C85.1607 420.667 79.3812 413.691 80.7762 405.919C85.1607 401.933 83.7656 396.153 85.1607 391.171C86.7551 385.989 87.3529 380.608 88.3494 375.228C89.3459 369.847 90.3424 364.665 91.5381 359.284C91.9367 355.896 92.9332 352.309 93.5311 348.921ZM95.7233 352.508C95.524 352.508 95.3247 352.508 95.1254 352.508C94.9261 353.305 94.5275 354.302 94.3283 355.099C91.5381 369.049 88.748 383 85.9579 396.951C85.1607 400.538 83.9649 403.926 82.9685 407.314C81.5734 411.698 85.9579 417.279 90.7409 417.279C108.478 417.279 126.215 417.279 143.953 417.279C150.729 417.279 153.718 413.492 152.124 406.517C151.127 401.734 150.131 397.15 149.533 392.367C147.54 379.014 145.547 365.661 143.554 351.91C133.191 351.91 122.628 351.91 112.065 351.91C120.237 365.263 128.208 378.616 136.778 392.566C133.39 392.566 130.799 392.168 128.208 392.566C120.635 393.762 116.051 389.377 112.663 383.598C112.065 382.402 112.265 380.808 111.866 379.014C115.055 382.601 117.446 385.79 120.436 388.58C124.023 391.968 128.408 389.377 132.593 389.975C130.201 386.388 128.208 383.199 126.415 380.011C121.034 371.042 115.653 362.074 110.073 353.305C109.674 352.707 108.877 351.91 108.08 351.711C104.891 351.512 101.503 351.711 98.1149 351.711C101.503 358.487 104.492 364.864 107.681 371.242C108.877 373.832 108.877 373.832 107.282 375.626C103.297 368.252 99.5099 360.48 95.7233 352.508Z" fill="black"/>
<path d="M425.356 127.903C433.129 127.903 440.702 128.102 448.275 127.903C450.866 127.903 452.062 128.7 453.058 130.892C455.45 136.074 456.048 141.455 455.848 147.035C455.848 151.021 455.251 154.808 454.653 158.794C454.453 159.79 453.855 160.587 453.457 161.384C453.258 161.384 453.058 161.185 452.66 161.185C452.859 159.192 453.258 157.399 453.258 155.406C453.656 147.633 454.254 139.661 450.667 132.287C450.268 131.49 449.471 130.693 448.674 130.494C440.901 130.295 433.129 130.494 425.356 130.494C425.356 144.843 425.356 158.794 425.356 172.944C431.534 172.944 437.314 172.944 443.293 172.944C445.286 172.944 445.087 171.549 445.286 170.353C445.286 161.982 445.485 153.413 445.485 145.042C445.485 141.654 445.485 138.266 445.485 134.878C445.884 134.878 446.282 134.679 446.681 134.679C447.079 135.675 447.677 136.473 447.677 137.469C447.677 149.028 447.677 160.388 447.677 171.947C447.677 173.741 447.079 175.335 444.688 175.335C435.321 175.335 425.954 175.335 415.99 175.335C415.99 159.79 415.99 144.444 415.99 128.7C417.783 128.501 420.175 128.302 422.766 128.102C422.766 123.12 422.766 118.337 422.766 113.554C422.766 112.757 421.57 111.76 420.773 111.362C416.189 108.571 414.196 103.788 415.392 99.0053C417.584 90.8342 426.552 91.0335 430.737 95.2187C433.328 97.8095 434.922 100.998 433.926 104.785C432.73 109.169 429.741 111.561 425.157 112.159C425.157 114.75 425.157 117.34 425.157 119.931C425.356 122.522 425.356 125.113 425.356 127.903ZM423.164 172.744C423.164 158.594 423.164 144.843 423.164 130.693C421.37 130.693 419.975 130.693 418.58 130.693C418.58 144.644 418.58 158.196 418.58 172.146C420.175 172.346 421.57 172.545 423.164 172.744ZM430.937 101.995C430.937 98.2081 428.146 95.418 424.36 95.418C420.773 95.418 418.182 98.0088 418.182 101.397C418.182 105.183 421.57 109.369 424.559 109.369C428.146 109.369 430.937 106.18 430.937 101.995Z" fill="black"/>
<path d="M318.534 0.354492C318.534 1.94885 318.534 2.94532 318.534 3.94179C318.534 20.2839 318.335 36.8254 318.335 53.1675C318.335 55.5591 317.538 56.3563 315.146 56.157C310.164 55.9577 305.182 56.157 300 56.157C295.616 66.1217 293.623 76.6843 291.829 87.2469C289.238 101.795 286.448 116.344 283.658 130.693C282.462 137.071 281.067 143.448 279.672 149.825C279.273 151.619 278.277 153.413 277.679 155.206C277.48 155.206 277.081 155.007 276.882 155.007C276.882 154.409 276.882 154.011 276.882 153.413C280.27 136.473 283.857 119.333 287.245 102.393C289.238 92.4286 290.832 82.4638 292.626 72.4991C292.626 71.9012 292.825 71.3033 292.626 70.7055C290.832 67.3175 288.84 63.9294 287.245 60.3421C285.85 57.3527 284.256 55.1605 280.469 55.9577C279.473 56.157 278.277 55.9577 276.882 55.9577C276.882 38.2205 276.882 20.8818 276.882 3.54321C290.235 1.94885 304.384 5.53615 318.534 0.354492ZM279.273 5.93474C279.273 21.679 279.273 37.4233 279.273 53.5661C291.63 53.5661 303.587 53.5661 315.744 53.5661C315.744 37.0247 315.744 20.6825 315.744 4.93826C303.587 5.33685 291.63 5.73544 279.273 5.93474ZM293.224 68.5132C294.818 63.9294 296.213 60.1428 297.608 55.9577C293.822 55.9577 290.633 55.9577 287.046 55.9577C289.039 59.9436 290.832 63.9294 293.224 68.5132Z" fill="black"/>
<path d="M209.919 373.235C210.517 374.63 210.517 375.427 208.524 375.825C200.951 377.619 194.773 381.605 189.79 387.584C181.021 398.346 179.826 413.093 186.602 425.45C187.797 427.443 188.794 429.436 189.79 431.628C172.252 430.631 156.907 437.806 140.963 442.788C130.002 446.176 119.24 449.963 107.681 450.959C90.3423 452.354 74.9966 447.97 64.2347 433.621C61.4446 430.034 60.0495 425.45 58.2559 421.265C57.658 419.869 57.658 418.275 59.8502 417.877C61.6439 427.243 66.8255 434.019 73.8009 439.799C80.9755 445.778 89.5451 448.169 98.5134 448.767C109.076 449.564 119.24 447.173 129.205 443.984C143.554 439.6 157.903 435.215 172.452 431.03C176.637 429.834 181.021 429.635 185.406 429.037C178.032 415.884 177.633 402.332 185.605 389.178C190.986 380.409 200.951 374.43 209.919 373.235Z" fill="black"/>
<path d="M429.342 351.511C428.744 352.109 428.346 352.906 427.748 353.106C420.972 355.697 413.997 358.287 406.822 360.878C407.619 352.707 408.416 344.735 409.214 336.166C411.605 337.362 413.797 337.959 415.591 339.155C420.573 342.344 425.356 345.533 430.139 348.921C431.535 349.917 432.73 349.917 434.125 349.12C440.702 344.935 447.279 340.949 453.856 336.963C455.051 336.365 456.247 335.767 458.041 334.97C458.041 337.76 458.24 339.952 458.041 342.145C457.642 348.921 457.044 355.497 456.845 362.273C456.646 365.263 454.453 365.661 452.66 366.857C444.289 371.839 435.919 376.822 427.15 382.003C422.367 378.815 417.185 375.626 412.004 372.238C411.207 371.64 411.007 370.444 410.409 369.647C410.609 369.448 411.007 369.249 411.206 369.049C415.392 371.839 419.776 374.63 423.961 377.42C426.154 379.014 427.947 379.213 430.538 377.619C436.118 373.832 442.097 370.644 447.677 367.056C448.076 366.857 448.475 366.459 448.873 366.06C442.296 361.078 435.72 356.294 429.342 351.511C423.563 347.526 417.783 343.34 411.605 338.956C410.808 345.333 410.21 351.113 409.413 357.092C414.196 355.497 418.979 353.903 423.563 352.508C425.356 351.91 427.349 351.711 429.342 351.511ZM455.649 338.358C448.076 342.942 441.101 347.326 433.528 351.91C440.304 356.494 446.681 360.878 453.258 365.462C453.656 365.263 453.856 365.063 454.254 364.864C454.653 356.095 455.051 347.326 455.649 338.358Z" fill="black"/>
<path d="M196.367 290.926C190.388 295.31 185.605 302.485 177.434 305.474C183.612 299.894 183.612 292.52 184.409 284.947C176.637 292.52 169.064 299.695 161.49 307.069C161.092 306.869 160.893 306.869 160.494 306.67C160.693 305.873 160.693 304.677 161.291 304.079C164.679 300.492 168.266 297.104 171.854 293.716C176.039 289.73 180.224 285.744 184.609 281.559C185.206 280.961 186.004 280.563 186.602 279.965C187 280.164 187.199 280.164 187.598 280.363C186.801 286.143 186.004 291.922 185.206 297.901C190.189 293.517 195.171 289.332 199.755 285.346C202.944 292.919 207.926 298.499 212.709 305.076C212.709 301.688 212.709 299.097 212.709 296.506C215.3 296.905 215.699 299.496 215.3 310.656C194.573 310.656 174.046 310.656 153.319 310.656C152.721 308.265 152.721 308.265 154.914 308.265C168.466 308.265 182.018 308.265 195.769 308.464C198.161 308.464 198.958 307.866 199.157 305.474C199.356 303.681 199.755 301.688 200.154 299.894C200.552 296.506 201.947 292.52 196.367 290.926ZM212.709 309.062C209.321 304.877 206.132 300.691 202.744 296.506C201.947 300.691 201.349 304.478 200.552 308.663C202.744 308.663 204.737 308.663 206.531 308.663C208.524 308.663 210.517 308.862 212.709 309.062Z" fill="black"/>
<path d="M160.893 116.543C150.928 114.152 141.96 110.166 134.586 102.991C129.603 98.2081 127.61 91.8307 125.817 85.4533C123.226 75.2892 120.834 64.9259 117.247 55.1605C110.67 37.4233 96.919 28.6543 78.3846 27.6578C69.0178 27.06 60.0495 28.0564 51.8785 33.0388C44.9031 37.224 39.5222 42.4056 36.1342 49.9788C35.9349 50.5767 34.9384 50.9753 34.3405 51.5732C33.942 51.3739 33.5434 50.9753 33.1448 50.776C34.9384 47.7866 36.1342 44.3986 38.3264 41.6085C46.8961 30.8466 58.2559 25.4656 72.0072 25.2663C82.1712 25.067 92.136 26.4621 100.905 31.843C112.065 38.619 118.443 48.7831 121.632 61.1393C123.624 68.7125 125.617 76.2857 127.212 83.8589C130.401 99.0053 140.365 107.376 154.316 112.358C156.11 112.956 158.102 113.354 159.697 114.152C160.494 114.351 160.893 115.347 161.49 115.945C161.49 115.945 161.092 116.344 160.893 116.543Z" fill="black"/>
<path d="M365.967 211.407C370.949 206.226 377.526 203.834 384.102 201.642C398.651 196.66 412.402 199.45 425.356 207.023C438.908 214.995 449.272 225.557 453.457 240.903C455.051 246.483 455.251 252.462 456.646 258.042C457.443 259.637 458.24 261.231 459.236 263.025C459.037 263.224 458.639 263.423 458.439 263.822C457.443 263.623 456.646 263.423 455.45 263.224C451.464 282.755 441.3 297.702 422.965 306.67C422.766 306.471 422.367 306.072 422.168 305.873C424.161 304.478 425.954 302.884 427.947 301.489C438.908 293.716 447.677 283.951 451.265 270.598C457.243 248.675 449.67 225.956 429.94 212.404C423.563 208.019 416.787 204.034 408.815 202.638C394.266 200.048 381.113 203.037 368.956 211.407C368.159 212.005 367.162 212.205 366.365 212.404C366.166 212.205 365.967 211.806 365.967 211.407Z" fill="black"/>
<path d="M262.533 19.8853C258.945 19.4867 255.358 18.8889 251.771 18.6896C242.404 18.0917 233.436 19.2875 224.268 21.4797C210.716 24.8677 196.965 26.8607 183.213 22.4762C181.619 30.2487 176.039 35.231 169.063 34.8324C163.683 34.4338 159.697 31.2451 157.704 26.2628C155.711 21.4797 156.707 16.8959 160.494 13.3086C164.081 9.52202 169.462 8.52555 174.046 10.3192C178.231 12.1129 181.42 14.5044 183.014 19.0882C183.213 19.686 184.409 20.2839 185.206 20.6825C197.563 24.6684 209.919 22.4762 222.076 19.8853C231.044 17.8924 240.212 15.8995 249.578 16.4973C253.365 16.6966 256.952 17.2945 260.54 17.8924C261.337 18.0917 262.134 18.8889 262.732 19.2875C262.931 19.2875 262.732 19.4867 262.533 19.8853ZM180.224 22.4762C181.021 17.0952 174.644 12.5114 170.06 12.3121C164.48 12.1129 160.095 16.298 160.095 21.679C160.095 27.2592 164.679 32.0423 170.259 32.0423C175.64 32.0423 180.224 27.6578 180.224 22.4762Z" fill="black"/>
<path d="M216.496 344.138C210.915 337.561 205.534 331.183 200.353 325.005C212.709 325.005 225.863 325.005 240.012 325.005C234.233 331.981 228.254 337.76 221.478 343.141C222.674 343.739 223.471 344.536 224.667 344.935C231.243 347.924 237.82 350.914 244.397 353.903C245.393 354.302 246.191 355.298 246.988 356.095C246.788 356.494 246.39 356.892 246.191 357.291C239.016 353.903 232.041 350.714 224.866 347.326C220.681 353.106 216.695 351.312 214.104 347.924C206.332 349.718 198.958 354.7 190.587 351.113C200.154 350.714 209.122 348.323 216.496 344.138ZM235.827 327.198C224.667 327.198 214.503 327.198 203.542 327.198C208.922 332.379 213.905 337.162 219.087 341.945C224.866 336.963 230.048 332.18 235.827 327.198Z" fill="black"/>
<path d="M364.173 186.894C368.557 183.705 372.942 180.517 377.526 176.929C372.743 172.545 368.159 168.559 363.575 164.374C364.571 162.58 365.568 162.78 366.963 164.175C370.949 167.961 375.134 171.548 379.319 175.534C399.249 157.797 401.042 136.473 392.672 112.557C398.452 115.547 400.843 130.095 398.85 146.437C397.256 158.794 389.882 167.961 381.511 176.531C385.697 179.72 389.483 182.709 393.27 185.698C396.459 182.31 399.647 178.723 403.035 175.136C403.633 175.534 404.231 175.734 404.63 176.132C404.43 176.929 404.43 177.926 404.032 178.524C401.242 181.713 398.252 184.702 395.263 187.891C397.854 190.083 400.245 191.877 402.637 193.869C402.437 194.268 402.238 194.667 402.039 195.065C400.444 194.268 398.651 193.471 397.256 192.474C393.27 189.684 393.469 189.684 390.081 193.072C389.284 193.869 387.889 194.268 386.892 194.667C386.693 194.467 386.494 194.069 386.494 193.869C388.287 191.877 389.882 189.684 392.074 187.293C388.487 184.503 384.899 181.713 381.113 179.122C380.515 178.723 378.721 179.122 377.924 179.72C374.138 182.31 370.55 184.901 366.963 187.691C365.369 188.688 364.571 188.489 364.173 186.894Z" fill="black"/>
<path d="M338.663 155.206C330.293 152.815 327.304 136.473 332.286 125.511C327.702 121.326 323.118 116.942 318.535 112.557C317.339 111.561 316.542 110.564 318.335 109.169C323.318 113.753 328.3 118.337 333.282 122.921C343.446 111.959 362.379 114.152 368.159 126.707C373.341 121.725 378.522 116.742 383.704 111.76C384.103 111.959 384.302 112.358 384.7 112.557C384.302 113.155 383.903 113.753 383.305 114.351C379.519 118.536 375.533 122.921 371.547 126.907C369.753 128.7 369.753 130.295 370.152 132.487C371.746 140.658 370.949 148.43 365.767 155.406C364.97 156.402 364.173 157.199 363.177 158.196C362.977 157.996 362.579 157.797 362.379 157.797C362.778 157 362.977 156.004 363.575 155.206C368.757 147.832 369.355 140.259 367.362 131.49C365.369 123.12 359.988 119.732 353.013 118.138C346.237 116.543 340.457 119.533 335.275 124.116C337.069 125.91 338.464 127.704 340.058 129.298C339.859 129.497 339.461 129.896 339.261 130.095C337.468 128.899 335.674 127.903 333.88 126.707C328.898 137.071 332.685 146.039 338.663 155.206Z" fill="black"/>
<path d="M92.3352 206.026C81.374 206.226 70.0142 197.058 69.8149 184.104C69.6156 173.143 78.9824 164.374 90.3422 164.374C103.296 164.374 113.859 174.339 113.859 186.296C113.66 197.258 103.894 206.226 92.3352 206.026ZM110.67 189.684C111.069 178.723 105.489 171.349 96.9189 168.36C85.1606 164.374 73.6015 171.15 72.4057 182.908C71.8078 189.286 75.1958 194.268 79.7796 198.254C85.3599 203.037 91.7373 205.229 98.9119 202.24C106.086 199.45 110.471 194.667 110.67 189.684Z" fill="black"/>
<path d="M201.549 385.591C203.741 383 207.129 382.203 210.318 381.406C221.877 378.616 235.229 385.79 240.212 397.15C245.194 408.709 241.607 421.862 231.244 428.838C216.296 439.002 196.965 430.631 193.378 412.496C192.381 406.915 192.979 401.734 195.968 396.951C196.367 396.153 197.563 395.755 198.559 395.556C192.979 406.915 195.171 419.272 204.14 426.048C213.307 432.824 224.268 432.425 232.639 425.051C240.61 417.877 242.404 405.919 237.222 396.353C231.443 385.79 217.293 379.213 204.339 385.989C203.542 386.388 202.744 386.388 201.947 386.388C201.549 386.189 201.549 385.989 201.549 385.591Z" fill="black"/>
<path d="M360.187 360.28C360.187 361.476 360.187 362.672 359.988 363.668C356.998 375.228 345.24 382.203 333.681 379.413C321.325 376.423 314.15 365.263 316.741 353.305C318.933 344.138 327.104 337.561 337.069 337.162C343.247 336.963 349.226 337.76 354.009 341.945C355.404 343.34 356.4 345.134 357.596 346.728C357.397 346.928 356.998 347.127 356.799 347.326C354.607 345.533 352.415 343.34 349.824 341.945C339.859 336.365 322.122 338.956 318.933 354.102C317.538 360.679 319.132 366.658 323.915 371.242C332.485 379.213 342.051 380.21 351.617 372.836C355.005 370.245 356.799 366.658 357.796 362.672C357.995 361.675 358.593 360.679 358.991 359.683C359.39 360.081 359.788 360.081 360.187 360.28Z" fill="black"/>
<path d="M164.081 263.623C160.494 260.832 157.106 257.843 153.12 254.854C150.33 259.238 147.739 263.623 144.949 268.007C156.907 277.374 161.889 282.556 161.092 285.146C159.697 284.15 158.501 283.153 157.305 282.157C152.721 278.171 148.138 273.986 143.554 269.801C141.96 268.406 142.159 267.409 143.355 265.815C145.945 262.427 147.938 258.839 150.33 255.252C151.326 253.658 150.529 253.06 149.533 252.063C148.138 250.668 145.746 249.672 147.141 246.483C148.736 248.277 150.131 249.672 151.725 251.466C153.519 249.074 154.914 246.682 154.117 243.494C153.319 240.106 153.319 236.518 152.721 233.13C152.522 232.134 152.124 230.938 151.725 229.942C149.931 225.557 149.931 225.557 153.917 221.97C160.295 227.75 160.095 234.924 158.102 242.497C157.305 245.088 156.109 247.679 155.113 250.27C154.316 252.063 154.316 253.259 156.309 254.654C158.302 256.049 160.095 257.843 161.889 259.637C162.885 260.633 163.683 261.829 164.48 263.025C164.679 263.025 164.281 263.224 164.081 263.623ZM154.515 225.956C155.312 231.138 156.309 236.12 157.106 241.102C157.305 235.721 159.298 230.34 154.515 225.956Z" fill="black"/>
<path d="M431.535 190.88C432.332 192.076 433.328 193.272 433.926 194.667C438.111 203.436 444.887 208.418 454.254 209.813C458.041 210.411 461.827 209.813 465.614 210.012C469.998 210.212 474.582 210.212 478.767 211.208C488.732 213.6 492.319 221.571 493.515 230.739C494.91 241.302 491.921 250.668 484.348 258.242C483.351 259.238 482.155 260.035 480.96 260.832C480.362 261.231 479.365 261.032 478.568 261.231C478.967 260.434 479.166 259.637 479.764 259.039C484.746 255.252 488.533 250.469 490.127 244.291C492.319 235.123 491.721 226.354 485.942 218.383C483.949 215.593 481.159 213.799 477.97 213.4C472.39 212.603 466.61 211.806 460.831 212.404C446.282 213.6 435.321 204.631 430.737 194.866C430.339 193.869 430.139 192.674 429.94 191.677C430.538 191.478 430.937 191.279 431.535 190.88Z" fill="black"/>
<path d="M40.5186 330.785C27.1658 339.355 23.1799 352.109 24.1764 366.857C24.7743 375.825 27.963 384.196 33.9418 390.972C42.5115 400.737 60.0494 407.513 66.2275 403.727C66.6261 406.317 65.6297 407.314 63.0388 407.314C52.6755 407.115 43.7073 403.328 36.1341 396.751C20.1905 382.801 16.6032 358.487 27.7637 340.55C29.5574 337.561 32.1482 335.169 34.739 332.778C36.1341 331.582 38.127 331.183 39.7214 330.386C40.12 330.187 40.3193 330.586 40.5186 330.785Z" fill="black"/>
<path d="M251.572 395.556C251.572 395.556 252.169 394.758 252.767 393.762C255.557 397.947 259.942 397.748 263.928 398.744C267.117 399.541 270.504 399.741 273.693 400.339C274.49 400.538 275.088 401.335 275.885 401.933C275.088 402.132 274.291 402.929 273.494 402.73C267.714 401.933 262.134 400.937 256.355 399.94C260.34 410.503 268.711 417.079 278.277 422.859C289.637 429.834 302.192 433.422 315.545 434.617C316.143 434.617 316.741 435.414 317.339 435.813C316.741 436.212 315.944 436.81 315.346 436.81C295.616 435.016 278.078 428.24 263.529 414.887C258.945 410.702 255.757 405.72 253.963 399.741C253.564 398.146 252.767 397.15 251.572 395.556Z" fill="black"/>
<path d="M391.078 104.785C388.288 105.981 387.491 103.589 386.295 102.393C381.512 96.8131 376.131 92.2293 369.355 89.0406C349.425 80.0723 328.3 83.261 312.755 99.4039C311.759 100.6 310.563 101.596 309.367 102.792C308.968 102.593 308.769 102.393 308.371 102.194C308.968 101.198 309.168 100.002 309.965 99.2046C317.339 90.4356 326.706 84.6561 338.065 82.8624C359.589 79.4744 377.127 86.2504 390.48 103.589C390.679 103.988 390.879 104.187 391.078 104.785Z" fill="black"/>
<path d="M102.698 59.9435C105.09 60.7407 106.485 61.3386 108.079 61.5379C110.471 61.9365 111.467 62.933 111.866 65.3245C113.062 72.2998 113.859 79.2751 116.051 85.8518C117.646 91.0335 112.265 96.813 107.083 95.8166C105.289 95.418 103.296 94.8201 101.901 93.8236C98.5133 91.6314 95.1252 89.0405 91.7372 86.8483C90.3422 86.0511 89.9436 85.0547 90.7408 83.6596C93.3316 77.6808 95.7231 71.7019 98.5133 65.7231C99.3104 63.3316 101.303 61.5379 102.698 59.9435ZM107.681 94.0229C112.065 93.8236 114.457 90.2363 113.66 86.2504C112.265 79.873 111.069 73.4956 110.072 67.1182C109.873 65.7231 109.873 63.9294 108.079 64.1287C105.887 64.328 103.097 61.1393 101.503 64.7266C98.7126 70.9047 95.9224 77.0829 93.1323 83.4603C92.933 83.8589 93.5309 85.0547 94.1288 85.4532C96.7196 87.4462 99.5097 89.2399 102.3 91.0335C103.894 92.2293 105.688 93.2257 107.681 94.0229Z" fill="black"/>
<path d="M14.8097 131.69C8.03369 131.69 2.25415 125.91 2.25415 118.935C2.25415 111.362 7.8344 105.582 15.2083 105.781C21.785 105.781 27.7638 112.159 27.7638 118.735C27.7638 125.511 21.5857 131.69 14.8097 131.69ZM24.7744 119.134C24.7744 113.554 20.1907 108.771 15.009 108.571C9.42875 108.571 5.04427 112.757 5.04427 118.138C5.04427 124.116 9.42875 128.899 15.009 128.899C20.1907 128.899 24.7744 124.316 24.7744 119.134Z" fill="black"/>
<path d="M313.951 447.372C301.595 450.561 289.238 454.347 276.284 454.945C266.917 455.344 257.55 455.543 248.383 455.543C243.401 455.543 238.617 454.547 233.834 453.75C233.237 453.55 232.639 452.554 232.041 451.956C232.838 451.757 233.834 450.959 234.432 451.159C249.977 454.547 265.522 454.347 281.067 452.355C291.231 450.959 301.196 448.767 310.961 445.778C312.755 444.981 314.15 444.781 313.951 447.372Z" fill="black"/>
<path d="M321.325 41.0106C324.115 37.224 327.503 35.8289 330.891 34.4338C342.251 30.0494 353.61 30.0494 364.771 35.231C375.533 40.2134 380.914 49.5802 384.102 60.3421C384.302 61.1393 383.704 62.1358 383.505 62.9329C382.907 62.1358 382.11 61.5379 381.711 60.7407C379.319 53.5661 376.529 46.5908 370.351 41.6084C361.981 34.8324 352.415 32.4409 341.852 33.6367C335.475 34.4338 329.296 36.6261 324.115 40.612C323.916 41.4091 322.919 41.0106 321.325 41.0106Z" fill="black"/>
<path d="M358.394 421.862C358.394 427.642 353.013 433.222 347.233 433.222C341.852 433.222 336.67 427.841 336.67 422.062C336.67 416.083 341.653 411.499 348.229 411.499C354.009 411.499 358.394 416.083 358.394 421.862ZM348.03 414.489C343.646 414.489 339.859 417.877 339.859 421.663C339.859 425.649 344.044 430.233 347.432 430.034C351.617 429.834 355.404 425.649 355.205 421.464C355.006 417.677 351.817 414.489 348.03 414.489Z" fill="black"/>
<path d="M39.9207 326.002C39.7214 328.593 37.9278 328.393 36.3334 328.194C25.1729 327.397 16.2047 322.016 9.62796 313.247C1.85547 302.684 -0.536065 290.926 1.85547 278.171C2.05476 277.573 2.05476 276.975 2.45335 276.577C3.25053 275.78 4.04771 274.982 4.84489 274.185C4.84489 275.182 5.04418 276.377 4.64559 277.374C2.25406 285.146 3.05123 292.72 5.44277 300.093C9.62795 312.848 17.799 322.016 31.1518 325.404C33.9419 326.002 36.9313 325.802 39.9207 326.002Z" fill="black"/>
<path d="M337.069 58.9471C337.069 52.769 341.453 48.1852 347.233 48.1852C352.614 48.1852 357.596 53.1675 357.795 58.5485C357.795 63.9295 352.614 69.1111 347.034 69.1111C341.453 69.3104 337.069 64.7266 337.069 58.9471ZM354.208 59.1464C354.208 55.1605 351.019 51.1746 347.631 51.1746C343.646 51.1746 340.058 54.7619 340.058 58.9471C340.058 62.7337 343.446 66.321 347.034 66.5203C351.219 66.5203 354.208 63.3316 354.208 59.1464Z" fill="black"/>
<path d="M361.383 138.466C361.383 143.647 356.201 149.028 351.219 148.829C345.838 148.63 340.457 143.647 340.656 138.466C340.656 132.686 345.439 128.102 351.418 128.102C356.799 128.102 361.383 132.885 361.383 138.466ZM351.02 145.64C355.005 145.64 358.194 142.651 358.393 138.864C358.593 134.48 355.603 131.092 351.418 131.092C347.034 131.092 343.646 134.081 343.446 138.067C343.247 142.252 346.635 145.441 351.02 145.64Z" fill="black"/>
<path d="M151.725 87.2469C146.942 85.8518 142.358 84.4568 137.974 83.0617C137.177 82.8624 136.18 82.4638 135.582 82.0653C134.984 81.6667 134.785 80.8695 134.586 80.2716C135.383 80.2716 135.981 79.873 136.778 80.0723C140.365 81.2681 143.753 82.4638 147.341 83.6596C148.736 84.0582 150.33 84.2575 151.924 84.6561C151.725 72.2998 144.55 69.1111 133.789 70.3069C144.75 65.1252 151.127 69.709 154.515 84.4568C159.298 85.4533 163.882 86.2504 168.665 87.2469C170.06 87.6455 171.455 88.0441 170.459 89.8377C165.078 88.8413 160.095 87.8448 154.914 86.649C154.117 89.8377 153.519 92.4286 152.722 95.0194C152.323 95.0194 151.924 94.8201 151.526 94.8201C151.326 92.2293 151.526 89.6384 151.725 87.2469Z" fill="black"/>
<path d="M19.9913 273.587C14.8096 273.587 10.8237 269.801 10.8237 264.619C10.8237 258.441 14.6103 254.455 20.5892 254.455C25.5715 254.455 29.956 258.64 30.1553 263.423C30.1553 268.804 25.3722 273.587 19.9913 273.587ZM26.7673 263.822C26.7673 259.836 24.3758 257.444 20.3899 257.245C16.6033 257.046 13.8131 260.035 13.8131 264.021C13.8131 267.608 16.6033 270.598 20.1906 270.598C23.9772 270.598 26.7673 267.608 26.7673 263.822Z" fill="black"/>
<path d="M168.665 359.882C168.665 354.102 173.05 349.718 178.63 349.718C184.011 349.718 188.594 354.102 188.395 358.885C188.196 364.266 183.214 369.647 178.032 369.647C173.249 369.647 168.665 364.864 168.665 359.882ZM171.654 359.085C171.455 362.672 174.843 366.458 178.43 366.857C182.018 367.056 185.206 363.469 185.206 359.085C185.406 355.497 182.616 352.906 179.028 352.707C175.042 352.508 171.654 355.298 171.654 359.085Z" fill="black"/>
<path d="M254.561 341.547C252.568 342.942 250.575 344.536 248.582 345.931C247.785 341.746 250.974 341.148 253.166 339.753C253.365 331.981 254.561 329.988 258.945 329.19C263.928 328.194 268.312 330.386 269.907 334.372C271.302 337.959 269.508 342.942 266.319 344.935C262.732 347.127 258.746 345.732 254.561 341.547ZM256.155 336.166C256.155 339.155 259.743 342.742 262.533 342.742C264.924 342.742 267.117 340.152 267.117 337.561C267.117 334.571 264.127 331.582 260.739 331.781C257.949 331.781 256.155 333.376 256.155 336.166Z" fill="black"/>
<path d="M503.281 187.093C508.263 187.093 512.249 191.279 512.448 196.261C512.647 201.243 507.466 206.425 502.085 206.425C497.102 206.425 492.917 202.24 492.917 197.058C492.917 191.279 497.102 187.093 503.281 187.093ZM509.06 196.062C509.06 192.275 506.868 189.884 503.281 189.884C499.095 189.884 496.106 192.674 496.305 196.46C496.305 200.247 499.095 203.635 502.284 203.436C506.071 203.635 509.06 200.446 509.06 196.062Z" fill="black"/>
<path d="M475.579 262.228C478.369 267.409 481.557 271.794 483.152 276.776C486.938 289.132 483.351 299.894 474.781 309.261C474.183 309.859 473.187 310.058 472.191 309.859C480.362 300.293 483.949 289.73 481.159 277.374C479.963 272.192 476.974 268.206 471.991 265.416C472.988 264.42 473.984 263.623 475.579 262.228Z" fill="black"/>
<path d="M348.628 440.397C353.013 440.397 357.397 440.397 361.781 440.397C361.781 441.393 361.981 442.19 361.981 443.187C357.198 443.187 352.614 443.187 347.632 443.187C347.432 444.781 347.432 446.176 347.233 447.571C347.233 447.97 346.436 448.369 346.237 448.767C345.838 448.369 345.439 447.97 345.24 447.571C345.041 446.176 345.041 444.781 344.841 443.386C340.856 443.386 336.87 443.386 332.884 443.386C332.884 442.39 332.884 441.393 332.884 440.397C336.87 440.397 340.656 440.397 344.841 440.397C345.041 439.6 345.439 438.603 346.037 437.009C347.233 438.404 347.831 439.4 348.628 440.397Z" fill="black"/>
<path d="M397.057 77.8801C395.064 80.8695 393.27 83.261 391.476 85.8518C391.078 85.4532 390.679 85.254 390.281 84.8554C392.074 82.2645 393.669 79.873 395.462 77.2822C387.291 70.3069 386.693 69.709 387.49 66.9189C390.879 69.709 394.067 72.4991 397.256 75.2892C399.847 72.6984 402.438 70.3069 405.028 67.716C405.028 67.716 405.626 68.3139 406.224 68.7125C403.833 71.3033 401.441 73.6949 399.249 76.2857C401.242 78.4779 403.235 80.4709 405.028 82.6631C405.427 83.261 405.427 84.2575 405.626 85.0547C404.829 84.6561 404.032 84.6561 403.434 84.0582C401.441 82.6631 399.847 80.6702 397.057 77.8801Z" fill="black"/>
<path d="M313.751 382.003C313.153 383.399 312.556 384.794 311.758 385.989C307.972 390.972 303.986 395.755 300.199 400.538C299.601 401.335 299.004 402.332 298.605 403.129C300.598 405.321 302.591 407.115 303.986 409.307C305.381 411.499 305.979 414.09 306.776 416.282C306.377 416.481 305.979 416.681 305.58 416.88C304.982 415.884 304.384 415.086 303.787 414.09C302.392 411.898 301.196 409.705 299.801 407.513C299.402 406.915 298.804 406.517 298.206 406.118C295.018 404.524 295.018 404.524 297.21 401.534C302.192 394.758 307.374 387.982 312.556 381.206C312.755 381.406 313.153 381.804 313.751 382.003Z" fill="black"/>
<path d="M254.76 371.042C255.358 370.245 255.757 369.049 256.554 368.651C263.131 365.263 270.305 363.868 277.48 364.466C283.658 365.063 290.035 366.259 296.214 367.455C297.011 367.654 297.609 368.85 298.007 369.847C283.459 366.259 269.309 364.067 255.557 371.64C255.159 371.441 254.96 371.242 254.76 371.042Z" fill="black"/>
<path d="M371.148 231.337C377.725 222.568 393.071 218.582 406.224 222.369C408.416 222.966 411.406 222.966 412.601 226.753C411.007 226.155 410.011 225.956 409.014 225.557C396.06 220.376 384.501 222.767 373.938 231.536C373.34 232.134 372.344 232.134 371.347 232.333C371.347 232.134 371.148 231.735 371.148 231.337Z" fill="black"/>
<path d="M73.6016 396.552C74.1995 399.143 72.4058 398.944 71.2101 398.744C64.4341 397.947 57.8573 396.552 52.2771 392.566C47.8926 389.377 44.106 385.392 40.1201 381.605C39.5222 381.007 39.3229 379.612 39.7215 378.217C47.8926 389.776 59.4517 395.356 73.6016 396.552Z" fill="black"/>
<path d="M454.653 326.799C444.887 326.799 435.321 326.799 425.556 326.799C425.356 326.6 425.356 326.4 425.157 326.002C425.755 325.603 426.353 324.806 426.951 324.806C435.919 325.802 443.094 321.019 450.866 318.03C452.062 317.631 453.258 317.432 454.453 317.034C454.653 317.432 454.852 318.03 455.051 318.429C450.667 320.422 446.083 322.414 441.3 324.607C443.891 324.607 446.083 324.407 448.474 324.607C450.667 324.806 452.66 325.404 454.852 325.802C454.852 326.201 454.852 326.4 454.653 326.799Z" fill="black"/>
<path d="M462.027 167.762C464.02 162.78 466.013 158.594 467.208 154.21C469.201 147.832 468.005 141.256 466.212 134.878C465.813 133.683 465.813 132.287 465.614 130.892C466.212 130.693 466.61 130.693 467.208 130.494C468.205 133.683 469.201 136.672 469.998 140.06C471.991 149.228 469.6 157.598 465.016 165.37C464.418 166.367 463.222 166.765 462.027 167.762Z" fill="black"/>
<path d="M285.651 401.136C285.053 398.744 302.79 376.423 306.378 374.63C306.378 376.822 291.829 395.356 285.651 401.136Z" fill="black"/>
<path d="M325.51 332.977C315.545 337.362 308.171 343.141 305.58 353.704C305.381 354.302 304.584 354.7 303.986 355.298C303.787 354.7 303.388 353.903 303.388 353.305C304.783 344.735 314.947 334.173 323.517 332.379C323.916 332.18 324.713 332.778 325.51 332.977Z" fill="black"/>
<path d="M131.596 233.928C130.002 233.728 128.607 233.529 127.012 233.131C122.229 231.935 117.645 231.735 112.862 232.931C112.265 233.13 111.667 232.732 111.268 232.533C111.667 231.935 111.866 231.138 112.265 231.138C118.443 229.145 124.421 229.942 130.6 231.935C131.397 232.134 132.194 232.333 132.991 232.533C132.393 232.931 131.995 233.33 131.596 233.928Z" fill="black"/>
<path d="M463.82 375.825C461.628 373.832 459.436 371.64 457.443 369.647C457.044 369.249 457.044 368.85 456.845 368.252C460.233 368.451 464.817 373.434 463.82 375.825Z" fill="black"/>
<path d="M291.829 13.1093C291.829 23.2734 291.829 33.4374 291.829 43.4021C291.829 44 291.231 44.5979 290.833 45.1958C290.434 44.5979 289.637 44 289.637 43.2028C289.437 33.6367 289.437 24.0705 289.637 14.7037C289.637 13.9065 290.434 13.1093 291.032 12.3122C291.032 12.5115 291.43 12.9101 291.829 13.1093Z" fill="black"/>
<path d="M302.99 12.5115C303.587 13.3087 304.385 13.9065 304.385 14.7037C304.584 22.4762 304.385 30.2487 304.385 38.2205C304.385 39.0176 303.587 39.8148 303.189 40.4127C302.79 40.2134 302.591 40.2134 302.192 40.0141C302.192 31.0459 302.192 21.8783 302.192 12.9101C302.591 12.9101 302.79 12.7108 302.99 12.5115Z" fill="black"/>
<path d="M92.5344 172.146C100.307 172.146 106.884 177.926 106.884 184.901C107.083 192.275 100.108 199.45 92.5344 199.649C83.3668 200.048 74.5979 189.286 77.388 181.115C78.9824 176.132 85.9577 171.947 92.5344 172.146ZM103.894 185.898C104.093 178.324 96.321 172.944 88.1499 175.136C80.3774 177.129 77.1887 184.901 82.1711 191.279C83.7654 193.471 86.7548 194.866 89.3457 196.062C95.9224 198.653 103.894 193.072 103.894 185.898Z" fill="black"/>
</svg>
