<svg width="444" height="443" viewBox="0 0 444 443" fill="none" xmlns="http://www.w3.org/2000/svg">
<path d="M330.757 193.091C301.769 193.091 273.195 193.091 244.415 193.091C244.415 164.311 244.415 135.737 244.415 106.75C273.195 106.75 301.769 106.75 330.757 106.75C330.757 135.323 330.757 163.897 330.757 193.091ZM246.692 117.309C246.692 136.358 246.692 154.993 246.692 173.628C274.231 173.628 301.355 173.628 328.686 173.628C328.686 154.579 328.686 136.151 328.686 117.309C301.355 117.309 274.231 117.309 246.692 117.309ZM328.686 176.941C300.941 176.941 273.817 176.941 246.899 176.941C245.45 181.703 247.107 182.946 251.248 182.946C275.887 182.739 300.527 182.946 325.166 182.946C326.201 182.946 327.237 182.739 328.686 182.532C328.686 180.461 328.686 178.805 328.686 176.941ZM246.485 114.411C274.231 114.411 301.355 114.411 328.893 114.411C328.686 112.34 328.686 110.684 328.686 109.027C300.941 109.027 273.817 109.027 246.485 109.027C246.485 110.891 246.485 112.34 246.485 114.411ZM326.201 186.673C326.201 187.501 326.201 188.329 326.201 189.157C308.188 189.157 290.381 189.157 272.367 189.157C272.367 189.571 272.367 190.193 272.367 190.607C291.002 190.607 309.637 190.607 328.893 190.607C328.686 188.536 328.686 186.88 328.479 185.43C309.43 185.43 291.002 185.43 272.574 185.43C272.574 185.844 272.574 186.258 272.574 186.88C290.588 186.673 308.395 186.673 326.201 186.673ZM268.847 190.814C268.847 190.193 268.847 189.571 268.847 188.95C262.222 188.95 255.596 188.95 248.97 188.95C248.97 188.329 248.97 187.501 248.97 186.88C255.596 186.88 262.222 186.88 268.847 186.88C268.847 186.466 268.847 185.844 268.847 185.43C261.6 185.43 254.146 185.43 246.485 185.43C246.485 187.294 246.485 188.95 246.485 190.814C254.353 190.814 261.6 190.814 268.847 190.814Z" fill="black"/>
<path d="M229.507 100.331C230.956 99.7097 231.785 99.2956 233.648 98.4674C233.234 100.124 232.82 101.366 232.406 102.608C235.097 103.851 237.996 104.886 242.758 106.957C238.203 110.891 234.683 114.411 230.749 117.102C229.3 117.931 226.608 117.102 224.538 116.895C222.053 116.688 219.775 116.274 216.877 116.688C224.952 127.869 228.265 139.464 224.745 152.302C222.467 160.791 217.498 167.417 210.044 172.386C194.929 182.532 175.052 179.84 163.042 166.174C151.24 152.923 151.033 132.631 162.628 119.173C175.673 103.851 194.722 102.608 215.841 116.274C216.048 113.996 217.084 111.926 216.462 110.684C212.943 104.472 215.427 100.331 220.396 96.1898C222.26 94.7404 223.088 92.0487 224.331 89.9781C225.159 90.3923 225.78 91.0134 226.608 91.4275C227.229 94.5333 228.265 97.2251 229.507 100.331ZM212.321 118.138C200.933 105.714 179.814 105.714 166.562 118.138C152.897 131.182 152.483 152.716 165.734 166.174C178.986 179.633 200.519 179.633 213.771 166.174C226.608 153.337 226.815 132.01 214.185 119.794C213.357 120.415 212.528 121.243 211.7 121.865C210.872 122.693 210.251 123.935 209.423 124.763C218.533 139.257 217.291 153.13 206.524 162.24C196.171 170.937 181.056 170.315 171.532 161.205C162.214 152.302 160.972 137.808 168.426 127.248C177.122 115.032 190.788 113.375 207.559 122.693C208.594 121.658 209.63 120.622 210.665 119.587C211.493 119.38 211.907 118.759 212.321 118.138ZM205.074 125.384C196.792 116.481 182.091 116.688 172.981 125.592C163.456 134.909 163.456 150.231 172.774 159.549C182.091 168.866 197.62 168.659 206.731 159.134C215.427 150.024 215.634 135.323 206.938 127.248C205.281 128.697 203.625 130.147 202.176 131.389C207.352 142.777 206.317 150.438 199.07 155.614C193.272 159.756 184.576 159.549 179.193 154.579C173.395 149.403 171.946 141.328 175.673 134.702C180.228 126.42 187.268 124.97 200.933 129.526C202.383 128.283 203.832 126.834 205.074 125.384ZM199.07 132.838C198.242 136.358 197.206 138.636 197.206 140.707C197.413 145.883 194.515 150.024 189.752 150.231C185.404 150.438 181.884 146.504 182.091 142.156C182.298 137.394 186.232 134.081 190.995 135.323C194.929 136.358 196.378 134.702 197.828 131.803C189.959 127.248 182.92 128.283 178.157 134.702C174.016 140.499 174.844 148.161 180.435 153.13C185.404 157.478 193.479 157.478 198.449 153.13C204.66 147.746 205.281 140.914 199.07 132.838ZM219.154 110.891C228.472 103.437 228.472 103.437 224.952 95.5686C215.841 102.401 215.634 102.816 219.154 110.891ZM221.432 113.375C229.507 116.481 231.784 115.653 236.34 107.371C228.886 104.058 228.886 104.058 221.432 113.375ZM192.444 137.394C187.475 137.187 184.162 138.222 184.783 142.777C184.99 144.641 188.096 147.746 189.959 147.746C193.893 147.746 195.343 144.848 194.515 140.499C192.444 141.742 190.995 142.777 189.338 143.605C189.131 143.398 188.924 143.191 188.717 142.777C189.959 141.328 190.788 139.878 192.444 137.394Z" fill="black"/>
<path d="M35.2896 255.001C45.2282 263.49 45.2282 263.49 36.739 267.631C37.5672 271.358 38.3954 275.499 39.2236 279.433C40.0519 283.16 39.8448 286.266 35.4967 287.508C30.1132 288.958 25.7651 287.301 24.3157 282.953C22.4522 276.741 21.0028 270.323 18.7252 264.111C17.2758 260.177 14.9982 256.45 12.9277 252.723C12.3065 251.481 10.6501 250.238 9.40777 250.031C1.33264 249.203 0.711477 243.613 0.918532 237.401C1.12559 234.502 0.711474 231.604 1.12558 228.912C1.53969 226.841 2.78203 224.15 4.43846 223.321C11.0642 220.423 17.2759 216.074 25.351 217.317C43.5718 220.215 59.1009 213.383 73.5947 203.03C75.4582 201.788 78.9781 200.545 80.4275 201.374C82.291 202.616 83.3263 205.722 83.7404 208.206C84.1545 211.726 83.3263 215.453 83.7404 218.973C84.1545 221.872 85.1898 224.771 86.6392 227.255C88.9168 231.189 88.2956 241.956 85.1898 245.476C84.3616 246.511 83.9475 248.168 83.9475 249.41C83.7404 254.38 83.9475 259.142 83.7404 264.111C83.5333 270.323 79.5993 272.186 74.0088 269.08C66.1408 264.525 58.4797 259.763 50.4046 256.243C45.8494 254.172 40.466 254.38 35.2896 253.344C35.7037 253.758 35.4967 254.38 35.2896 255.001ZM37.5672 250.238C44.193 252.102 50.1975 253.137 55.3739 255.415C62.4138 258.521 68.8325 262.869 75.4582 266.803C79.8064 269.287 81.8769 268.459 81.8769 263.49C82.084 245.683 82.084 227.877 82.084 210.07C82.084 203.03 79.5993 201.581 74.0088 205.515C63.0349 213.59 51.4399 219.387 37.5672 220.423C37.5672 230.775 37.5672 240.714 37.5672 250.238ZM31.3556 244.234C31.7697 244.234 32.1838 244.027 32.3908 244.027C32.805 246.304 33.2191 248.582 33.8402 250.86C34.0473 250.86 34.4614 250.653 34.6684 250.653C34.6684 240.507 34.6684 230.154 34.6684 220.008C34.2543 220.008 34.0473 220.008 33.6332 220.008C33.2191 222.493 32.805 224.771 32.3908 227.255C32.1838 227.255 31.7697 227.255 31.5626 227.255C31.3556 224.771 30.9415 222.286 30.5273 218.352C27.4215 220.423 25.1439 221.872 24.1087 222.493C21.4169 221.665 18.5182 219.594 16.8617 220.216C14.7912 221.251 12.5136 224.15 12.3065 226.634C11.6854 232.639 11.6854 238.643 12.3065 244.648C12.5136 247.133 14.5841 250.238 16.6547 251.274C18.5182 252.102 21.4169 250.238 24.3157 249.41C25.351 250.031 27.6286 251.274 30.5273 252.723C30.9415 248.582 31.1485 246.511 31.3556 244.234ZM31.7697 256.243C28.6639 257.692 25.7651 258.935 23.2804 260.384C22.2452 261.005 21.2099 262.869 21.4169 263.904C23.0734 270.323 24.5228 276.741 27.0074 282.746C27.6286 284.402 31.9767 284.817 34.6684 285.024C35.2896 285.024 37.1531 281.504 36.739 279.847C35.4967 272.393 33.6332 264.732 31.7697 256.243ZM3.19613 233.467C5.26668 234.295 6.30195 234.709 7.95839 235.538C6.09489 236.366 4.85257 236.987 3.40319 237.608C5.05963 238.436 6.0949 239.057 7.33722 239.679C6.71606 239.265 6.0949 238.85 5.47374 238.436C4.85257 239.886 3.40318 241.749 3.81729 242.577C4.64551 244.441 6.509 245.89 7.95839 247.34C8.3725 247.133 8.78661 246.718 9.20072 246.511C9.20072 239.057 9.20072 231.396 9.20072 223.942C8.78661 223.735 8.3725 223.321 7.95839 223.114C6.30195 224.771 4.64551 226.634 2.57497 228.705C5.05962 229.74 6.30195 230.154 8.16545 230.982C6.30195 232.225 5.05962 232.846 3.19613 233.467ZM29.078 255.001C29.078 254.587 29.078 254.38 28.8709 253.965C25.351 253.965 21.624 253.965 17.2758 253.965C18.3111 256.036 19.1393 257.485 19.9676 259.349C23.4875 257.692 26.1792 256.243 29.078 255.001Z" fill="black"/>
<path d="M81.2557 137.601C79.1851 135.737 77.1146 134.288 75.4581 132.631C72.9735 130.147 71.11 128.283 66.9689 130.147C65.1054 130.975 60.9643 129.526 59.1008 127.869C52.061 121.657 45.6423 114.825 39.0165 107.992C35.4966 104.265 35.4966 100.331 39.0165 96.3968C41.7082 93.4981 44.607 90.8063 47.5058 88.1146C51.2328 84.8018 54.9597 84.8018 58.4797 88.3217C65.3125 94.9474 72.1453 101.78 78.771 108.613C82.498 112.34 81.4627 116.481 78.771 120.622C82.0839 123.728 85.1897 126.627 88.9167 130.147C95.3354 124.349 99.6836 129.319 104.239 134.081C109.415 139.464 115.006 144.641 120.182 150.024C124.53 154.372 124.323 158.306 120.182 162.861C117.697 165.346 115.213 168.038 112.521 170.522C109.001 173.835 105.067 174.042 101.547 170.729C94.5072 163.897 87.6744 157.064 80.8416 150.024C77.1146 146.297 78.1499 142.363 81.2557 137.601ZM87.2603 144.641C93.886 151.059 100.926 158.099 108.794 165.967C110.45 164.104 112.728 161.619 114.799 158.927C115.627 157.892 116.248 155.614 115.627 155.2C109.001 148.16 102.168 141.535 94.3001 133.46C95.9566 140.914 91.8155 145.262 87.2603 144.641ZM73.1806 114.204C66.3477 107.371 59.3079 100.331 51.0257 92.0487C49.1622 94.5333 46.6776 97.225 44.8141 100.124C44.1929 101.159 43.9858 103.644 44.607 104.472C51.0257 111.305 57.6515 117.723 64.6913 124.763C64.6913 117.102 67.176 114.411 73.1806 114.204ZM91.6084 130.561C91.8155 130.975 92.2296 131.389 92.4366 131.596C95.1284 133.253 98.2342 134.495 100.512 136.565C104.446 139.878 107.759 143.605 111.279 147.332C120.803 156.857 120.803 156.857 110.865 165.967C107.966 168.659 105.481 168.866 102.582 165.967C98.4412 161.619 94.0931 157.478 89.7449 153.13C86.225 149.61 81.4627 146.918 81.6698 140.707C81.0486 143.398 80.6345 146.504 82.0839 148.16C88.7097 155.407 95.7495 162.24 102.789 168.866C106.309 172.179 109.622 170.522 111.9 167.21C115.006 162.861 123.495 160.998 119.354 152.923C119.354 152.716 119.147 152.716 118.94 152.509C112.107 145.676 105.274 138.429 98.0271 132.01C96.9918 130.768 93.886 130.975 91.6084 130.561ZM67.7971 128.49C67.5901 128.076 67.5901 127.662 67.383 127.248C64.4843 125.384 61.1714 123.935 58.6867 121.865C54.9597 118.759 51.6469 115.032 48.334 111.512C38.8095 101.987 38.8095 101.987 48.5411 92.8769C51.6469 89.9781 54.3386 89.9781 57.2374 93.084C61.7926 97.8462 66.7619 102.194 71.11 107.164C73.8017 110.269 75.6652 113.789 78.1499 117.309C79.8063 115.239 79.3922 112.547 76.9075 109.855C72.7664 105.507 68.4183 101.366 64.0701 97.018C52.061 84.8018 53.7174 85.0088 40.88 98.0533C38.1883 100.745 37.9813 103.644 40.673 106.543C47.5058 113.375 54.1315 120.208 61.1714 126.834C62.6208 128.076 65.5195 127.869 67.7971 128.49ZM66.9689 119.38C74.837 127.455 82.0839 134.702 89.7449 142.156C90.5731 141.121 91.8155 139.878 92.6437 138.636C85.1897 130.975 77.9428 123.935 70.2818 116.067C69.0395 117.516 67.7971 118.552 66.9689 119.38Z" fill="black"/>
<path d="M313.778 398.075C313.778 393.106 313.778 388.551 313.778 383.375C304.668 383.375 295.971 383.167 287.275 383.582C281.685 383.789 280.028 381.718 280.235 376.335C280.442 358.942 280.442 341.757 280.235 324.364C280.235 319.395 281.685 317.324 287.068 317.531C311.708 317.738 336.347 317.738 360.987 317.531C365.956 317.531 367.612 319.395 367.612 324.157C367.405 341.757 367.405 359.563 367.612 377.163C367.612 382.132 365.542 383.582 360.78 383.582C351.876 383.375 343.18 383.582 333.862 383.582C333.862 388.551 333.862 392.899 333.862 398.282C336.761 398.282 339.453 397.868 342.145 398.49C343.594 398.697 344.836 400.56 346.286 401.595C345.043 402.631 343.801 404.701 342.352 404.908C329.928 405.115 317.505 405.115 305.082 404.908C303.84 404.908 302.597 403.045 301.355 402.009C302.597 400.767 303.632 398.904 305.082 398.49C307.774 397.661 310.672 398.075 313.778 398.075ZM282.927 380.683C310.465 380.683 337.382 380.683 364.921 380.683C364.921 360.391 364.921 340.307 364.921 320.223C337.382 320.223 310.465 320.223 282.927 320.223C282.927 340.307 282.927 360.184 282.927 380.683ZM330.757 383.167C329.514 385.238 328.686 386.273 328.272 386.894C326.823 385.652 325.373 383.582 324.338 383.582C322.267 383.996 320.611 385.652 318.747 386.687C318.333 386.066 317.919 385.031 316.677 382.753C316.677 388.551 316.677 393.106 316.677 397.661C321.646 397.661 326.201 397.661 330.757 397.661C330.757 392.692 330.757 388.344 330.757 383.167ZM304.461 400.974C304.461 401.388 304.461 401.595 304.461 402.009C317.298 402.009 330.343 402.009 343.18 402.009C343.18 401.595 343.18 401.388 343.18 400.974C330.343 400.974 317.298 400.974 304.461 400.974Z" fill="black"/>
<path d="M317.712 37.1792C314.813 39.2497 312.122 41.1132 308.809 38.0074C307.566 36.9721 298.456 40.6991 297.835 42.5626C294.936 50.2236 289.553 55.4 282.099 58.7129C280.649 59.334 278.993 61.8187 278.993 63.4751C278.579 70.722 278.786 78.176 278.786 85.4229C278.786 89.9781 277.129 93.291 271.953 93.291C267.191 93.0839 265.741 89.7711 265.949 85.4229C265.949 78.7972 265.741 72.1714 265.949 65.7527C266.156 61.6116 265.12 59.5411 260.979 57.6776C246.899 51.673 241.102 34.6945 248.142 21.0289C255.182 7.3633 272.16 1.77283 285.205 9.84796C289.967 12.7467 293.694 18.1301 296.8 22.8924C298.663 25.7912 300.113 27.2406 303.632 27.0335C310.258 26.8264 316.884 27.2406 323.303 26.8264C327.858 26.6194 330.135 28.4829 330.964 32.4169C331.378 33.8663 330.964 36.9721 330.135 37.1792C327.03 38.2145 323.717 38.6286 320.197 39.0427C319.576 39.0427 318.747 37.8003 317.712 37.1792ZM272.16 57.8847C286.033 57.8847 296.8 47.3249 296.8 33.2451C296.8 19.5795 285.826 8.60563 271.953 8.60563C258.702 8.60563 247.521 19.7866 247.314 33.0381C247.314 46.7037 258.495 57.8847 272.16 57.8847ZM268.226 64.7175C268.226 72.3785 268.019 79.4183 268.433 86.4582C268.433 87.9076 270.918 89.357 272.367 90.8063C273.61 89.564 276.094 88.3217 276.094 86.8723C276.508 79.4183 276.301 72.1714 276.301 64.5104C274.231 64.5104 272.988 64.3033 271.539 64.3033C270.711 64.5104 269.676 64.7175 268.226 64.7175ZM299.698 33.2451C299.698 38.2145 300.32 38.4215 307.981 34.2804C312.536 37.8003 312.536 37.8003 317.919 34.0734C324.338 38.6286 327.03 38.4215 329.514 33.2451C319.162 33.2451 309.43 33.2451 299.698 33.2451ZM300.527 29.7252C300.527 29.9323 300.527 30.1393 300.527 30.1393C308.809 30.1393 317.298 30.1393 325.58 30.1393C325.58 29.9323 325.58 29.7252 325.58 29.7252C317.091 29.7252 308.809 29.7252 300.527 29.7252Z" fill="black"/>
<path d="M119.354 245.476C119.354 244.234 119.147 242.784 119.354 241.542C120.182 234.916 118.94 230.361 111.693 227.255C102.168 222.907 97.1989 209.242 99.4765 199.096C102.168 187.294 111.279 179.012 122.874 177.769C134.055 176.527 145.443 182.324 149.998 192.884C151.861 197.439 154.553 198.475 158.901 198.268C165.32 198.061 171.739 198.475 178.157 198.061C183.748 197.647 185.197 202.202 185.611 205.515C186.025 209.656 181.884 210.484 178.157 210.277C172.567 209.863 166.769 207.792 161.593 209.035C158.073 209.863 152.275 208.827 150.412 215.246C148.341 222.286 142.337 226.634 135.711 229.947C134.055 230.775 132.398 233.26 132.191 235.123C131.984 242.163 132.191 249.41 132.398 256.45C132.398 261.005 130.742 264.525 125.772 264.318C121.01 264.318 119.561 260.798 119.354 256.657C119.354 252.93 119.354 249.203 119.354 245.476ZM101.133 204.479C100.512 217.317 112.107 228.912 125.772 229.326C138.196 229.74 150.205 217.938 150.826 204.893C151.24 192.263 140.266 180.254 127.429 179.633C112.935 179.012 101.961 189.364 101.133 204.479ZM130.121 235.123C126.808 236.366 122.045 232.846 121.838 238.85C121.631 245.062 121.424 251.274 121.838 257.485C122.045 259.142 124.323 260.591 125.772 262.041C127.222 260.591 129.914 259.349 129.914 257.692C130.328 250.653 130.121 243.199 130.121 235.123ZM183.334 205.308C182.505 204.686 181.884 204.065 181.263 204.065C172.567 203.858 163.871 203.651 155.381 203.858C154.346 203.858 153.311 206.343 152.275 207.792C157.866 208.206 162.007 203.858 166.562 208.206C166.769 208.413 168.219 207.171 169.047 207.171C170.703 206.964 172.774 206.757 174.223 207.378C177.536 208.62 180.642 209.449 183.334 205.308ZM179.814 201.581C179.814 201.374 179.814 200.959 179.814 200.752C171.117 200.752 162.214 200.752 153.518 200.752C153.518 200.959 153.518 201.374 153.518 201.581C162.421 201.581 171.117 201.581 179.814 201.581Z" fill="black"/>
<path d="M65.3126 158.513C63.242 163.69 62.2067 170.108 58.6868 173.628C51.2328 180.668 49.3694 189.571 47.7129 198.889C46.8847 203.858 42.1224 207.792 37.1531 207.171C32.3909 206.55 28.4568 204.479 27.2145 199.096C26.5933 196.818 25.7651 194.334 25.9722 191.849C25.9722 185.223 22.8664 180.668 18.5182 176.113C10.029 167.624 8.78664 154.579 15.2053 144.433C21.417 134.288 33.6332 129.526 45.0212 132.631C55.9951 135.737 64.0702 146.297 65.3126 158.513ZM30.9415 190.193C31.3556 189.778 31.9768 189.571 32.3909 189.157C31.1485 183.567 35.0826 177.976 30.9415 172.386C27.4216 167.831 24.5228 162.861 21.417 158.099C31.3556 150.024 43.9859 150.231 52.8893 158.099C51.0258 160.998 49.3694 164.311 47.0918 166.795C41.9154 172.386 41.0872 179.012 42.1224 186.051C42.3295 187.294 43.3648 188.329 43.9859 189.364C45.0212 188.536 46.0565 187.915 46.8847 186.88C49.5764 182.946 51.647 178.39 54.7528 174.871C63.8632 164.725 63.6561 150.024 54.1316 140.707C44.6071 131.389 29.4921 131.596 19.9676 141.121C10.4431 150.852 10.4431 165.139 19.7605 175.078C22.8664 178.39 24.7299 182.946 27.2145 186.673C28.4568 188.122 29.9062 188.95 30.9415 190.193ZM24.5228 158.72C27.8357 163.69 30.9415 168.245 34.0473 173.007C36.1179 176.113 38.3955 176.113 40.6731 173.007C43.7789 168.452 46.8847 163.69 49.9905 158.927C42.7436 153.337 33.6332 153.13 24.5228 158.72ZM28.4568 192.263C29.6992 201.995 29.6992 201.788 40.8801 201.374C47.7129 201.166 45.2283 195.99 46.4706 192.263C40.0519 192.263 34.2544 192.263 28.4568 192.263ZM38.6025 190.193C39.0166 189.778 39.4307 189.157 39.8448 188.743C39.8448 186.051 40.0519 183.153 39.6378 180.461C39.4307 179.426 37.5672 178.805 36.3249 177.976C35.7037 181.082 34.8755 184.188 34.8755 187.501C35.0826 188.122 37.3602 189.157 38.6025 190.193Z" fill="black"/>
<path d="M360.572 257.692C354.154 250.031 354.154 250.031 361.815 243.406C363.885 241.542 365.956 239.679 369.062 237.194C370.097 238.643 370.511 240.3 371.546 240.714C373.41 241.749 375.687 243.199 377.551 242.785C380.243 242.37 382.934 240.714 382.313 236.987C381.485 232.432 383.763 230.982 388.111 231.397C389.974 231.604 391.838 231.397 393.701 231.397C398.463 231.189 402.605 231.397 402.19 238.229C401.983 239.679 405.089 241.749 406.953 242.577C408.195 242.992 410.68 242.163 411.508 241.128C414.407 237.401 417.098 238.229 419.79 240.921C421.447 242.577 423.31 244.441 424.966 246.097C428.072 249.203 429.108 251.895 424.966 255.208C423.931 256.036 423.517 258.935 424.138 260.384C424.966 262.248 427.244 264.939 428.693 264.732C434.491 264.111 435.319 267.217 435.319 271.772C435.319 273.843 435.112 275.913 435.319 277.984C435.526 282.332 434.077 284.403 429.108 284.403C427.451 284.403 425.174 286.887 424.138 288.958C423.517 290.2 424.138 293.099 425.174 293.927C429.108 297.033 428.279 299.725 425.174 302.623C423.31 304.28 421.654 305.936 419.997 307.8C417.098 311.113 414.407 311.32 411.094 307.8C410.266 306.764 407.367 306.143 406.124 306.764C404.261 307.8 401.569 310.077 401.569 311.734C401.776 316.703 399.499 317.945 395.151 317.945C393.08 317.945 391.01 317.945 388.939 317.945C384.384 318.152 381.278 317.117 381.899 311.32C382.106 309.87 379.414 307.593 377.551 306.764C376.309 306.143 373.41 306.557 372.582 307.593C369.269 311.734 366.37 310.906 363.264 307.593C361.815 305.936 360.158 304.28 358.502 302.83C355.189 299.725 354.568 296.826 358.502 293.72C359.537 292.892 359.951 290.2 359.537 289.165C358.709 287.301 356.431 284.403 355.189 284.403C348.77 285.024 348.149 281.297 348.149 276.534C348.149 273.636 348.149 270.944 348.77 268.045C348.977 266.803 350.841 264.939 351.669 265.146C357.467 266.182 359.33 262.869 360.572 257.692ZM408.816 246.719C405.71 243.82 399.085 245.269 399.499 238.643C399.913 232.639 395.772 232.846 392.045 233.053C388.318 233.26 384.384 232.846 384.177 238.643C384.177 240.507 382.106 242.577 380.45 243.82C378.793 245.062 376.516 245.683 374.445 246.512C372.168 244.648 370.097 242.785 367.819 240.921C365.542 242.785 363.885 244.234 362.229 245.89C360.78 247.547 359.33 249.203 357.881 250.86C359.744 254.587 364.921 255.829 361.815 262.041C359.123 267.424 355.396 267.217 350.427 267.631C350.427 271.358 350.013 275.085 350.634 278.398C350.841 279.847 353.119 282.125 354.154 281.918C360.78 280.883 360.78 286.266 362.229 289.786C362.85 291.442 360.572 293.927 359.537 295.998C359.123 296.826 358.502 297.447 357.467 298.482C360.78 302.002 363.885 305.315 366.784 308.214C368.026 308.007 368.233 308.007 368.233 308.007C371.339 306.35 372.375 301.381 377.965 304.28C382.106 306.35 385.005 308.007 384.177 313.183C384.177 313.804 386.04 315.461 387.075 315.668C389.767 316.082 392.666 316.082 395.358 315.668C396.6 315.461 398.671 313.183 398.463 312.355C397.221 305.936 402.812 305.936 406.124 303.866C409.851 301.588 410.887 305.522 412.957 306.971C413.786 307.386 414.407 308.007 414.821 308.421C418.548 305.108 422.068 302.209 425.381 299.31C422.689 294.962 418.341 293.513 421.032 287.508C423.517 281.711 427.658 282.953 431.799 281.711C431.799 276.949 431.799 272.393 431.799 267.631C426.623 267.631 423.724 267.217 421.032 262.248C417.513 255.829 423.931 254.587 424.759 251.481C421.447 247.547 418.548 244.027 415.649 240.507C412.957 242.992 411.094 244.648 408.816 246.719Z" fill="black"/>
<path d="M200.312 289.993C188.717 289.993 176.915 289.993 165.32 289.993C158.694 289.993 157.245 288.544 157.245 282.125C157.245 264.111 157.038 245.89 157.245 227.877C157.245 221.251 158.487 219.801 165.113 219.801C176.087 219.801 187.268 220.215 198.242 220.215C209.837 220.215 221.432 219.801 233.234 219.801C243.173 219.801 244.622 221.458 244.622 231.189C244.622 247.961 244.622 264.732 244.415 281.297C244.415 288.751 243.173 289.993 235.926 289.993C223.916 289.993 212.114 289.993 200.312 289.993ZM200.105 287.715C211.7 287.715 223.502 287.508 235.097 287.715C240.688 287.922 242.344 285.852 242.137 280.468C241.93 263.283 241.93 246.304 241.93 229.119C241.93 222.493 241.102 221.872 234.476 221.872C211.493 221.872 188.303 222.079 165.32 221.872C160.972 221.872 159.315 223.528 159.315 227.877C159.315 245.89 159.315 263.904 159.315 281.918C159.315 286.059 161.179 287.508 165.113 287.508C176.708 287.715 188.51 287.922 200.105 287.715Z" fill="black"/>
<path d="M358.088 80.0395C362.022 77.1407 365.542 74.2419 369.062 79.8324C372.789 77.1407 376.516 73.8278 380.036 79.2112C388.111 74.8631 388.111 74.8631 393.287 82.3171C399.292 90.8063 403.847 100.124 405.918 110.477C406.539 113.582 405.918 115.653 403.019 117.516C396.807 121.45 391.01 125.799 384.591 129.526C382.727 130.561 379.622 130.768 377.551 130.147C369.269 127.248 361.194 123.521 352.912 120.415C348.563 118.759 347.735 116.067 349.185 111.926C350.634 107.992 353.533 107.992 357.053 109.441C359.744 110.684 362.436 111.512 365.956 111.512C359.744 102.608 353.74 93.7051 347.528 84.8017C345.458 81.6959 343.387 78.5901 341.109 75.4843C338.832 72.3784 339.867 69.8938 342.766 67.8232C345.665 65.7527 348.356 65.5456 350.427 68.8585C352.912 72.7926 355.396 76.3125 358.088 80.0395ZM376.93 91.8416C376.309 92.2557 375.688 92.4628 375.273 92.8769C372.582 89.1499 370.097 85.2158 367.198 81.6959C366.37 80.6606 363.885 79.6254 362.643 80.0395C359.537 81.0747 359.744 83.1453 361.608 85.63C364.3 89.3569 366.784 93.291 369.269 97.018C368.855 97.225 368.234 97.6391 367.819 97.8462C366.991 97.0179 366.163 96.3968 365.749 95.5686C360.365 87.7005 354.775 79.8324 349.392 71.7573C347.321 68.4444 344.836 68.2374 342.766 71.1361C342.145 72.1714 343.18 74.8631 344.215 76.3125C351.462 87.2864 359.123 98.0532 366.37 109.027C367.198 110.269 366.784 112.34 367.198 113.996C365.542 113.996 364.092 114.411 362.643 114.203C360.365 113.582 358.088 112.133 355.81 111.719C354.361 111.512 352.704 112.34 351.255 112.754C351.876 114.411 351.876 117.102 353.119 117.723C362.229 121.657 371.546 125.177 380.864 128.697C387.49 124.556 394.115 120.208 400.741 116.067C401.155 115.86 401.776 115.446 402.191 115.032C402.812 113.789 404.054 112.34 403.847 111.305C401.569 98.6744 395.565 87.7005 386.247 76.9336C385.005 79.6254 383.349 81.6959 383.349 83.3523C383.349 85.2158 385.212 87.0793 386.247 88.9428C385.833 89.1499 385.212 89.564 384.798 89.771C382.52 86.6652 380.45 83.3524 377.965 80.4536C377.137 79.6254 374.445 79.2113 373.617 79.8324C372.789 80.4536 372.168 82.9382 372.789 84.1806C373.617 87.0793 375.48 89.3569 376.93 91.8416Z" fill="black"/>
<path d="M118.733 32.831C142.751 32.831 162.214 52.2941 162.214 76.3125C162.214 100.331 142.751 120.001 118.94 120.001C94.9213 120.001 75.2511 100.745 75.0441 76.7266C75.0441 52.5012 94.5072 32.831 118.733 32.831ZM159.936 76.5195C159.936 53.5365 141.716 35.1086 118.94 35.1086C95.9566 35.1086 77.7358 53.3294 77.5287 76.1054C77.5287 99.0885 95.7495 117.309 118.526 117.516C141.509 117.723 159.936 99.2955 159.936 76.5195Z" fill="black"/>
<path d="M305.082 233.467C307.152 234.088 308.602 234.709 310.258 235.123C320.818 237.401 320.818 237.401 321.232 248.375C321.439 255.001 321.232 261.626 321.232 268.045C321.232 272.393 321.646 276.741 316.884 279.433C316.056 279.847 315.849 282.125 315.642 283.367C315.435 286.059 315.228 288.751 315.228 291.442C314.813 291.442 314.399 291.442 313.778 291.442C313.778 277.363 313.778 263.49 313.778 249.41C314.192 249.41 314.813 249.41 315.228 249.203C315.228 258.106 315.228 267.01 315.228 275.913C315.849 276.12 316.677 276.12 317.298 276.327C317.919 274.671 318.748 272.807 318.955 271.151C319.162 262.041 319.162 252.723 319.162 243.406C319.162 241.956 318.333 239.472 317.298 239.264C310.465 237.401 304.047 233.467 296.179 235.952C282.72 240.093 282.72 239.886 282.513 253.758C282.513 259.349 282.513 265.146 282.513 270.737C282.513 272.6 283.341 274.464 283.755 276.327C284.376 276.327 284.998 276.327 285.826 276.12C285.826 267.217 285.826 258.314 285.826 249.617C286.447 249.617 287.068 249.617 287.689 249.617C287.689 263.697 287.689 277.57 287.689 291.649C287.482 291.649 287.068 291.856 286.861 291.856C286.654 290.407 286.24 288.958 286.24 287.508C286.033 283.781 286.861 279.64 282.306 277.156C281.064 276.534 280.649 273.429 280.649 271.565C280.442 262.662 280.442 253.965 280.442 245.062C280.442 240.507 281.892 237.608 286.654 236.573C289.553 235.952 292.245 234.709 295.764 233.467C290.174 228.912 291.209 222.7 291.623 216.903C291.83 213.383 293.901 211.726 297.421 211.312C309.223 210.277 314.192 217.11 309.637 228.084C308.602 229.947 306.738 231.189 305.082 233.467ZM307.981 221.251C307.152 218.559 310.465 212.554 303.011 214.004C299.698 214.625 293.073 209.863 293.28 218.766C293.487 228.291 295.557 232.432 301.148 232.432C305.496 232.018 307.981 228.084 307.981 221.251Z" fill="black"/>
<path d="M321.853 222.7C321.439 217.317 320.818 212.347 321.232 207.585C321.439 206.55 325.787 205.1 328.272 205.1C330.757 205.1 334.898 206.343 335.105 207.792C335.933 212.554 337.589 217.938 332.62 221.872C346.079 227.462 343.594 223.528 344.008 238.022C344.008 242.37 344.422 246.718 344.215 251.067C344.008 253.137 342.766 255.001 341.938 257.071C341.316 258.935 340.074 260.591 340.074 262.455C339.867 269.909 339.867 277.57 339.867 285.024C339.867 288.958 339.867 292.063 334.484 292.063C329.1 292.063 329.514 288.958 329.514 285.231C329.514 277.984 329.514 270.944 329.514 263.697C329.514 262.041 329.307 260.177 329.1 258.521C328.479 258.521 328.065 258.521 327.444 258.521C327.444 267.631 327.444 276.741 327.444 285.645C327.444 291.649 325.994 292.478 318.955 290.407C321.439 289.786 323.096 289.372 324.959 288.751C324.959 277.984 324.959 267.217 324.959 256.036C327.237 256.036 329.1 256.036 331.585 256.036C331.585 263.697 331.585 271.151 331.585 278.605C331.585 281.09 331.378 283.574 331.792 285.852C331.999 287.094 333.448 288.129 334.277 289.165C335.312 287.922 337.175 286.887 337.175 285.438C337.589 280.261 337.382 274.878 337.382 269.702C337.382 259.763 337.382 249.824 337.589 239.886C337.589 238.022 337.797 236.366 338.004 234.502C338.625 234.502 339.039 234.502 339.66 234.502C339.66 240.921 339.66 247.34 339.66 253.758C340.488 253.758 341.316 253.758 341.938 253.758C341.938 250.445 341.938 246.926 341.938 243.613C341.938 241.335 342.559 239.057 341.938 236.78C340.902 232.846 345.665 226.427 337.175 225.185C332.413 224.564 328.479 221.458 323.096 223.942C316.056 227.255 315.849 226.841 313.364 232.225C310.672 226.427 310.879 226.22 321.853 222.7ZM322.889 212.969C322.474 217.317 323.717 221.251 328.272 221.251C333.241 221.251 333.448 216.903 333.655 212.969C333.862 209.035 333.241 207.171 328.479 207.171C324.131 207.378 322.06 208.62 322.889 212.969Z" fill="black"/>
<path d="M259.737 227.255C259.737 236.573 259.737 245.476 259.737 254.38C260.151 254.38 260.565 254.38 261.186 254.38C261.186 247.961 261.186 241.749 261.186 235.331C261.807 235.331 262.429 235.331 263.05 235.123C263.257 239.265 263.671 243.406 263.671 247.754C263.878 259.763 263.878 271.772 264.085 283.988C264.085 286.266 262.636 289.993 266.984 289.786C271.332 289.579 269.675 285.852 269.675 283.574C269.883 276.12 269.675 268.459 269.675 261.005C269.675 255.622 269.675 255.622 276.301 256.657C276.301 267.424 276.301 278.191 276.301 288.958C278.579 289.579 280.235 289.993 282.513 290.614C275.266 292.892 274.024 292.063 274.024 285.645C274.024 276.741 274.024 267.631 272.781 258.521C272.574 259.556 272.16 260.591 272.16 261.833C272.16 269.495 272.16 277.363 272.16 285.024C272.16 288.751 272.574 292.063 266.984 292.063C261.393 292.063 261.807 288.337 261.807 284.817C261.807 277.57 261.807 270.116 261.6 262.869C261.6 260.798 260.151 258.935 259.323 257.071C258.495 255.001 257.459 252.93 257.252 250.86C257.045 244.855 257.459 238.85 257.045 232.846C256.631 227.877 258.495 224.978 263.464 224.15C265.12 223.942 266.57 223.114 267.605 222.7C266.777 219.387 265.741 216.696 265.741 213.797C265.534 205.929 269.468 202.823 277.129 205.101C278.579 205.515 280.442 207.999 280.442 209.449C280.442 213.59 279.821 217.731 279.407 222.493C282.099 223.735 285.826 225.185 289.139 227.255C289.967 227.877 289.346 230.982 289.346 234.088C285.205 225.599 278.165 222.493 269.468 224.564C265.741 225.392 262.843 226.427 259.737 227.255ZM268.226 207.171C267.605 217.317 269.261 221.251 273.402 221.044C276.922 220.837 279.407 216.903 278.579 211.312C277.544 203.858 271.953 209.035 268.226 207.171Z" fill="black"/>
<path d="M186.025 349.832C193.893 349.832 200.726 349.832 207.766 349.832C214.392 349.832 221.225 349.832 227.85 349.832C227.85 350.453 227.85 350.867 228.057 351.488C225.573 351.902 223.295 352.109 220.396 352.523C220.396 355.629 220.396 358.735 220.396 362.255C222.881 362.669 225.159 362.876 227.643 363.29C227.643 363.704 227.643 364.118 227.643 364.533C223.916 364.74 220.189 365.154 216.462 365.361C216.462 365.775 216.462 366.189 216.255 366.396C220.189 366.603 223.916 367.017 227.85 367.224C227.85 367.845 227.85 368.467 227.85 368.881C223.709 368.881 219.568 369.088 215.427 368.674C214.599 368.674 213.771 363.704 213.771 363.704C219.775 361.634 217.084 356.872 217.498 352.109C209.837 352.109 202.59 352.109 195.343 352.109C182.091 352.109 183.748 353.145 183.748 340.1C183.748 328.505 183.955 316.703 183.748 305.108C183.748 300.346 185.611 298.896 189.959 298.896C215.013 299.103 240.067 298.896 265.12 298.896C269.468 298.896 271.125 300.553 271.125 304.901C270.918 313.39 271.125 321.879 271.125 330.369C271.125 331.818 270.711 333.06 269.261 334.51C269.054 332.853 268.847 331.197 268.847 329.54C268.847 321.672 268.847 313.804 268.847 305.936C268.847 303.037 268.226 301.381 264.913 301.381C240.067 301.381 215.22 301.381 190.374 301.588C189.131 301.588 186.647 303.658 186.647 304.901C186.025 319.188 186.025 334.096 186.025 349.832Z" fill="black"/>
<path d="M60.5503 366.396C61.5855 364.947 62.4138 363.704 63.242 362.255C65.5196 358.114 66.3478 354.594 63.8631 349.625C54.9598 332.853 62.6208 312.355 80.0134 304.694C97.1989 297.24 117.076 305.522 123.909 322.915C130.742 340.514 121.631 360.806 103.411 365.982C96.9919 367.845 89.745 367.017 82.9122 365.982C79.1852 365.361 76.0794 364.74 72.3524 366.189C68.8324 367.431 64.8984 367.638 61.1714 368.26C60.7573 367.638 60.7573 367.017 60.5503 366.396ZM64.2773 365.154C67.3831 364.74 68.8324 364.947 70.0748 364.326C75.0441 361.841 79.5993 362.669 84.9827 364.326C98.6483 368.674 113.142 362.255 119.975 349.625C127.015 336.994 124.116 321.465 112.935 311.734C102.582 302.623 86.6391 301.795 75.2511 309.87C63.6561 318.152 58.6868 333.474 64.6914 346.312C68.0042 352.73 69.2466 358.114 64.2773 365.154Z" fill="black"/>
<path d="M240.067 399.939C243.587 409.671 251.248 407.186 257.873 407.186C269.054 407.186 280.442 407.186 291.623 407.186C296.178 407.186 302.39 413.398 302.183 417.953C301.976 420.851 296.593 424.578 292.244 424.164C288.724 423.75 285.412 422.715 280.649 421.68C274.024 425.821 273.61 425.821 268.847 421.887C262.843 422.922 258.495 423.957 253.939 424.164C248.97 424.371 244.001 423.957 242.344 430.169C242.137 430.79 241.309 430.997 240.067 431.411C245.45 421.059 245.657 410.706 240.067 399.939ZM280.235 418.574C285.619 420.023 289.76 421.68 294.108 421.887C295.764 421.887 297.628 418.781 299.284 417.124C297.421 416.089 295.557 414.019 293.694 413.812C280.442 413.605 266.984 413.605 253.732 413.605C251.455 413.605 248.97 413.605 246.278 413.605C246.278 416.917 246.278 419.195 246.278 421.887C253.732 421.68 261.393 424.785 266.363 417.124C276.094 424.371 273.195 423.75 280.235 418.574ZM295.35 411.12C295.35 410.913 295.35 410.499 295.143 410.292C278.993 410.292 262.843 410.292 246.692 410.292C246.692 410.499 246.692 410.913 246.692 411.12C263.05 411.12 279.2 411.12 295.35 411.12Z" fill="black"/>
<path d="M147.72 384.203C147.306 379.026 146.685 374.471 146.685 369.916C146.685 368.881 148.549 367.224 149.998 366.81C152.483 366.396 155.381 366.189 157.866 366.81C159.315 367.224 161.386 369.088 161.386 370.33C161.386 374.885 160.765 379.234 160.144 384.203C170.082 388.344 170.082 388.344 170.082 401.388C170.082 404.908 170.082 408.635 170.082 412.155C170.082 413.398 170.082 414.847 169.668 416.089C168.012 420.023 166.148 423.75 164.078 427.684C164.078 417.332 164.078 406.772 164.078 396.212C164.492 396.212 164.906 396.212 165.32 396.212C165.32 402.631 165.32 409.256 165.32 415.675C165.941 415.675 166.562 415.882 167.183 415.882C167.391 414.226 167.805 412.776 167.805 411.12C167.805 405.115 168.012 399.111 167.598 393.106C167.391 391.45 165.734 388.965 164.285 388.344C157.452 385.238 150.412 385.238 143.579 388.344C142.337 388.965 140.473 390 140.266 390.829C140.059 399.111 140.059 407.6 140.059 415.882C140.68 415.882 141.302 415.882 141.923 415.882C141.923 409.464 141.923 402.838 141.923 396.419C142.544 396.419 142.958 396.419 143.579 396.419C143.579 406.979 143.579 417.332 143.579 427.891C143.372 427.891 142.958 428.098 142.751 428.098C141.095 421.887 139.231 415.675 137.782 409.256C137.161 406.772 137.575 404.08 137.575 401.388C137.782 388.344 137.782 388.344 147.72 384.203ZM147.513 369.295C148.963 373.85 149.791 377.991 151.447 381.718C151.654 382.339 155.174 382.339 156.21 381.718C160.972 378.405 158.28 373.85 158.487 369.295C155.174 369.295 152.276 369.295 147.513 369.295Z" fill="black"/>
<path d="M228.886 27.8617C229.714 16.4737 226.194 7.7774 215.427 4.05042C204.453 0.323436 195.964 5.08569 190.374 14.8173C187.889 13.782 185.818 12.5397 183.334 11.7114C174.844 9.22678 165.941 14.8173 163.871 23.5136C163.249 25.9982 163.042 27.8617 159.937 28.6899C156.417 29.7252 154.553 32.624 155.174 36.558C156.002 40.6991 158.694 42.7696 162.835 42.7696C170.082 42.7696 177.329 42.7696 184.576 42.7696C184.576 43.3908 184.576 44.012 184.576 44.6331C181.884 44.8402 178.986 45.0473 176.294 45.0473C171.739 45.0473 167.183 45.0473 162.835 45.0473C158.073 44.8402 154.553 42.5626 153.311 37.8003C152.068 33.0381 153.932 29.3111 158.073 26.8264C159.522 25.9982 160.972 24.5488 161.593 23.0994C166.769 9.84795 175.466 5.91391 189.338 11.5044C190.374 10.2621 191.616 8.81268 192.858 7.57035C199.484 0.944598 207.352 -1.12595 216.048 1.77282C224.952 4.67158 230.128 11.0903 231.163 20.4077C231.577 23.7206 232.406 25.7912 235.304 28.0688C237.789 29.9323 239.653 34.6945 239.031 37.5933C238.41 40.492 234.683 44.4261 231.784 44.8402C223.916 45.8755 215.841 45.2543 207.766 45.2543C207.766 44.6331 207.559 44.219 207.559 43.5979C209.423 43.3908 211.079 43.1838 212.943 43.1838C217.705 43.1838 222.26 42.9767 227.022 43.1838C231.784 43.3908 236.133 42.3555 236.961 36.9721C237.996 31.1746 234.269 28.897 228.886 27.8617Z" fill="black"/>
<path d="M190.788 345.691C203.418 345.691 215.427 345.691 227.643 345.691C227.643 346.105 227.85 346.726 227.85 347.14C226.608 347.347 225.366 347.968 224.123 347.968C213.564 347.968 203.004 348.175 192.444 347.761C190.995 347.761 188.303 345.691 188.303 344.448C188.096 330.99 188.096 317.324 188.096 303.451C214.392 303.451 240.067 303.451 266.156 303.451C266.156 314.011 266.156 323.95 266.156 334.096C265.741 334.096 265.12 334.095 264.706 334.303C264.706 324.985 264.706 315.461 264.706 305.729C239.446 305.729 215.22 305.729 190.581 305.729C190.788 318.981 190.788 332.025 190.788 345.691Z" fill="black"/>
<path d="M425.588 186.673C427.451 189.779 428.486 191.642 429.729 193.713C429.315 194.127 428.9 194.334 428.486 194.748C425.588 191.021 422.689 187.294 419.79 183.567C415.028 185.016 413.786 187.087 416.891 191.228C418.134 192.884 419.169 194.748 420.411 196.611C419.997 197.025 419.583 197.232 418.962 197.647C417.305 195.369 415.856 192.884 413.786 191.228C411.301 188.95 411.094 181.703 405.917 185.223C400.327 189.157 407.367 191.849 408.609 195.162C409.437 197.647 411.301 199.717 412.75 201.995C412.336 202.409 411.922 202.616 411.301 203.03C410.058 201.581 408.816 200.131 407.781 198.682C402.812 191.435 397.635 184.188 392.666 176.734C391.217 174.664 389.56 172.8 387.49 175.285C386.454 176.527 386.247 179.426 387.075 180.668C394.322 191.642 401.983 202.409 409.23 213.383C410.266 214.832 410.266 217.11 410.887 218.973C408.816 218.973 406.746 219.18 404.675 219.18C403.847 219.18 402.812 218.559 401.983 218.352C394.529 215.453 393.908 215.66 393.287 223.528C392.873 223.528 392.459 223.528 391.838 223.321C392.252 221.044 392.045 218.145 393.494 216.282C394.322 215.039 397.428 214.832 399.292 215.039C402.397 215.453 405.296 216.903 409.644 218.352C405.089 211.726 401.362 206.136 397.635 200.752C393.287 194.334 388.939 188.122 384.384 181.703C381.899 178.183 382.313 175.492 386.04 173.214C389.56 170.937 392.045 171.972 394.115 175.285C396.186 178.598 398.463 181.703 400.948 185.223C404.882 182.739 408.609 179.633 412.543 185.223C416.27 181.91 419.997 180.047 423.517 184.809C431.178 180.254 431.178 180.254 436.147 187.708C437.804 190.193 439.46 192.884 441.117 195.369C440.703 195.783 440.081 195.99 439.667 196.404C436.562 192.263 433.663 188.122 430.143 183.36C428.693 184.188 427.037 185.43 425.588 186.673Z" fill="black"/>
<path d="M391.838 197.854C390.181 197.647 387.697 198.061 386.661 197.025C377.344 187.915 368.234 178.805 359.537 169.487C357.053 166.795 356.017 162.861 354.775 159.341C352.704 152.094 355.396 144.433 360.987 140.085C366.784 135.944 374.652 135.53 381.071 139.878C383.97 141.742 386.454 144.433 388.939 146.711C391.631 144.433 394.115 141.535 397.221 139.671C408.195 133.045 421.032 138.636 423.724 150.645C425.588 159.548 418.134 174.663 409.023 178.597C410.059 177.148 411.301 175.906 412.129 174.456C415.028 170.108 418.341 165.76 420.204 160.998C423.724 152.923 420.825 144.433 414.2 140.706C407.367 136.979 398.464 138.843 393.08 145.676C391.838 147.332 390.803 148.989 388.939 151.473C387.49 149.61 386.454 147.953 385.212 146.297C379.622 139.05 370.304 136.772 363.264 140.914C356.638 144.848 354.154 153.544 357.881 161.826C364.092 175.906 375.688 185.43 387.49 194.541C388.525 195.369 390.181 195.162 391.631 195.576C391.838 196.404 391.838 197.025 391.838 197.854Z" fill="black"/>
<path d="M266.57 362.048C266.57 368.467 266.57 374.885 266.57 381.304C266.57 384.617 265.12 386.066 261.807 386.066C252.904 386.066 244.208 386.066 235.304 386.066C231.784 386.066 230.335 384.203 230.335 380.89C230.335 368.052 230.335 355.215 230.335 342.585C230.335 338.858 231.992 336.994 235.719 337.201C244.208 337.201 252.697 337.201 261.186 337.201C265.327 337.201 266.777 339.065 266.777 342.999C266.363 349.211 266.57 355.629 266.57 362.048ZM263.878 339.686C253.111 339.686 243.172 339.686 233.027 339.686C233.027 354.387 233.027 368.881 233.027 383.375C243.587 383.375 253.525 383.375 263.878 383.375C263.878 368.674 263.878 354.387 263.878 339.686Z" fill="black"/>
<path d="M221.225 327.263C221.846 332.025 222.26 335.752 222.881 339.686C218.947 341.343 216.669 340.928 215.841 336.166C215.22 332.646 213.357 329.54 211.7 326.228C209.423 321.672 211.7 317.945 216.669 317.117C222.467 316.082 228.057 314.425 233.648 312.148C237.582 310.698 240.274 309.249 241.309 314.84C241.516 315.875 243.38 316.703 243.38 317.531C243.587 320.637 243.587 323.95 243.38 327.263C243.38 327.884 241.723 328.091 241.309 328.919C237.789 335.338 237.789 335.338 231.37 332.232C228.265 330.783 225.159 329.126 221.225 327.263ZM238.617 312.769C233.855 315.047 229.507 316.496 225.78 319.395C224.538 320.43 224.33 325.606 225.573 326.435C229.3 329.126 233.855 330.783 238.617 333.06C238.617 325.606 238.617 319.602 238.617 312.769ZM221.846 319.809C213.357 318.566 213.15 318.981 214.392 324.985C216.877 324.985 219.361 324.985 221.846 324.985C221.846 323.122 221.846 321.672 221.846 319.809Z" fill="black"/>
<path d="M100.305 300.553C99.4765 299.31 98.4412 298.275 97.8201 297.033C88.2956 282.953 70.2818 278.812 56.2021 287.508C41.9153 296.205 37.1531 314.218 45.6423 328.919C48.9552 334.51 45.4352 338.444 43.7788 344.034C48.9552 342.792 53.7174 341.757 58.4797 340.721C58.6867 341.343 58.6867 342.171 58.8938 342.792C52.6822 344.241 46.2635 345.691 40.0518 347.14C39.8448 346.726 39.6377 346.105 39.4307 345.691C40.2589 344.241 41.0871 342.999 41.9153 341.55C44.607 337.201 45.4352 333.267 42.7435 327.884C34.8755 312.769 40.4659 294.341 54.7527 285.438C69.2465 276.534 87.8814 279.847 98.2342 293.306C99.6836 295.169 100.719 297.24 101.754 299.31C101.133 299.932 100.719 300.346 100.305 300.553Z" fill="black"/>
<path d="M205.696 58.2987C205.696 62.6469 205.696 66.5809 205.696 70.722C205.696 74.8631 205.696 78.7971 205.696 83.5594C199.898 83.5594 194.515 83.7664 189.338 83.3523C188.303 83.3523 186.647 80.6606 186.647 79.2112C186.44 72.3784 186.44 65.3386 186.44 58.2987C183.334 58.0917 180.849 57.8846 177.122 57.4705C183.748 49.3954 189.545 41.9414 195.964 33.8663C202.383 41.9414 208.18 49.1883 214.806 57.4705C211.286 57.8846 208.801 58.0917 205.696 58.2987ZM203.418 81.0747C203.418 72.5855 203.418 64.5104 203.418 56.2282C205.696 55.8141 207.559 55.4 210.044 54.9858C205.281 48.9813 200.933 43.5978 196.171 37.5933C191.202 43.8049 187.061 49.1883 182.298 55.1929C184.99 55.607 186.647 56.0211 188.924 56.4352C188.924 64.7174 188.924 72.7925 188.924 81.2818C193.893 81.0747 198.449 81.0747 203.418 81.0747Z" fill="black"/>
<path d="M350.013 91.8416C340.074 95.7756 328.893 91.4275 322.889 82.11C316.677 72.1714 318.333 59.127 326.823 51.2589C335.519 43.1837 348.77 42.5626 358.295 49.8095C366.37 56.0211 369.89 66.995 365.749 74.449C366.577 64.5104 364.299 55.8141 355.396 50.8448C351.255 48.5672 345.665 47.1178 341.109 47.3248C329.514 48.1531 321.232 57.8846 321.439 69.4797C321.646 82.9382 329.928 89.564 350.013 91.8416Z" fill="black"/>
<path d="M388.525 356.043C380.657 355.629 374.652 348.796 375.273 340.721C375.895 333.06 382.52 327.263 390.181 327.677C398.049 328.091 403.847 334.51 403.433 342.378C403.019 350.453 396.6 356.457 388.525 356.043ZM389.146 353.766C395.565 353.766 401.155 348.589 401.362 342.171C401.569 335.752 396.393 330.162 389.974 329.954C383.142 329.747 377.551 335.131 377.551 341.757C377.551 348.382 382.727 353.559 389.146 353.766Z" fill="black"/>
<path d="M168.012 317.738C168.012 325.399 161.8 331.818 154.139 331.818C146.064 331.818 139.645 325.606 139.645 317.738C139.645 310.077 145.857 303.659 153.518 303.659C161.593 303.452 168.012 309.663 168.012 317.738ZM165.527 317.324C165.32 310.905 159.937 305.522 153.518 305.522C147.099 305.522 141.923 310.905 141.923 317.531C141.923 324.364 147.513 329.747 154.139 329.54C160.765 329.333 165.734 323.95 165.527 317.324Z" fill="black"/>
<path d="M357.26 75.4843C357.26 62.6469 353.74 56.8494 345.872 55.607C339.246 54.5718 332.827 58.2988 330.757 64.7174C328.065 72.3785 331.378 77.3478 343.387 84.1806C338.004 85.4229 332.206 82.3171 329.307 76.3125C325.994 69.4797 327.858 60.9905 333.862 56.6423C340.074 52.0871 348.356 52.2942 354.154 57.2635C359.537 61.8187 360.987 68.8585 357.26 75.4843Z" fill="black"/>
<path d="M311.915 85.0088C311.915 91.4275 306.738 96.3968 300.32 96.1898C294.315 95.9827 289.346 91.0134 289.346 84.8018C289.346 78.3831 294.522 73.4138 300.941 73.6208C307.152 73.8279 311.915 78.7972 311.915 85.0088ZM309.844 85.0088C310.051 80.2466 305.91 76.1055 301.148 75.8984C296.179 75.6913 292.037 79.6254 291.83 84.3876C291.623 89.357 295.764 93.9122 300.941 93.9122C305.496 93.9122 309.637 89.9781 309.844 85.0088Z" fill="black"/>
<path d="M238.824 88.7358C232.613 88.5287 227.85 83.5594 227.85 77.5548C227.85 71.1361 233.027 66.1668 239.446 66.3739C245.657 66.5809 250.626 71.5502 250.626 77.5548C250.419 83.7665 245.243 88.9428 238.824 88.7358ZM239.446 68.4444C234.683 68.2373 230.335 72.3784 230.128 77.1407C229.921 82.11 233.648 86.2511 238.617 86.6652C243.587 87.0793 248.142 82.7312 248.142 77.7619C248.142 72.7926 244.208 68.6515 239.446 68.4444Z" fill="black"/>
<path d="M362.229 224.357C355.81 224.357 351.255 219.594 351.255 213.383C351.255 206.757 355.81 201.788 362.436 201.788C368.648 201.788 373.824 206.964 373.617 213.383C373.203 219.594 368.233 224.357 362.229 224.357ZM362.022 204.065C357.26 204.065 352.911 208.62 352.911 213.176C352.911 217.731 357.467 222.079 362.022 222.286C366.991 222.286 371.546 217.731 371.339 212.969C371.339 208.206 366.784 203.858 362.022 204.065Z" fill="black"/>
<path d="M231.785 194.955C231.785 201.373 226.608 206.343 220.189 206.343C213.978 206.136 209.216 201.166 209.216 194.955C209.216 188.536 214.185 183.567 220.811 183.774C227.022 183.981 231.785 188.743 231.785 194.955ZM229.507 194.748C229.3 189.985 225.159 185.844 220.397 185.844C215.427 185.844 211.079 190.607 211.493 195.576C211.7 200.338 216.048 204.272 221.018 204.065C225.78 203.858 229.714 199.51 229.507 194.748Z" fill="black"/>
<path d="M91.1944 374.057C97.4061 374.057 102.582 379.441 102.375 385.652C102.168 391.657 97.4061 396.626 91.1944 396.833C84.9828 397.04 79.5994 391.864 79.5994 385.652C79.8064 379.233 84.7757 374.057 91.1944 374.057ZM91.1944 394.348C96.1638 394.348 100.098 390.414 100.098 385.238C100.098 380.269 96.1638 376.335 91.1944 376.335C86.0181 376.335 81.877 380.476 82.084 385.652C82.2911 390.621 86.2251 394.556 91.1944 394.348Z" fill="black"/>
<path d="M131.156 124.97C137.368 124.97 142.337 129.733 142.544 135.944C142.751 142.363 137.575 147.539 131.156 147.539C124.737 147.539 119.768 142.57 119.975 135.944C119.975 129.733 124.944 124.97 131.156 124.97ZM131.156 145.469C135.918 145.469 140.266 141.328 140.266 136.565C140.266 131.803 136.125 127.455 131.363 127.248C126.394 127.041 121.838 131.596 122.046 136.358C122.253 141.121 126.394 145.469 131.156 145.469Z" fill="black"/>
<path d="M132.398 290.407C132.398 295.169 128.671 298.896 123.909 298.896C119.354 298.896 115.627 295.376 115.627 290.821C115.42 286.059 119.147 282.125 123.909 282.125C128.464 281.918 132.191 285.645 132.398 290.407ZM132.605 290.407C128.671 287.508 126.187 284.402 123.909 284.609C121.631 284.817 118.319 287.922 117.904 290.2C117.076 293.927 120.182 297.033 124.116 296.412C126.601 296.205 128.671 293.306 132.605 290.407Z" fill="black"/>
<path d="M18.3112 201.374C18.3112 206.136 14.3771 209.863 9.61488 209.656C5.05967 209.449 1.53974 206.136 1.33269 201.581C1.12564 196.818 4.85262 192.884 9.61488 192.884C14.3771 192.677 18.3112 196.611 18.3112 201.374ZM18.5182 200.959C14.5842 198.268 11.8925 195.162 9.82193 195.369C7.54433 195.576 4.23145 198.889 3.81734 201.166C2.98912 204.893 6.302 207.999 10.029 207.171C12.5136 206.757 14.5842 203.858 18.5182 200.959Z" fill="black"/>
<path d="M434.698 237.815C429.936 237.815 426.209 234.295 426.209 229.326C426.209 224.564 429.936 220.837 434.698 220.837C439.253 220.837 442.773 224.564 442.98 229.119C443.187 234.088 439.46 237.815 434.698 237.815ZM443.394 229.74C439.46 226.841 437.183 223.528 434.905 223.735C432.628 223.942 429.315 226.841 428.694 229.119C427.865 232.846 430.557 235.952 434.491 235.538C436.976 235.123 439.253 232.432 443.394 229.74Z" fill="black"/>
<path d="M87.6744 182.739C87.4674 187.501 83.7404 191.021 78.7711 190.814C74.2159 190.607 70.4889 186.88 70.696 182.532C70.696 177.976 74.8371 174.042 79.3923 174.042C83.9475 174.249 87.8815 178.183 87.6744 182.739ZM80.2205 175.492C79.3923 175.492 78.564 175.492 77.5288 175.492C76.0794 177.769 72.9736 180.461 73.3877 182.532C73.5947 184.809 76.7006 188.122 79.1852 188.536C82.7051 189.157 85.811 186.052 85.1898 182.117C84.5686 179.84 82.084 177.769 80.2205 175.492Z" fill="black"/>
<path d="M187.475 381.304C183.748 364.74 173.809 354.801 155.588 351.281C168.012 348.382 188.924 363.912 187.475 381.304Z" fill="black"/>
<path d="M119.768 380.062C117.283 367.638 136.332 348.382 148.963 350.66C143.165 353.973 135.711 356.872 130.742 361.841C125.773 367.017 123.081 374.471 119.768 380.062Z" fill="black"/>
<path d="M107.345 260.798C107.345 264.732 104.239 268.045 100.305 268.045C96.3708 268.045 93.0579 264.732 93.2649 260.798C93.472 256.657 95.9566 254.172 100.098 253.965C104.239 253.551 107.345 256.657 107.345 260.798ZM100.305 254.172C98.2342 257.278 95.7496 259.349 95.9566 260.798C96.3708 262.662 99.0625 264.111 100.719 265.56C102.168 263.904 104.653 262.248 104.86 260.591C105.067 258.935 102.582 257.071 100.305 254.172Z" fill="black"/>
<path d="M140.681 30.1393C136.746 30.1393 133.434 27.0335 133.434 23.0995C133.641 18.9584 135.918 16.4737 140.059 16.0596C143.993 15.6455 147.306 18.9584 147.513 22.8924C147.72 26.6194 144.615 29.9323 140.681 30.1393ZM147.306 22.8924C144.2 20.6148 142.13 18.1301 140.681 18.5443C138.817 18.9584 137.368 21.6501 135.711 23.3065C137.368 24.7559 138.817 27.4476 140.681 27.4476C142.337 27.6547 144.2 25.17 147.306 22.8924Z" fill="black"/>
<path d="M241.309 1.15167C245.243 1.35873 248.349 4.6716 248.142 8.60564C247.935 12.5397 244.622 15.6455 240.688 15.2314C236.547 14.8173 234.269 12.3326 234.062 8.19153C234.062 4.2575 237.375 1.15167 241.309 1.15167ZM247.728 7.98447C244.622 5.91393 242.344 3.42927 240.895 3.84338C239.031 4.46455 237.789 6.9492 236.133 8.8127C237.789 10.2621 239.446 12.7467 241.309 12.7467C243.173 12.7467 244.829 10.4691 247.728 7.98447Z" fill="black"/>
<path d="M63.242 69.6868C67.1761 69.6868 70.2819 72.9996 70.0748 77.1407C69.6607 81.2818 67.3831 83.5594 63.242 83.7665C59.308 83.9736 55.9951 80.6607 55.9951 76.7266C55.9951 72.5855 59.308 69.4797 63.242 69.6868ZM62.8279 83.3524C65.3126 80.4536 67.7972 78.3831 67.5902 76.9337C67.1761 75.0702 64.6914 73.4138 63.035 71.7573C61.3785 73.4138 58.8939 74.8632 58.6868 76.5196C58.4798 78.176 60.7574 80.2466 62.8279 83.3524Z" fill="black"/>
<path d="M338.832 299.103C342.973 299.103 345.872 302.416 345.665 306.35C345.458 310.491 342.973 312.769 338.832 313.183C334.898 313.39 331.585 310.077 331.585 306.143C331.792 302.002 334.898 298.896 338.832 299.103ZM331.999 306.35C335.312 308.421 337.175 310.698 338.832 310.491C340.695 310.284 341.938 307.593 343.594 306.143C341.938 304.487 340.281 302.002 338.211 301.588C336.968 301.381 335.105 304.073 331.999 306.35Z" fill="black"/>
<path d="M31.1485 304.073C31.1485 308.007 28.0426 311.319 24.1086 311.319C19.9675 311.319 16.8617 308.214 17.0687 304.28C17.2758 300.139 19.5534 297.654 23.6945 297.24C27.6285 297.033 31.1485 300.139 31.1485 304.073ZM24.1086 297.447C21.831 300.553 19.1393 302.623 19.5534 304.073C19.9675 305.936 22.6592 307.385 24.3157 309.042C25.765 307.385 28.2497 305.936 28.4567 304.073C28.6638 302.623 26.3862 300.76 24.1086 297.447Z" fill="black"/>
<path d="M39.2237 121.45C39.2237 125.384 35.9108 128.49 31.9768 128.283C27.8357 128.076 25.351 125.591 25.144 121.45C24.9369 117.516 28.2498 114.203 31.9768 114.203C35.9108 114.203 39.2237 117.516 39.2237 121.45ZM38.8096 121.036C35.7038 118.966 33.6332 116.688 32.1838 116.895C30.3203 117.102 28.871 119.587 27.4216 121.243C29.078 122.9 30.5274 125.384 32.5979 125.799C33.8403 126.006 35.7038 123.521 38.8096 121.036Z" fill="black"/>
<path d="M182.505 438.451C178.571 438.658 175.259 435.552 175.259 431.411C175.259 427.27 177.536 424.578 181.677 424.371C186.232 423.957 188.717 426.442 189.338 430.997C189.752 434.931 186.439 438.451 182.505 438.451ZM182.091 424.785C180.021 427.891 177.743 429.755 177.95 431.411C178.157 433.068 180.849 434.517 182.298 436.173C183.955 434.517 186.439 432.861 186.647 430.997C186.854 429.548 184.369 427.684 182.091 424.785Z" fill="black"/>
<path d="M141.923 157.892C145.857 157.892 149.17 161.205 148.756 165.139C148.341 169.28 146.064 171.558 141.923 171.972C137.989 172.179 134.883 168.866 134.883 164.932C134.676 160.791 137.782 157.685 141.923 157.892ZM148.549 164.725C145.236 162.447 143.372 160.17 141.716 160.377C139.852 160.584 138.403 163.068 136.953 164.725C138.61 166.381 140.059 168.866 142.13 169.28C143.372 169.487 145.443 167.002 148.549 164.725Z" fill="black"/>
<path d="M412.543 132.424C408.609 132.217 405.503 129.111 405.71 124.97C405.918 120.829 408.402 118.552 412.543 118.345C416.477 118.138 419.79 121.45 419.79 125.384C419.79 129.318 416.477 132.424 412.543 132.424ZM419.583 125.177C416.477 122.9 414.614 120.622 412.957 120.622C411.094 120.829 409.645 123.314 407.988 124.763C409.645 126.42 411.094 129.111 412.957 129.526C414.407 129.94 416.477 127.455 419.583 125.177Z" fill="black"/>
<path d="M298.456 298.896C302.39 298.896 305.703 302.002 305.703 305.936C305.703 309.87 302.39 313.183 298.456 312.976C294.315 312.769 291.83 310.491 291.623 306.143C291.416 302.416 294.522 299.103 298.456 298.896ZM305.496 306.143C302.39 303.866 300.734 301.381 299.077 301.381C297.214 301.381 295.764 304.073 293.901 305.522C295.557 307.178 296.8 309.87 298.663 310.491C300.113 310.905 302.183 308.421 305.496 306.143Z" fill="black"/>
<path d="M352.497 183.153C352.497 187.294 349.185 190.193 345.25 189.986C341.316 189.778 338.211 186.259 338.625 182.532C339.039 178.39 341.524 176.113 345.665 175.906C349.599 175.699 352.704 179.012 352.497 183.153ZM345.25 189.571C347.735 186.466 350.427 184.602 350.013 183.153C349.599 181.289 347.114 179.633 345.458 177.976C343.801 179.633 341.316 180.875 341.109 182.739C340.902 184.395 343.18 186.466 345.25 189.571Z" fill="black"/>
<path d="M157.038 359.977C167.805 358.114 180.021 370.33 178.571 381.511C175.88 370.123 168.633 362.876 157.038 359.977Z" fill="black"/>
<path d="M128.878 381.511C128.05 370.123 138.61 359.563 150.412 359.77C139.438 363.083 131.777 369.916 128.878 381.511Z" fill="black"/>
<path d="M235.304 435.552C228.057 444.456 212.114 444.456 204.453 435.966C214.599 441.35 224.952 442.178 235.304 435.552Z" fill="black"/>
<path d="M204.66 396.005C212.114 387.309 228.058 387.309 235.304 396.005C224.952 390.414 214.806 389.793 204.66 396.005Z" fill="black"/>
<path d="M299.491 279.64C299.284 283.574 298.87 287.301 298.663 291.235C298.249 291.235 297.835 291.235 297.628 291.235C297.628 286.887 297.628 282.539 297.628 277.777C299.491 277.777 301.769 277.777 304.047 277.777C304.047 282.332 304.047 286.68 304.047 291.028C303.633 291.028 303.218 291.028 302.804 291.028C302.39 287.094 301.976 283.16 301.562 279.226C300.941 279.64 300.32 279.64 299.491 279.64Z" fill="black"/>
<path d="M199.691 400.767C193.894 410.913 194.101 421.058 200.933 432.239C191.409 425.407 191.202 408.428 199.691 400.767Z" fill="black"/>
<path d="M120.389 388.344C122.253 398.697 127.843 406.565 136.746 413.605C127.222 411.327 118.733 397.661 120.389 388.344Z" fill="black"/>
<path d="M171.946 412.983C180.021 406.565 185.197 398.49 187.061 388.344C189.338 396.626 181.056 410.499 171.946 412.983Z" fill="black"/>
<path d="M238.617 433.896C233.234 428.72 228.057 423.336 222.674 418.16C222.467 418.367 222.053 418.781 221.846 418.988C227.022 424.371 232.199 429.755 237.375 435.138C237.789 434.724 238.203 434.31 238.617 433.896Z" fill="black"/>
<path d="M201.762 434.931C207.145 429.755 212.321 424.371 217.705 419.195C217.498 418.988 217.291 418.781 217.084 418.574C211.286 423.543 205.696 428.305 199.898 433.275C200.519 433.689 201.14 434.31 201.762 434.931Z" fill="black"/>
<path d="M237.789 396.833C232.613 402.217 227.436 407.6 222.053 412.983C222.467 413.397 222.881 413.812 223.295 414.226C228.679 409.049 234.062 403.873 239.446 398.697C239.031 398.075 238.41 397.454 237.789 396.833Z" fill="black"/>
<path d="M200.726 398.075C206.11 403.252 211.493 408.635 216.877 413.812C217.291 413.397 217.498 413.19 217.912 412.776C212.735 407.393 207.352 402.217 202.176 396.833C201.555 397.247 201.14 397.661 200.726 398.075Z" fill="black"/>
<path d="M326.615 76.7266C330.757 83.1453 336.554 86.8723 344.836 87.2864C338.418 91.2204 328.065 85.0088 326.615 76.7266Z" fill="black"/>
<path d="M360.987 61.6116C356.846 54.9859 350.841 51.2589 342.145 50.8448C349.392 47.3248 358.916 52.9153 360.987 61.6116Z" fill="black"/>
<path d="M234.683 407.186C239.238 411.12 239.445 419.402 234.683 424.786C234.683 418.988 234.683 412.983 234.683 407.186Z" fill="black"/>
<path d="M196.999 385.445C187.889 385.445 178.778 385.445 169.668 385.445C169.668 385.031 169.668 384.824 169.668 384.41C178.778 384.41 187.682 384.41 196.792 384.41C196.792 384.617 196.792 385.031 196.999 385.445Z" fill="black"/>
<path d="M155.174 427.891C154.76 425.614 154.346 423.129 154.139 420.851C153.932 420.851 153.725 420.851 153.518 420.851C153.104 423.129 152.897 425.614 152.276 429.548C149.377 419.816 150.412 417.746 156.624 418.574C156.624 421.68 156.624 424.786 156.624 427.684C156.21 427.684 155.795 427.684 155.174 427.891Z" fill="black"/>
<path d="M228.886 401.181C222.881 401.181 216.877 401.181 211.286 401.181C215.22 396.419 223.295 396.419 228.886 401.181Z" fill="black"/>
<path d="M205.074 406.979C205.074 412.776 205.074 418.781 205.074 424.164C200.312 421.68 200.312 411.741 205.074 406.979Z" fill="black"/>
<path d="M211.286 430.79C216.67 430.79 222.674 430.79 228.058 430.79C225.366 435.552 215.013 435.552 211.286 430.79Z" fill="black"/>
<path d="M124.323 385.652C134.958 385.652 143.579 385.281 143.579 384.824C143.579 384.367 134.958 383.996 124.323 383.996C113.688 383.996 105.067 384.367 105.067 384.824C105.067 385.281 113.688 385.652 124.323 385.652Z" fill="black"/>
<path d="M171.946 402.424C174.43 397.247 176.501 392.899 178.778 388.344C180.021 393.313 177.536 399.111 171.946 402.424Z" fill="black"/>
<path d="M153.311 364.326C153.311 356.872 153.311 349.418 153.311 341.964C153.725 341.964 153.932 341.964 154.346 341.964C154.346 349.418 154.346 356.872 154.346 364.326C153.932 364.326 153.518 364.326 153.311 364.326Z" fill="black"/>
<path d="M133.434 402.838C131.363 398.282 129.292 393.727 127.222 389.172C127.843 388.965 128.257 388.551 128.878 388.344C130.949 392.899 133.227 397.247 135.297 401.802C134.676 402.217 134.055 402.631 133.434 402.838Z" fill="black"/>
<path d="M183.955 73.6208C183.955 78.176 183.955 82.5241 183.955 87.0793C183.541 87.0793 183.127 87.0793 182.713 87.0793C182.713 82.5241 182.713 77.9689 182.713 73.6208C183.334 73.6208 183.748 73.6208 183.955 73.6208Z" fill="black"/>
<path d="M208.387 86.8723C208.387 82.5241 208.387 77.9689 208.387 73.6208C208.801 73.6208 209.008 73.6208 209.423 73.6208C209.423 77.9689 209.423 82.5241 209.423 86.8723C209.008 86.6652 208.594 86.8723 208.387 86.8723Z" fill="black"/>
<path d="M306.531 139.878C305.289 141.328 304.047 142.777 302.804 144.019C304.254 145.055 305.703 146.09 306.945 147.125C309.223 148.989 311.294 151.059 313.364 153.13C312.95 153.544 312.743 153.958 312.329 154.372C309.637 152.302 306.945 150.231 304.047 148.16C303.633 148.368 303.011 148.782 302.597 148.989C303.632 154.579 304.668 160.17 305.496 165.76C301.355 165.139 301.355 165.139 302.183 156.443C299.077 163.69 295.557 168.659 287.689 168.659C279.821 168.659 276.094 163.897 273.403 156.857C271.953 160.17 276.922 165.967 269.676 165.967C270.711 160.17 271.746 154.579 272.781 148.989C272.367 148.575 271.953 148.368 271.539 147.953C268.64 150.024 265.949 152.094 263.05 154.165C262.636 153.751 262.429 153.544 262.015 153.13C264.085 151.059 265.949 148.989 268.019 147.125C269.468 145.883 270.918 144.848 272.367 143.605C271.125 142.363 269.676 140.914 268.226 139.464C268.226 136.98 268.226 133.874 268.226 130.561C274.438 130.354 270.711 135.323 270.918 138.843C277.958 136.772 276.922 129.733 280.235 125.799C279.2 124.97 278.372 124.142 277.544 123.314C277.751 122.9 277.958 122.693 278.165 122.279C281.271 123.728 284.376 126.213 287.689 126.213C290.795 126.213 293.694 123.728 297.421 123.107C296.593 123.935 295.764 124.97 294.729 126.006C297.214 130.354 299.906 134.909 302.39 139.464C303.425 131.596 303.425 131.596 306.945 130.768C306.945 133.667 306.738 136.772 306.531 139.878ZM275.887 136.98C274.438 145.883 274.438 153.337 277.751 160.377C279.614 164.311 282.72 166.174 287.068 166.381C291.416 166.588 294.936 165.346 297.214 161.619C301.148 154.165 301.148 146.297 299.491 136.772C291.416 142.777 283.962 142.156 275.887 136.98ZM295.557 133.874C293.073 134.288 290.381 135.116 287.896 135.116C285.205 135.116 282.513 134.288 279.821 133.874C286.033 140.499 289.76 140.292 295.557 133.874ZM280.442 129.318C288.518 133.667 289.346 133.667 295.143 129.318C289.967 129.318 285.205 129.318 280.442 129.318Z" fill="black"/>
<path d="M284.376 322.086C310.879 322.086 336.554 322.086 363.264 322.086C363.264 326.849 363.264 331.611 363.264 336.166C363.264 346.105 363.264 356.043 363.264 365.982C363.264 369.295 362.229 370.744 358.709 370.537C335.312 370.33 312.122 370.537 288.725 370.537C286.24 370.537 284.169 370.537 284.169 367.224C284.376 352.523 284.376 337.616 284.376 322.086ZM286.861 368.053C311.708 368.053 335.933 368.053 360.365 368.053C360.365 353.352 360.365 339.065 360.365 324.571C335.726 324.571 311.293 324.571 286.861 324.571C286.861 339.272 286.861 353.352 286.861 368.053Z" fill="black"/>
<path d="M294.936 33.2451C294.936 45.8755 285.205 55.8141 272.574 55.8141C259.944 56.0212 249.384 45.6684 249.384 33.0381C249.384 20.8219 259.737 10.4691 271.953 10.2621C284.376 10.2621 294.729 20.6148 294.936 33.2451ZM287.896 32.624C287.689 23.9277 280.028 16.8878 271.539 17.509C262.843 17.9231 256.01 25.5841 256.424 34.0734C256.838 42.7697 264.085 49.3954 272.988 49.1884C281.685 48.5672 288.31 41.7344 287.896 32.624ZM289.967 25.9982C287.275 16.6808 277.751 11.2974 268.433 13.1608C258.288 15.2314 251.041 24.1347 251.662 34.0734C252.283 44.2191 259.737 52.2942 269.676 53.3295C279.407 54.3647 287.896 49.3954 289.967 42.1485C285.619 44.8402 280.856 48.9813 275.266 50.6377C268.847 52.7083 262.636 50.0166 258.288 44.6332C252.283 37.1792 252.697 26.4123 259.944 20.2007C263.05 17.509 267.398 15.6455 271.539 15.2314C279.614 14.4032 285.205 19.5795 289.967 25.9982Z" fill="black"/>
<path d="M125.565 181.703C138.61 181.496 148.341 191.228 148.548 204.479C148.756 217.524 138.817 227.048 124.944 227.048C112.935 227.048 103.411 216.903 103.203 204.065C103.203 192.056 113.349 181.91 125.565 181.703ZM126.187 188.743C117.283 188.743 110.45 195.369 110.243 204.272C110.243 213.176 117.283 220.423 126.187 220.63C134.262 220.837 142.13 212.554 141.923 204.065C141.923 195.99 134.469 188.743 126.187 188.743ZM143.786 213.176C139.438 215.867 135.09 219.387 130.121 221.458C124.323 223.735 118.733 222.079 113.97 217.731C107.138 211.519 105.895 201.581 111.072 194.127C115.213 188.122 121.217 184.602 128.05 186.466C133.848 188.122 139.024 192.263 143.579 194.748C141.094 187.294 132.605 182.532 122.46 183.981C113.142 185.223 105.688 193.92 105.688 203.651C105.688 214.211 112.521 222.286 123.495 224.357C131.984 226.427 140.68 221.251 143.786 213.176Z" fill="black"/>
<path d="M362.229 274.464C362.229 258.314 375.688 245.062 391.838 245.062C407.988 245.269 421.24 258.314 421.24 274.671C421.24 290.821 407.988 304.073 391.631 304.073C375.273 304.073 362.229 290.821 362.229 274.464ZM406.539 276.12C405.711 279.847 405.089 283.574 404.261 287.301C407.16 288.751 409.852 289.993 413.579 292.063C415.649 286.68 417.306 281.711 419.376 276.12C414.2 276.12 410.473 276.12 406.539 276.12ZM369.683 257.278C367.612 262.662 365.749 267.631 363.678 273.221C369.062 273.221 372.789 273.221 376.723 273.221C377.551 269.287 378.172 265.56 378.793 262.04C376.102 260.591 373.617 259.142 369.683 257.278ZM413.579 257.278C409.437 259.349 406.953 260.798 404.261 262.248C405.089 266.182 405.918 269.701 406.746 273.221C410.887 273.221 414.614 273.221 419.79 273.221C417.513 267.631 415.649 262.662 413.579 257.278ZM369.683 292.063C373.617 289.993 376.309 288.751 378.793 287.301C376.723 274.671 375.273 273.636 363.885 277.155C365.749 281.918 367.612 286.68 369.683 292.063ZM401.776 262.869C398.464 263.283 395.772 263.697 393.08 264.111C393.08 267.424 393.08 270.116 393.08 273.221C396.807 273.221 399.913 273.221 404.054 273.221C403.226 269.494 402.605 266.389 401.776 262.869ZM393.08 276.12C393.08 279.433 393.08 282.332 393.08 285.231C395.979 285.645 398.464 285.852 401.776 286.266C402.398 282.953 403.226 279.64 403.847 276.12C400.12 276.12 396.807 276.12 393.08 276.12ZM390.181 276.12C386.661 276.12 383.349 276.12 379.415 276.12C380.036 279.64 380.864 282.953 381.485 286.473C384.798 286.059 387.49 285.645 390.181 285.231C390.181 281.918 390.181 279.226 390.181 276.12ZM381.071 262.869C380.45 266.596 379.829 269.702 379.415 273.014C383.556 273.014 386.661 273.014 389.974 273.014C389.974 269.909 389.974 267.01 389.974 263.904C387.283 263.697 384.798 263.283 381.071 262.869ZM403.433 289.579C400.741 293.72 398.257 297.24 395.772 300.967C395.979 301.381 396.393 301.795 396.6 302.002C401.362 299.517 406.125 297.033 411.922 293.927C408.195 292.063 405.918 290.821 403.433 289.579ZM386.454 302.002C386.661 301.588 387.076 301.174 387.283 300.76C384.798 297.033 382.313 293.513 379.622 289.579C377.137 290.821 375.066 292.063 371.132 294.134C377.137 297.24 381.899 299.724 386.454 302.002ZM410.473 256.243C410.473 255.622 410.68 255.001 410.68 254.379C405.918 252.102 401.362 249.824 396.6 247.547C396.393 247.961 396.186 248.375 395.979 248.789C398.257 252.309 400.741 255.829 403.226 259.556C405.918 258.521 408.195 257.278 410.473 256.243ZM379.622 259.763C382.313 255.829 384.798 252.102 387.283 248.375C387.076 247.961 386.661 247.547 386.454 247.34C381.899 249.824 377.137 252.309 371.339 255.415C374.859 257.278 376.93 258.313 379.622 259.763ZM381.899 260.591C385.626 261.005 387.697 261.212 389.974 261.419C389.974 257.485 389.974 254.172 389.974 248.996C386.869 253.551 384.798 256.45 381.899 260.591ZM401.362 260.591C398.464 256.45 396.186 253.551 394.115 250.445C393.701 250.652 393.494 250.86 393.08 251.274C393.08 254.587 393.08 257.899 393.08 261.626C395.565 261.212 397.842 261.005 401.362 260.591ZM401.362 288.751C397.635 288.543 395.358 288.336 393.08 288.129C393.08 292.063 393.08 295.376 393.08 298.482C393.494 298.689 393.701 298.896 394.115 298.896C396.393 295.997 398.464 292.892 401.362 288.751ZM381.899 288.751C384.798 292.892 387.076 295.997 389.146 298.896C389.56 298.689 389.767 298.482 390.181 298.275C390.181 294.962 390.181 291.442 390.181 287.715C387.49 288.129 385.419 288.336 381.899 288.751Z" fill="black"/>
<path d="M165.527 223.942C184.162 223.942 201.347 223.942 218.533 223.942C222.674 223.942 226.815 223.942 230.956 223.735C234.269 223.528 235.719 224.564 235.719 228.084C235.511 245.89 235.511 263.904 235.719 281.711C235.719 284.609 234.683 285.852 231.784 285.852C210.872 285.852 189.959 285.852 169.254 285.645C168.012 285.645 165.734 283.781 165.734 282.746C165.527 263.49 165.527 244.027 165.527 223.942ZM233.027 226.634C231.784 226.427 230.749 226.427 229.921 226.427C210.665 226.22 191.202 226.22 171.946 226.013C167.598 226.013 167.598 228.291 167.598 231.396C167.805 247.34 167.805 263.283 167.805 279.226C167.805 280.468 168.012 281.711 168.219 283.16C189.959 283.16 211.286 283.16 232.82 283.16C233.027 264.318 233.027 245.89 233.027 226.634Z" fill="black"/>
<path d="M118.733 115.653C96.992 115.653 79.5994 98.4674 79.5994 76.7266C79.5994 54.5718 96.7849 37.1792 118.733 37.1792C140.681 37.1792 157.866 54.3647 157.866 76.1055C158.073 98.2603 140.888 115.653 118.733 115.653ZM135.297 59.127C136.332 64.7175 137.368 69.6868 138.403 74.8631C144.2 74.8631 149.791 74.8631 155.174 74.8631C155.795 66.3739 152.276 57.8847 146.685 53.3295C142.958 55.193 139.231 57.0564 135.297 59.127ZM82.4981 78.176C81.877 86.0441 85.1898 94.3263 90.7803 99.5027C94.5073 97.6392 98.4413 95.5686 101.961 93.7051C99.4766 76.3125 99.0625 75.8984 83.3264 77.7619C83.1193 77.7619 83.1193 77.969 82.4981 78.176ZM102.168 59.127C98.0272 57.0564 94.3003 55.1929 90.1592 53.1224C84.9828 59.5411 82.084 66.581 82.084 74.8631C88.2957 74.8631 93.8861 74.8631 99.2696 74.8631C100.305 69.4797 101.133 64.5104 102.168 59.127ZM147.099 99.7097C152.69 93.4981 155.381 86.2511 155.381 77.969C149.17 77.969 143.579 77.969 137.989 77.969C137.575 80.8677 137.368 83.5594 136.746 86.0441C136.332 88.5288 135.711 91.0134 135.09 93.7051C139.231 95.7757 143.165 97.6392 147.099 99.7097ZM102.789 74.6561C117.697 76.7266 120.596 73.8279 116.662 61.6116C103.411 59.7482 101.34 61.6116 102.789 74.6561ZM101.754 78.176C102.789 82.9383 102.997 87.9076 105.274 91.6346C106.102 93.084 111.693 91.6346 115.006 91.6346C115.627 91.6346 116.455 91.4275 117.076 91.2205C119.768 78.5901 118.733 77.3478 106.724 77.7619C105.274 77.5549 104.032 77.7619 101.754 78.176ZM120.182 92.0487C124.944 91.6346 130.535 92.8769 132.812 90.5993C135.297 88.1146 134.883 82.5242 135.711 77.969C129.707 77.969 124.944 77.969 119.768 77.969C119.768 81.2818 119.768 83.9736 119.768 86.8723C119.768 88.1146 119.975 89.357 120.182 92.0487ZM120.596 61.8187C117.904 74.449 118.94 75.6914 131.156 75.2773C132.398 75.2773 133.641 75.0702 135.711 74.8631C134.883 70.515 134.469 66.581 133.434 62.6469C133.227 61.6116 131.156 60.3693 129.914 60.3693C126.808 60.5764 123.702 61.1975 120.596 61.8187ZM92.2297 101.573C98.0272 108.613 107.138 112.961 113.97 112.34C110.243 106.957 106.724 101.78 102.789 96.1898C99.2696 97.8462 95.7496 99.7097 92.2297 101.573ZM123.081 113.168C132.191 111.926 139.231 108.406 145.857 101.78C141.716 99.7097 138.196 97.8462 134.676 96.1898C130.742 101.78 127.015 107.164 123.081 113.168ZM102.997 56.6423C107.138 50.6377 110.658 45.4614 114.592 39.6638C105.481 40.9062 98.4413 44.2191 92.0226 51.0519C95.9567 53.1224 99.4766 54.9859 102.997 56.6423ZM145.857 51.0519C139.024 44.6332 131.984 40.4921 122.874 39.8709C126.808 45.6684 130.535 50.8448 134.676 56.8494C137.989 54.9859 141.509 53.1224 145.857 51.0519ZM120.182 110.269C120.596 110.477 121.01 110.684 121.424 110.891C124.737 105.921 128.257 101.159 132.398 95.1545C127.429 94.5333 123.909 94.1192 120.182 93.7051C120.182 99.7097 120.182 105.093 120.182 110.269ZM120.182 59.334C124.323 58.7129 127.843 58.0917 132.605 57.4706C128.464 51.673 124.944 46.9108 121.631 42.1485C121.217 42.3556 120.803 42.5626 120.389 42.9767C120.182 47.946 120.182 53.1224 120.182 59.334ZM117.49 42.7697C117.076 42.5626 116.455 42.1485 116.041 41.9415C112.728 46.9108 109.208 51.673 105.067 57.6776C110.036 58.2988 113.556 58.7129 117.49 59.127C117.49 53.1224 117.49 47.946 117.49 42.7697ZM116.041 110.891C116.455 110.684 116.869 110.477 117.283 110.269C117.283 104.886 117.283 99.7097 117.283 93.7051C113.349 94.1192 109.829 94.5333 105.067 95.3616C109.208 101.159 112.521 105.921 116.041 110.891Z" fill="black"/>
<path d="M234.476 341.55C244.001 341.55 252.697 341.55 261.807 341.55C261.807 353.559 261.807 365.361 261.807 377.577C253.525 377.577 245.657 377.784 237.789 377.37C236.547 377.37 234.476 375.299 234.476 374.264C234.476 363.497 234.476 352.938 234.476 341.55ZM259.737 344.034C252.076 344.034 244.829 344.034 237.375 344.034C237.375 354.594 237.375 364.74 237.375 374.885C245.036 374.885 252.283 374.885 259.737 374.885C259.737 364.326 259.737 354.18 259.737 344.034Z" fill="black"/>
<path d="M344.422 330.161C347.114 330.161 349.392 329.747 351.462 330.369C352.704 330.576 354.361 332.232 354.361 333.267C354.568 344.034 354.568 354.801 354.568 365.982C350.841 365.982 347.735 365.982 344.422 365.982C344.422 354.18 344.422 342.585 344.422 330.161ZM346.286 332.853C346.286 335.131 346.286 336.58 346.286 338.03C346.286 345.276 346.079 352.73 346.493 359.977C346.493 361.427 348.563 362.669 349.599 363.911C350.427 362.669 352.29 361.427 352.29 359.977C352.497 351.488 352.497 342.999 352.29 334.717C352.29 334.096 351.876 333.267 351.669 332.853C349.806 332.853 348.356 332.853 346.286 332.853Z" fill="black"/>
<path d="M337.175 365.982C333.655 365.982 330.55 365.982 327.237 365.982C327.237 356.872 327.237 348.175 327.237 339.065C330.55 339.065 333.655 339.065 337.175 339.065C337.175 348.175 337.175 356.872 337.175 365.982ZM335.312 352.523C335.312 349.625 335.519 346.933 335.105 344.034C334.898 342.999 333.241 341.757 331.999 341.343C331.378 341.136 329.514 342.999 329.514 344.034C329.307 349.625 329.307 355.215 329.514 360.806C329.514 361.841 331.378 362.876 332.413 363.912C333.448 362.876 335.105 362.048 335.312 360.806C335.519 358.114 335.312 355.215 335.312 352.523Z" fill="black"/>
<path d="M320.611 366.189C316.677 366.189 313.778 366.189 310.051 366.189C310.051 360.599 309.844 355.215 310.258 349.832C310.465 348.796 313.778 347.347 315.642 347.347C317.298 347.347 320.197 349.004 320.197 350.246C320.818 355.215 320.611 360.392 320.611 366.189ZM312.536 349.625C312.536 353.766 312.329 357.493 312.536 361.22C312.536 362.048 313.778 363.29 314.813 363.704C315.642 363.911 317.712 363.29 317.712 363.083C318.126 358.735 318.333 354.387 318.54 349.625C316.056 349.625 314.606 349.625 312.536 349.625Z" fill="black"/>
<path d="M303.218 366.189C299.906 366.189 297.007 366.189 293.487 366.189C293.487 362.876 293.487 359.977 293.487 356.25C296.593 356.25 299.698 356.25 303.218 356.25C303.218 359.356 303.218 362.462 303.218 366.189ZM298.663 365.775C300.113 363.29 301.355 361.841 301.148 360.806C300.941 359.77 299.284 358.528 298.042 358.321C297.421 358.114 295.764 360.184 295.764 361.013C295.764 362.255 297.007 363.29 298.663 365.775Z" fill="black"/>
<path d="M262.636 39.4568C261.186 37.3862 258.495 35.1086 258.702 33.2451C258.909 31.3816 261.807 28.6899 264.085 28.4829C265.534 28.2758 268.64 31.3816 268.64 33.2451C268.64 35.3157 266.363 37.3862 264.913 39.4568C264.292 39.4568 263.464 39.4568 262.636 39.4568Z" fill="black"/>
<path d="M125.358 204.272C121.838 206.964 119.561 209.449 117.697 209.449C115.834 209.242 112.728 206.343 112.521 204.686C112.521 202.823 115.42 199.717 117.283 199.51C119.147 199.096 121.424 201.788 125.358 204.272ZM121.424 204.686C119.768 203.237 118.526 201.581 117.697 201.788C116.455 201.995 115.213 203.444 114.799 204.686C114.592 205.308 116.455 207.171 117.49 207.378C118.526 207.378 119.561 205.929 121.424 204.686Z" fill="black"/>
<path d="M200.726 235.123C212.114 235.123 220.811 243.613 221.018 254.794C221.225 265.975 211.907 275.292 200.519 275.085C189.338 275.085 180.642 265.975 180.435 255.001C180.021 246.719 188.924 233.674 200.726 235.123ZM200.933 272.807C210.872 272.6 218.74 264.525 218.74 254.794C218.533 245.269 209.837 236.573 200.519 236.78C190.995 236.987 182.712 245.476 182.92 255.208C182.712 264.939 190.995 272.807 200.933 272.807Z" fill="black"/>
<path d="M242.551 349.211C247.314 352.109 251.041 354.387 255.803 357.286C251.041 360.184 247.106 362.462 242.551 365.361C242.551 359.563 242.551 355.215 242.551 349.211Z" fill="black"/>
<path d="M192.237 268.252C192.237 258.935 192.237 250.86 192.237 241.749C199.898 246.304 206.731 250.238 214.392 255.001C206.524 259.556 199.898 263.49 192.237 268.252ZM194.515 245.683C194.515 252.309 194.515 257.692 194.515 264.111C199.898 260.798 204.66 258.106 209.837 254.794C204.453 251.688 199.898 248.996 194.515 245.683Z" fill="black"/>
</svg>
