<svg width="95" height="92" viewBox="0 0 95 92" fill="none" xmlns="http://www.w3.org/2000/svg">
<path d="M71.9118 31.9841H64.8412V37.4797H71.9118V31.9841Z" fill="white"/>
<path d="M68.9965 40.7302C67.12 41.769 65.277 42.8078 63.4004 43.8131C63.1658 43.9471 62.8978 44.0476 62.6632 44.1482C62.4286 44.2487 62.1941 44.2822 61.993 44.4162C60.9877 45.0194 60.0159 45.6561 59.0441 46.2593C58.7091 46.4603 58.374 46.6614 58.0054 46.896C59.5468 47.5997 61.0547 48.2363 62.5292 48.9065C65.6791 50.3475 68.829 51.8219 71.9789 53.2628C72.0794 53.2963 72.18 53.2963 72.2805 53.3298C73.0512 53.6649 73.8554 54 74.6262 54.3686C75.1623 54.6032 75.6985 54.8713 76.2346 55.1058C77.2734 55.6085 78.3122 56.1111 79.3845 56.5803C79.3845 56.6138 79.418 56.6473 79.418 56.6808V56.7143C79.418 56.9154 79.418 57.1164 79.418 57.3175C79.3845 58.6914 78.8149 59.261 77.441 59.261C73.6209 59.261 69.7673 59.2275 65.9471 59.2275C63.1994 59.2275 60.418 59.2945 57.6703 59.3281C57.2346 59.3281 56.799 59.4621 56.3634 59.5291C55.6262 58.2893 54.8219 57.0829 54.1182 55.8095C52.7778 53.4303 51.5045 50.9841 50.1976 48.6049C49.9295 48.1023 49.5274 47.6332 49.2258 47.164C49.1588 46.8289 49.0583 46.4938 49.0247 46.1587C48.9912 45.9577 49.0918 45.7231 49.1253 45.5221C52.3757 41.2328 55.6262 36.9436 58.9771 32.5538C55.6262 32.5538 52.4762 32.5538 49.1253 32.5538C49.1253 26.9242 49.1253 21.3281 49.1253 15.7319C49.2258 15.7654 49.3598 15.7319 49.3934 15.799C50.7673 17.575 52.0741 19.418 53.515 21.1605C54.4868 22.3333 55.5927 23.4057 56.5644 24.5785C57.4357 25.5838 58.2399 26.6896 59.1447 27.7954C63.6685 27.7954 68.2593 27.7954 72.8501 27.7954C74.4586 27.7954 76.0336 27.8289 77.642 27.8624C78.8484 27.896 79.4516 28.4321 79.4516 29.6385C79.4516 31.1464 79.351 32.6543 79.3175 34.1623C79.3175 34.4639 79.3845 34.799 79.3845 35.1005C78.1782 35.7707 76.9718 36.4409 75.7655 37.1111C75.5979 37.1781 75.4304 37.2452 75.2628 37.3122C74.5591 37.7143 73.8889 38.1164 73.1852 38.485C72.6491 38.7531 72.1464 38.9877 71.6103 39.2557C70.739 39.7919 69.8678 40.261 68.9965 40.7302ZM68.3934 36.4744C69.1306 36.4744 69.7002 35.8713 69.7002 35.1341C69.7002 34.2963 69.1976 33.7266 68.4604 33.7266C67.4551 33.7266 66.9524 34.1288 66.9189 35C66.8854 35.8713 67.4886 36.4744 68.3934 36.4744Z" fill="#0D3E4D"/>
<path d="M12.4321 44.3827C13.5044 44.9189 14.5768 45.4551 15.6491 45.9912C18.4974 47.4321 21.3457 48.9066 24.2611 50.4145C27.411 45.9912 30.5609 41.6349 33.6773 37.2787C34.0124 37.5133 34.2805 37.7813 34.6491 37.9824C39.1059 40.4621 43.5962 42.9418 48.0865 45.388C48.2205 45.4551 48.3545 45.5891 48.5891 45.7902C43.5962 48.6385 38.7372 51.4198 33.7778 54.2346C34.8166 56.0441 35.7884 57.7531 36.8272 59.4286C36.9612 59.6632 37.4304 59.7972 37.7655 59.7972C41.284 59.8307 44.8025 59.8307 48.321 59.8307C48.5556 59.8307 48.7902 59.8642 49.0582 59.8642C49.0582 60.4339 49.0247 60.9365 49.0582 61.4392C49.0917 62.2099 49.1923 62.9806 49.2593 63.7514C49.2593 64.0529 49.2928 64.3545 49.2928 64.6561C49.2258 66.2311 49.1588 67.806 49.1253 69.381C47.9189 70.9559 46.7461 72.5309 45.5062 74.1729C45.0036 73.3351 44.5679 72.5979 44.1323 71.8272C41.8536 68.0406 39.575 64.2875 37.3298 60.5009C36.9947 59.9312 36.4921 59.7972 35.9224 59.7637C33.3422 59.6297 30.7619 59.5291 28.1817 59.3951C27.679 59.3616 27.411 59.5626 27.1429 59.9648C26.1376 61.4057 25.0653 62.8466 24.06 64.2875C23.8924 64.5556 23.7584 64.8237 23.5909 65.0917C23.5238 65.0917 23.4568 65.0917 23.3563 65.0917C23.1887 63.0476 23.0212 61.0036 22.8536 58.993C22.8201 58.6914 22.7196 58.3228 22.5185 58.0882C20.709 55.9436 18.732 53.933 17.09 51.6879C15.381 49.3422 13.9736 46.829 12.4321 44.3827Z" fill="#CC3B3B"/>
<path d="M49.2928 63.7513C49.2258 62.9806 49.1588 62.2099 49.0918 61.4392C49.0583 60.9365 49.0918 60.4339 49.0918 59.8642C48.8237 59.8642 48.5891 59.8307 48.3546 59.8307C44.836 59.8307 41.3175 59.8307 37.799 59.7972C37.4639 59.7972 36.9948 59.6631 36.8607 59.4286C35.8219 57.7531 34.8501 56.0441 33.8113 54.2346C38.7708 51.4198 43.6297 48.6385 48.6226 45.7901C48.3546 45.5891 48.254 45.455 48.12 45.388C43.6297 42.9083 39.1729 40.4621 34.6826 37.9824C34.3475 37.7813 34.0459 37.5132 33.7108 37.2787C34.6491 35.8713 35.5874 34.4638 36.5256 33.0564C36.6262 32.9224 36.7602 32.8554 36.8607 32.7213C40.9154 32.7549 44.9366 32.7549 49.0918 32.7884C49.0918 37.0441 49.0918 41.2663 49.0918 45.5221C49.0583 45.7231 48.9912 45.9577 48.9912 46.1587C49.0247 46.4938 49.1253 46.8289 49.1923 47.164C49.2258 47.4321 49.2593 47.7337 49.2593 48.0018C49.2928 53.2293 49.2928 58.4903 49.2928 63.7513Z" fill="#EBD4B5"/>
<path d="M49.0918 45.5221C49.0918 41.2663 49.0918 37.0441 49.0918 32.7884C44.9366 32.7549 40.8819 32.7549 36.8607 32.7213C37.0953 32.3527 37.3299 32.0176 37.5979 31.649C39.8096 28.5997 42.0212 25.5168 44.2329 22.4674C45.8078 20.2893 47.3493 18.0776 48.9242 15.8995C48.9577 15.8325 49.0583 15.799 49.1253 15.7654C49.1253 21.3616 49.1253 26.9242 49.1253 32.5873C52.4762 32.5873 55.6261 32.5873 58.9771 32.5873C55.6261 36.9436 52.3757 41.2328 49.0918 45.5221Z" fill="#76DDCB"/>
<path d="M49.2928 63.7513C49.2928 58.4903 49.2928 53.2628 49.2928 48.0018C49.2928 47.7337 49.2593 47.4321 49.2258 47.164C49.5609 47.6332 49.9295 48.1023 50.1976 48.605C51.5044 51.0176 52.7778 53.4303 54.1182 55.8095C54.8219 57.0829 55.6261 58.2893 56.3633 59.5291C56.2963 59.6967 56.2628 59.9312 56.1623 60.0653C53.9842 62.9471 51.7725 65.8624 49.5609 68.7443C49.3933 68.9453 49.2593 69.1799 49.1252 69.381C49.1923 67.806 49.2593 66.2311 49.2928 64.6561C49.3263 64.3545 49.2928 64.0529 49.2928 63.7513Z" fill="#76DDCB"/>
<path d="M62.5291 48.9065C61.0547 48.2363 59.5468 47.5997 58.0053 46.896C58.3739 46.6614 58.709 46.4603 59.0441 46.2593C60.0159 45.6561 61.0212 45.0194 61.993 44.4162C62.194 44.2822 62.4286 44.2487 62.6632 44.1482C62.6632 45.5556 62.6632 46.963 62.6632 48.4039C62.6632 48.5714 62.5626 48.739 62.5291 48.9065Z" fill="#EBD4B5"/>
<path d="M75.7654 37.1446C76.9718 36.4745 78.1781 35.8043 79.3845 35.1341C79.3845 36.6085 79.3845 38.0829 79.3845 39.7919C78.3122 39.0547 77.4074 38.418 76.5362 37.7813C76.2346 37.6138 76.0335 37.3457 75.7654 37.1446Z" fill="#EBD4B5"/>
<path d="M79.3845 56.5802C78.3457 56.0776 77.3069 55.575 76.2346 55.1058C76.8713 54.5361 77.508 54 78.1447 53.4638C78.4798 53.1623 78.8819 52.8942 79.217 52.6261C79.284 53.933 79.3175 55.2734 79.3845 56.5802Z" fill="#76DDCB"/>
<path d="M68.9965 40.7302C69.8678 40.261 70.7725 39.7919 71.6438 39.2892C71.3422 40.8642 71.0741 42.4392 70.739 44.1146C70.2364 43.0758 69.8008 42.1376 69.3316 41.1993C69.2646 41.0317 69.0971 40.8977 68.9965 40.7302Z" fill="#76DDCB"/>
<path d="M73.1852 38.5185C73.8889 38.1164 74.5591 37.7143 75.2628 37.3457C75.2628 38.8201 75.2628 40.2946 75.2628 42.0036C74.5256 40.7302 73.8554 39.6244 73.1852 38.5185Z" fill="#76DDCB"/>
<path d="M74.6261 54.3686C73.8554 54.0335 73.0512 53.6984 72.2805 53.3298C72.6156 52.9947 72.9171 52.5926 73.2857 52.3245C73.8889 51.8219 74.5256 51.4198 75.3298 51.0176C75.0618 52.1235 74.8607 53.2293 74.6261 54.3686Z" fill="#76DDCB"/>
<path d="M12.466 44.3831L12.4321 44.3492V44.3831H12.466Z" fill="#F38481"/>
<path d="M79.418 56.7146V56.6808H79.4519L79.418 56.7146Z" fill="#76DDCB"/>
</svg>
