<svg width="130" height="125" viewBox="0 0 130 125" fill="none" xmlns="http://www.w3.org/2000/svg">
<path d="M86.3853 37.1456C91.7606 36.8915 95.4904 39.5591 97.6844 45.2754C98.2329 44.8943 98.6717 44.5132 99.1105 44.2592C105.473 39.051 111.836 33.8428 118.308 28.7616C119.624 27.7454 120.941 26.8562 122.367 26.094C125.329 24.6967 127.962 26.221 128.62 29.9049C129.059 32.1914 129.168 34.605 129.278 36.8915C129.278 51.2458 129.278 65.6001 129.278 79.9544C129.278 90.8789 129.388 101.93 129.278 112.855C129.278 115.141 129.168 117.555 128.62 119.841C127.852 123.525 125.219 125.05 122.257 123.525C120.502 122.636 118.747 121.366 117.101 120.096C110.958 115.141 104.925 110.187 98.8911 105.233C98.562 104.979 98.1232 104.598 97.6844 104.217C97.5747 104.598 97.465 104.725 97.3553 104.979C95.3807 109.806 92.0897 112.347 87.4823 112.347C72.4534 112.347 57.4245 112.347 42.5052 112.347C32.1934 112.347 21.7719 112.347 11.4601 112.347C7.83998 112.347 4.76837 111.076 2.46466 107.647C0.928861 105.36 0.270666 102.82 0.380366 100.025C0.380366 83.1301 0.380366 66.2352 0.380366 49.3403C0.380366 42.3537 4.32957 37.5266 10.3631 37.0185C10.5825 37.0185 10.6922 37.0185 11.0213 36.8915C10.1437 27.2373 12.9959 19.7426 20.5652 15.4236C27.6957 11.3587 34.3874 13.1371 40.4209 19.1074C46.0156 1.95849 60.9349 -2.61455 71.5758 1.70444C81.4488 6.02343 90.7733 19.3615 86.3853 37.1456ZM49.0872 105.36C61.8125 105.36 74.428 105.36 87.1532 105.36C90.3345 105.36 91.98 103.582 91.98 99.8979C91.98 83.1301 91.98 66.4893 91.98 49.7214C91.98 46.1646 90.3345 44.2592 87.2629 44.2592C61.9222 44.2592 36.5814 44.2592 11.2407 44.2592C8.05937 44.2592 6.52357 46.0376 6.52357 49.7214C6.52357 66.4893 6.52357 83.1301 6.52357 99.8979C6.52357 103.709 8.05938 105.487 11.3504 105.487C23.8562 105.36 36.4717 105.36 49.0872 105.36ZM123.245 32.1914C122.915 32.5725 122.696 32.6995 122.477 32.9536C120.831 34.605 119.295 36.5104 117.54 37.9077C111.397 42.9889 105.254 47.943 99.1105 52.8972C98.4523 53.4053 98.1232 53.9134 98.1232 55.0567C98.1232 68.2677 98.1232 81.4787 98.1232 94.6897C98.1232 95.706 98.4523 96.3411 99.1105 96.8492C102.182 99.2628 105.254 101.676 108.325 104.217C113.262 108.409 118.747 111.839 122.915 117.174C123.025 117.301 123.135 117.301 123.354 117.301C123.245 88.9734 123.245 60.6459 123.245 32.1914ZM63.3483 37.1456C68.3945 37.1456 73.331 37.1456 78.3772 37.1456C79.4742 37.1456 79.913 36.6374 80.3518 35.6212C81.5585 31.5563 81.8876 27.4913 81.01 23.2994C78.4869 11.4857 68.0654 4.62611 58.0826 8.30995C48.2096 11.8668 42.944 24.3156 46.4544 35.4942C46.8932 36.7645 47.332 37.2726 48.5387 37.2726C53.4752 37.1456 58.4118 37.1456 63.3483 37.1456ZM17.4936 37.1456C17.9324 37.1456 18.4809 37.1456 19.0294 37.1456C25.1726 37.1456 31.2061 37.0185 37.3493 37.1456C38.8851 37.1456 39.2142 36.5104 39.3239 34.9861C39.9821 26.3481 34.0583 19.4885 26.5987 20.6318C19.907 21.648 15.1899 30.159 17.4936 37.1456Z" fill="white"/>
</svg>
