<svg width="38" height="38" viewBox="0 0 38 38" fill="none" xmlns="http://www.w3.org/2000/svg">
<path d="M19.0001 0.599976C29.1625 0.599976 37.4001 8.83758 37.4001 19C37.4001 29.1624 29.1625 37.4 19.0001 37.4C8.8377 37.4 0.600098 29.1624 0.600098 19C0.600098 8.83758 8.8377 0.599976 19.0001 0.599976ZM25.3473 26.5C25.6857 25.4616 27.2713 15.1128 27.4673 13.0736C27.5265 12.456 27.3313 12.0456 26.9489 11.8624C26.4865 11.64 25.8017 11.7512 25.0073 12.0376C23.9177 12.4304 9.9881 18.3448 9.1833 18.6872C8.4201 19.0112 7.6985 19.3648 7.6985 19.8768C7.6985 20.2368 7.9121 20.4392 8.5009 20.6496C9.1137 20.868 10.6569 21.336 11.5681 21.5872C12.4457 21.8296 13.4449 21.6192 14.0049 21.2712C14.5985 20.9024 21.4489 16.3184 21.9409 15.9168C22.4321 15.5152 22.8241 16.0296 22.4225 16.432C22.0209 16.8336 17.3185 21.3976 16.6985 22.0296C15.9457 22.7968 16.4801 23.592 16.9849 23.9104C17.5617 24.2736 21.7097 27.056 22.3345 27.5024C22.9593 27.9488 23.5929 28.1512 24.1729 28.1512C24.7529 28.1512 25.0585 27.3872 25.3473 26.5Z" fill="black"/>
</svg>
