<svg width="38" height="38" viewBox="0 0 38 38" fill="none" xmlns="http://www.w3.org/2000/svg">
<path d="M19.0001 0.599976C8.8545 0.599976 0.600098 8.85438 0.600098 19C0.600098 29.1456 8.8545 37.4 19.0001 37.4C29.1465 37.4 37.4001 29.1456 37.4001 19C37.4001 8.85438 29.1465 0.599976 19.0001 0.599976ZM26.9785 22.628C28.7681 24.2168 29.1401 24.784 29.2009 24.8808C29.9425 26.0568 28.3785 26.2 28.3785 26.2H25.0825C25.0825 26.2 24.2801 26.2088 23.5945 25.7544C22.4769 25.0224 21.3065 23.6032 20.4841 23.8496C19.7937 24.056 19.8001 24.9888 19.8001 25.7864C19.8001 26.072 19.5545 26.2 19.0001 26.2C18.4457 26.2 18.2153 26.2 17.9697 26.2C16.1641 26.2 14.2049 25.592 12.2505 23.5496C9.4857 20.6624 7.0609 14.8464 7.0609 14.8464C7.0609 14.8464 6.9177 14.5536 7.0737 14.3752C7.2505 14.1752 7.7313 14.2008 7.7313 14.2008L10.9273 14.2C10.9273 14.2 11.2281 14.2568 11.4441 14.4088C11.6225 14.5336 11.7217 14.772 11.7217 14.772C11.7217 14.772 12.2585 16.5448 12.9425 17.6752C14.2785 19.8816 14.9001 19.9376 15.3537 19.7C16.0161 19.356 15.8001 17.0104 15.8001 17.0104C15.8001 17.0104 15.8297 16.0032 15.4841 15.5544C15.2177 15.2072 14.7081 15.0224 14.4857 14.9936C14.3057 14.9704 14.6065 14.6552 14.9897 14.4752C15.5017 14.2472 16.1985 14.1888 17.4001 14.2C18.3353 14.2088 18.6049 14.2648 18.9697 14.3488C20.0729 14.6032 19.8001 15.2744 19.8001 17.6312C19.8001 18.3864 19.6961 19.448 20.2657 19.8C20.5113 19.952 21.3529 20.1376 22.8505 17.7056C23.5617 16.552 24.1273 14.6384 24.1273 14.6384C24.1273 14.6384 24.2441 14.428 24.4257 14.324C24.6113 14.2176 24.6057 14.22 24.8601 14.22C25.1145 14.22 27.6657 14.2 28.2257 14.2C28.7849 14.2 29.3097 14.1936 29.4001 14.5216C29.5297 14.9928 28.9873 16.6072 27.6129 18.3592C25.3545 21.2344 25.1041 20.9656 26.9785 22.628Z" fill="black"/>
</svg>
